M48
; DRILL file {KiCad 5.1.10-88a1d61d58~88~ubuntu18.04.1} date Mon Nov 15 16:26:51 2021
; FORMAT={-:-/ absolute / inch / decimal}
; #@! TF.CreationDate,2021-11-15T16:26:51+07:00
; #@! TF.GenerationSoftware,Kicad,Pcbnew,5.1.10-88a1d61d58~88~ubuntu18.04.1
FMAT,2
INCH
T1C0.0118
T2C0.0276
T3C0.0354
%
G90
G05
T1
X4.811Y-3.112
X4.8115Y-3.2295
X4.8135Y-3.2885
X4.8135Y-3.4075
X4.8145Y-3.348
X4.972Y-3.348
X4.972Y-3.4065
X4.973Y-3.289
X4.9735Y-3.2305
X5.0035Y-3.092
X5.04Y-3.1965
X5.0405Y-3.258
X5.0405Y-3.32
X5.0405Y-3.376
X5.041Y-3.1255
X5.1545Y-3.495
X5.204Y-3.494
X5.22Y-3.398
X5.2205Y-3.1025
X5.2205Y-3.165
X5.2205Y-3.2495
X5.254Y-3.4925
X5.2985Y-3.021
X5.4295Y-3.2885
X5.454Y-3.332
X5.4545Y-3.068
X5.4545Y-3.1155
X5.4545Y-3.24
X5.4555Y-3.021
X5.4555Y-3.1625
X5.552Y-3.179
X5.552Y-3.202
X5.5525Y-3.1545
X5.553Y-3.1315
X5.5535Y-3.0755
X5.5535Y-3.1
X5.554Y-3.0525
X5.5545Y-3.028
X5.5589Y-3.2319
X5.5739Y-3.2574
X5.5765Y-3.32
X5.577Y-3.3765
X5.5775Y-3.4385
X5.5905Y-3.2835
T2
X5.3475Y-3.4935
X5.437Y-3.4895
T3
G00X4.6642Y-2.9641
M15
G01X4.617Y-2.9641
M16
G05
G00X4.6642Y-3.535
M15
G01X4.617Y-3.535
M16
G05
G00X4.9107Y-2.9641
M15
G01X4.8398Y-2.9641
M16
G05
G00X4.9107Y-3.535
M15
G01X4.8398Y-3.535
M16
G05
T0
M30
