%TF.GenerationSoftware,KiCad,Pcbnew,5.1.10-88a1d61d58~88~ubuntu18.04.1*%
%TF.CreationDate,2021-11-15T16:26:48+07:00*%
%TF.ProjectId,HDMI-USL00_30L-ADAPTER,48444d49-2d55-4534-9c30-305f33304c2d,rev?*%
%TF.SameCoordinates,Original*%
%TF.FileFunction,Copper,L2,Bot*%
%TF.FilePolarity,Positive*%
%FSLAX46Y46*%
G04 Gerber Fmt 4.6, Leading zero omitted, Abs format (unit mm)*
G04 Created by KiCad (PCBNEW 5.1.10-88a1d61d58~88~ubuntu18.04.1) date 2021-11-15 16:26:48*
%MOMM*%
%LPD*%
G01*
G04 APERTURE LIST*
%ADD10C,0.100000*%
%ADD11C,0.150000*%
%ADD12C,0.300000*%
%ADD13C,0.400000*%
%TA.AperFunction,ComponentPad*%
%ADD14C,1.500000*%
%TD*%
%TA.AperFunction,SMDPad,CuDef*%
%ADD15R,1.550000X0.800000*%
%TD*%
%TA.AperFunction,SMDPad,CuDef*%
%ADD16R,0.600000X0.500000*%
%TD*%
%TA.AperFunction,SMDPad,CuDef*%
%ADD17R,1.100000X0.200000*%
%TD*%
%TA.AperFunction,SMDPad,CuDef*%
%ADD18R,2.100000X3.000000*%
%TD*%
%TA.AperFunction,SMDPad,CuDef*%
%ADD19R,0.800000X1.600000*%
%TD*%
%TA.AperFunction,ComponentPad*%
%ADD20O,3.000000X1.500000*%
%TD*%
%TA.AperFunction,ComponentPad*%
%ADD21O,3.400000X1.700000*%
%TD*%
%TA.AperFunction,ViaPad*%
%ADD22C,0.500000*%
%TD*%
%TA.AperFunction,Conductor*%
%ADD23C,0.200000*%
%TD*%
%TA.AperFunction,Conductor*%
%ADD24C,0.199000*%
%TD*%
%TA.AperFunction,Conductor*%
%ADD25C,0.300000*%
%TD*%
%TA.AperFunction,Conductor*%
%ADD26C,0.127000*%
%TD*%
%TA.AperFunction,Conductor*%
%ADD27C,0.254000*%
%TD*%
%TA.AperFunction,Conductor*%
%ADD28C,0.100000*%
%TD*%
G04 APERTURE END LIST*
D10*
D11*
X177002200Y-166007200D02*
X177002200Y-198007200D01*
X285002200Y-198007200D01*
X285002200Y-166007200D01*
X177002200Y-166007200D01*
D10*
D11*
X10000000Y-10000000D02*
X10000000Y-200007200D01*
X287002200Y-200007200D01*
X287002200Y-10000000D01*
X10000000Y-10000000D01*
D10*
D11*
X12000000Y-12000000D02*
X12000000Y-198007200D01*
X285002200Y-198007200D01*
X285002200Y-12000000D01*
X12000000Y-12000000D01*
D10*
D11*
X60000000Y-12000000D02*
X60000000Y-10000000D01*
D10*
D11*
X110000000Y-12000000D02*
X110000000Y-10000000D01*
D10*
D11*
X160000000Y-12000000D02*
X160000000Y-10000000D01*
D10*
D11*
X210000000Y-12000000D02*
X210000000Y-10000000D01*
D10*
D11*
X260000000Y-12000000D02*
X260000000Y-10000000D01*
D10*
D11*
X36065476Y-11588095D02*
X35322619Y-11588095D01*
X35694047Y-11588095D02*
X35694047Y-10288095D01*
X35570238Y-10473809D01*
X35446428Y-10597619D01*
X35322619Y-10659523D01*
D10*
D11*
X85322619Y-10411904D02*
X85384523Y-10350000D01*
X85508333Y-10288095D01*
X85817857Y-10288095D01*
X85941666Y-10350000D01*
X86003571Y-10411904D01*
X86065476Y-10535714D01*
X86065476Y-10659523D01*
X86003571Y-10845238D01*
X85260714Y-11588095D01*
X86065476Y-11588095D01*
D10*
D11*
X135260714Y-10288095D02*
X136065476Y-10288095D01*
X135632142Y-10783333D01*
X135817857Y-10783333D01*
X135941666Y-10845238D01*
X136003571Y-10907142D01*
X136065476Y-11030952D01*
X136065476Y-11340476D01*
X136003571Y-11464285D01*
X135941666Y-11526190D01*
X135817857Y-11588095D01*
X135446428Y-11588095D01*
X135322619Y-11526190D01*
X135260714Y-11464285D01*
D10*
D11*
X185941666Y-10721428D02*
X185941666Y-11588095D01*
X185632142Y-10226190D02*
X185322619Y-11154761D01*
X186127380Y-11154761D01*
D10*
D11*
X236003571Y-10288095D02*
X235384523Y-10288095D01*
X235322619Y-10907142D01*
X235384523Y-10845238D01*
X235508333Y-10783333D01*
X235817857Y-10783333D01*
X235941666Y-10845238D01*
X236003571Y-10907142D01*
X236065476Y-11030952D01*
X236065476Y-11340476D01*
X236003571Y-11464285D01*
X235941666Y-11526190D01*
X235817857Y-11588095D01*
X235508333Y-11588095D01*
X235384523Y-11526190D01*
X235322619Y-11464285D01*
D10*
D11*
X285941666Y-10288095D02*
X285694047Y-10288095D01*
X285570238Y-10350000D01*
X285508333Y-10411904D01*
X285384523Y-10597619D01*
X285322619Y-10845238D01*
X285322619Y-11340476D01*
X285384523Y-11464285D01*
X285446428Y-11526190D01*
X285570238Y-11588095D01*
X285817857Y-11588095D01*
X285941666Y-11526190D01*
X286003571Y-11464285D01*
X286065476Y-11340476D01*
X286065476Y-11030952D01*
X286003571Y-10907142D01*
X285941666Y-10845238D01*
X285817857Y-10783333D01*
X285570238Y-10783333D01*
X285446428Y-10845238D01*
X285384523Y-10907142D01*
X285322619Y-11030952D01*
D10*
D11*
X60000000Y-198007200D02*
X60000000Y-200007200D01*
D10*
D11*
X110000000Y-198007200D02*
X110000000Y-200007200D01*
D10*
D11*
X160000000Y-198007200D02*
X160000000Y-200007200D01*
D10*
D11*
X210000000Y-198007200D02*
X210000000Y-200007200D01*
D10*
D11*
X260000000Y-198007200D02*
X260000000Y-200007200D01*
D10*
D11*
X36065476Y-199595295D02*
X35322619Y-199595295D01*
X35694047Y-199595295D02*
X35694047Y-198295295D01*
X35570238Y-198481009D01*
X35446428Y-198604819D01*
X35322619Y-198666723D01*
D10*
D11*
X85322619Y-198419104D02*
X85384523Y-198357200D01*
X85508333Y-198295295D01*
X85817857Y-198295295D01*
X85941666Y-198357200D01*
X86003571Y-198419104D01*
X86065476Y-198542914D01*
X86065476Y-198666723D01*
X86003571Y-198852438D01*
X85260714Y-199595295D01*
X86065476Y-199595295D01*
D10*
D11*
X135260714Y-198295295D02*
X136065476Y-198295295D01*
X135632142Y-198790533D01*
X135817857Y-198790533D01*
X135941666Y-198852438D01*
X136003571Y-198914342D01*
X136065476Y-199038152D01*
X136065476Y-199347676D01*
X136003571Y-199471485D01*
X135941666Y-199533390D01*
X135817857Y-199595295D01*
X135446428Y-199595295D01*
X135322619Y-199533390D01*
X135260714Y-199471485D01*
D10*
D11*
X185941666Y-198728628D02*
X185941666Y-199595295D01*
X185632142Y-198233390D02*
X185322619Y-199161961D01*
X186127380Y-199161961D01*
D10*
D11*
X236003571Y-198295295D02*
X235384523Y-198295295D01*
X235322619Y-198914342D01*
X235384523Y-198852438D01*
X235508333Y-198790533D01*
X235817857Y-198790533D01*
X235941666Y-198852438D01*
X236003571Y-198914342D01*
X236065476Y-199038152D01*
X236065476Y-199347676D01*
X236003571Y-199471485D01*
X235941666Y-199533390D01*
X235817857Y-199595295D01*
X235508333Y-199595295D01*
X235384523Y-199533390D01*
X235322619Y-199471485D01*
D10*
D11*
X285941666Y-198295295D02*
X285694047Y-198295295D01*
X285570238Y-198357200D01*
X285508333Y-198419104D01*
X285384523Y-198604819D01*
X285322619Y-198852438D01*
X285322619Y-199347676D01*
X285384523Y-199471485D01*
X285446428Y-199533390D01*
X285570238Y-199595295D01*
X285817857Y-199595295D01*
X285941666Y-199533390D01*
X286003571Y-199471485D01*
X286065476Y-199347676D01*
X286065476Y-199038152D01*
X286003571Y-198914342D01*
X285941666Y-198852438D01*
X285817857Y-198790533D01*
X285570238Y-198790533D01*
X285446428Y-198852438D01*
X285384523Y-198914342D01*
X285322619Y-199038152D01*
D10*
D11*
X10000000Y-60000000D02*
X12000000Y-60000000D01*
D10*
D11*
X10000000Y-110000000D02*
X12000000Y-110000000D01*
D10*
D11*
X10000000Y-160000000D02*
X12000000Y-160000000D01*
D10*
D11*
X10690476Y-35216666D02*
X11309523Y-35216666D01*
X10566666Y-35588095D02*
X11000000Y-34288095D01*
X11433333Y-35588095D01*
D10*
D11*
X11092857Y-84907142D02*
X11278571Y-84969047D01*
X11340476Y-85030952D01*
X11402380Y-85154761D01*
X11402380Y-85340476D01*
X11340476Y-85464285D01*
X11278571Y-85526190D01*
X11154761Y-85588095D01*
X10659523Y-85588095D01*
X10659523Y-84288095D01*
X11092857Y-84288095D01*
X11216666Y-84350000D01*
X11278571Y-84411904D01*
X11340476Y-84535714D01*
X11340476Y-84659523D01*
X11278571Y-84783333D01*
X11216666Y-84845238D01*
X11092857Y-84907142D01*
X10659523Y-84907142D01*
D10*
D11*
X11402380Y-135464285D02*
X11340476Y-135526190D01*
X11154761Y-135588095D01*
X11030952Y-135588095D01*
X10845238Y-135526190D01*
X10721428Y-135402380D01*
X10659523Y-135278571D01*
X10597619Y-135030952D01*
X10597619Y-134845238D01*
X10659523Y-134597619D01*
X10721428Y-134473809D01*
X10845238Y-134350000D01*
X11030952Y-134288095D01*
X11154761Y-134288095D01*
X11340476Y-134350000D01*
X11402380Y-134411904D01*
D10*
D11*
X10659523Y-185588095D02*
X10659523Y-184288095D01*
X10969047Y-184288095D01*
X11154761Y-184350000D01*
X11278571Y-184473809D01*
X11340476Y-184597619D01*
X11402380Y-184845238D01*
X11402380Y-185030952D01*
X11340476Y-185278571D01*
X11278571Y-185402380D01*
X11154761Y-185526190D01*
X10969047Y-185588095D01*
X10659523Y-185588095D01*
D10*
D11*
X287002200Y-60000000D02*
X285002200Y-60000000D01*
D10*
D11*
X287002200Y-110000000D02*
X285002200Y-110000000D01*
D10*
D11*
X287002200Y-160000000D02*
X285002200Y-160000000D01*
D10*
D11*
X285692676Y-35216666D02*
X286311723Y-35216666D01*
X285568866Y-35588095D02*
X286002200Y-34288095D01*
X286435533Y-35588095D01*
D10*
D11*
X286095057Y-84907142D02*
X286280771Y-84969047D01*
X286342676Y-85030952D01*
X286404580Y-85154761D01*
X286404580Y-85340476D01*
X286342676Y-85464285D01*
X286280771Y-85526190D01*
X286156961Y-85588095D01*
X285661723Y-85588095D01*
X285661723Y-84288095D01*
X286095057Y-84288095D01*
X286218866Y-84350000D01*
X286280771Y-84411904D01*
X286342676Y-84535714D01*
X286342676Y-84659523D01*
X286280771Y-84783333D01*
X286218866Y-84845238D01*
X286095057Y-84907142D01*
X285661723Y-84907142D01*
D10*
D11*
X286404580Y-135464285D02*
X286342676Y-135526190D01*
X286156961Y-135588095D01*
X286033152Y-135588095D01*
X285847438Y-135526190D01*
X285723628Y-135402380D01*
X285661723Y-135278571D01*
X285599819Y-135030952D01*
X285599819Y-134845238D01*
X285661723Y-134597619D01*
X285723628Y-134473809D01*
X285847438Y-134350000D01*
X286033152Y-134288095D01*
X286156961Y-134288095D01*
X286342676Y-134350000D01*
X286404580Y-134411904D01*
D10*
D11*
X285661723Y-185588095D02*
X285661723Y-184288095D01*
X285971247Y-184288095D01*
X286156961Y-184350000D01*
X286280771Y-184473809D01*
X286342676Y-184597619D01*
X286404580Y-184845238D01*
X286404580Y-185030952D01*
X286342676Y-185278571D01*
X286280771Y-185402380D01*
X286156961Y-185526190D01*
X285971247Y-185588095D01*
X285661723Y-185588095D01*
D10*
D11*
X200434342Y-193785771D02*
X200434342Y-192285771D01*
X200791485Y-192285771D01*
X201005771Y-192357200D01*
X201148628Y-192500057D01*
X201220057Y-192642914D01*
X201291485Y-192928628D01*
X201291485Y-193142914D01*
X201220057Y-193428628D01*
X201148628Y-193571485D01*
X201005771Y-193714342D01*
X200791485Y-193785771D01*
X200434342Y-193785771D01*
X202577200Y-193785771D02*
X202577200Y-193000057D01*
X202505771Y-192857200D01*
X202362914Y-192785771D01*
X202077200Y-192785771D01*
X201934342Y-192857200D01*
X202577200Y-193714342D02*
X202434342Y-193785771D01*
X202077200Y-193785771D01*
X201934342Y-193714342D01*
X201862914Y-193571485D01*
X201862914Y-193428628D01*
X201934342Y-193285771D01*
X202077200Y-193214342D01*
X202434342Y-193214342D01*
X202577200Y-193142914D01*
X203077200Y-192785771D02*
X203648628Y-192785771D01*
X203291485Y-192285771D02*
X203291485Y-193571485D01*
X203362914Y-193714342D01*
X203505771Y-193785771D01*
X203648628Y-193785771D01*
X204720057Y-193714342D02*
X204577200Y-193785771D01*
X204291485Y-193785771D01*
X204148628Y-193714342D01*
X204077200Y-193571485D01*
X204077200Y-193000057D01*
X204148628Y-192857200D01*
X204291485Y-192785771D01*
X204577200Y-192785771D01*
X204720057Y-192857200D01*
X204791485Y-193000057D01*
X204791485Y-193142914D01*
X204077200Y-193285771D01*
X205434342Y-193642914D02*
X205505771Y-193714342D01*
X205434342Y-193785771D01*
X205362914Y-193714342D01*
X205434342Y-193642914D01*
X205434342Y-193785771D01*
X205434342Y-192857200D02*
X205505771Y-192928628D01*
X205434342Y-193000057D01*
X205362914Y-192928628D01*
X205434342Y-192857200D01*
X205434342Y-193000057D01*
D10*
D11*
X177002200Y-194507200D02*
X285002200Y-194507200D01*
D10*
D11*
X178434342Y-196585771D02*
X178434342Y-195085771D01*
X179291485Y-196585771D02*
X178648628Y-195728628D01*
X179291485Y-195085771D02*
X178434342Y-195942914D01*
X179934342Y-196585771D02*
X179934342Y-195585771D01*
X179934342Y-195085771D02*
X179862914Y-195157200D01*
X179934342Y-195228628D01*
X180005771Y-195157200D01*
X179934342Y-195085771D01*
X179934342Y-195228628D01*
X181505771Y-196442914D02*
X181434342Y-196514342D01*
X181220057Y-196585771D01*
X181077200Y-196585771D01*
X180862914Y-196514342D01*
X180720057Y-196371485D01*
X180648628Y-196228628D01*
X180577200Y-195942914D01*
X180577200Y-195728628D01*
X180648628Y-195442914D01*
X180720057Y-195300057D01*
X180862914Y-195157200D01*
X181077200Y-195085771D01*
X181220057Y-195085771D01*
X181434342Y-195157200D01*
X181505771Y-195228628D01*
X182791485Y-196585771D02*
X182791485Y-195800057D01*
X182720057Y-195657200D01*
X182577200Y-195585771D01*
X182291485Y-195585771D01*
X182148628Y-195657200D01*
X182791485Y-196514342D02*
X182648628Y-196585771D01*
X182291485Y-196585771D01*
X182148628Y-196514342D01*
X182077200Y-196371485D01*
X182077200Y-196228628D01*
X182148628Y-196085771D01*
X182291485Y-196014342D01*
X182648628Y-196014342D01*
X182791485Y-195942914D01*
X184148628Y-196585771D02*
X184148628Y-195085771D01*
X184148628Y-196514342D02*
X184005771Y-196585771D01*
X183720057Y-196585771D01*
X183577200Y-196514342D01*
X183505771Y-196442914D01*
X183434342Y-196300057D01*
X183434342Y-195871485D01*
X183505771Y-195728628D01*
X183577200Y-195657200D01*
X183720057Y-195585771D01*
X184005771Y-195585771D01*
X184148628Y-195657200D01*
X186005771Y-195800057D02*
X186505771Y-195800057D01*
X186720057Y-196585771D02*
X186005771Y-196585771D01*
X186005771Y-195085771D01*
X186720057Y-195085771D01*
X187362914Y-196442914D02*
X187434342Y-196514342D01*
X187362914Y-196585771D01*
X187291485Y-196514342D01*
X187362914Y-196442914D01*
X187362914Y-196585771D01*
X188077200Y-196585771D02*
X188077200Y-195085771D01*
X188434342Y-195085771D01*
X188648628Y-195157200D01*
X188791485Y-195300057D01*
X188862914Y-195442914D01*
X188934342Y-195728628D01*
X188934342Y-195942914D01*
X188862914Y-196228628D01*
X188791485Y-196371485D01*
X188648628Y-196514342D01*
X188434342Y-196585771D01*
X188077200Y-196585771D01*
X189577200Y-196442914D02*
X189648628Y-196514342D01*
X189577200Y-196585771D01*
X189505771Y-196514342D01*
X189577200Y-196442914D01*
X189577200Y-196585771D01*
X190220057Y-196157200D02*
X190934342Y-196157200D01*
X190077200Y-196585771D02*
X190577200Y-195085771D01*
X191077200Y-196585771D01*
X191577200Y-196442914D02*
X191648628Y-196514342D01*
X191577200Y-196585771D01*
X191505771Y-196514342D01*
X191577200Y-196442914D01*
X191577200Y-196585771D01*
X194577200Y-196585771D02*
X194577200Y-195085771D01*
X194720057Y-196014342D02*
X195148628Y-196585771D01*
X195148628Y-195585771D02*
X194577200Y-196157200D01*
X195791485Y-196585771D02*
X195791485Y-195585771D01*
X195791485Y-195085771D02*
X195720057Y-195157200D01*
X195791485Y-195228628D01*
X195862914Y-195157200D01*
X195791485Y-195085771D01*
X195791485Y-195228628D01*
X197148628Y-196514342D02*
X197005771Y-196585771D01*
X196720057Y-196585771D01*
X196577200Y-196514342D01*
X196505771Y-196442914D01*
X196434342Y-196300057D01*
X196434342Y-195871485D01*
X196505771Y-195728628D01*
X196577200Y-195657200D01*
X196720057Y-195585771D01*
X197005771Y-195585771D01*
X197148628Y-195657200D01*
X198434342Y-196585771D02*
X198434342Y-195800057D01*
X198362914Y-195657200D01*
X198220057Y-195585771D01*
X197934342Y-195585771D01*
X197791485Y-195657200D01*
X198434342Y-196514342D02*
X198291485Y-196585771D01*
X197934342Y-196585771D01*
X197791485Y-196514342D01*
X197720057Y-196371485D01*
X197720057Y-196228628D01*
X197791485Y-196085771D01*
X197934342Y-196014342D01*
X198291485Y-196014342D01*
X198434342Y-195942914D01*
X199791485Y-196585771D02*
X199791485Y-195085771D01*
X199791485Y-196514342D02*
X199648628Y-196585771D01*
X199362914Y-196585771D01*
X199220057Y-196514342D01*
X199148628Y-196442914D01*
X199077200Y-196300057D01*
X199077200Y-195871485D01*
X199148628Y-195728628D01*
X199220057Y-195657200D01*
X199362914Y-195585771D01*
X199648628Y-195585771D01*
X199791485Y-195657200D01*
X202362914Y-195085771D02*
X201648628Y-195085771D01*
X201577200Y-195800057D01*
X201648628Y-195728628D01*
X201791485Y-195657200D01*
X202148628Y-195657200D01*
X202291485Y-195728628D01*
X202362914Y-195800057D01*
X202434342Y-195942914D01*
X202434342Y-196300057D01*
X202362914Y-196442914D01*
X202291485Y-196514342D01*
X202148628Y-196585771D01*
X201791485Y-196585771D01*
X201648628Y-196514342D01*
X201577200Y-196442914D01*
X203077200Y-196442914D02*
X203148628Y-196514342D01*
X203077200Y-196585771D01*
X203005771Y-196514342D01*
X203077200Y-196442914D01*
X203077200Y-196585771D01*
X204577200Y-196585771D02*
X203720057Y-196585771D01*
X204148628Y-196585771D02*
X204148628Y-195085771D01*
X204005771Y-195300057D01*
X203862914Y-195442914D01*
X203720057Y-195514342D01*
X205220057Y-196442914D02*
X205291485Y-196514342D01*
X205220057Y-196585771D01*
X205148628Y-196514342D01*
X205220057Y-196442914D01*
X205220057Y-196585771D01*
X206720057Y-196585771D02*
X205862914Y-196585771D01*
X206291485Y-196585771D02*
X206291485Y-195085771D01*
X206148628Y-195300057D01*
X206005771Y-195442914D01*
X205862914Y-195514342D01*
X207648628Y-195085771D02*
X207791485Y-195085771D01*
X207934342Y-195157200D01*
X208005771Y-195228628D01*
X208077200Y-195371485D01*
X208148628Y-195657200D01*
X208148628Y-196014342D01*
X208077200Y-196300057D01*
X208005771Y-196442914D01*
X207934342Y-196514342D01*
X207791485Y-196585771D01*
X207648628Y-196585771D01*
X207505771Y-196514342D01*
X207434342Y-196442914D01*
X207362914Y-196300057D01*
X207291485Y-196014342D01*
X207291485Y-195657200D01*
X207362914Y-195371485D01*
X207434342Y-195228628D01*
X207505771Y-195157200D01*
X207648628Y-195085771D01*
X208791485Y-196014342D02*
X209934342Y-196014342D01*
X210862914Y-195728628D02*
X210720057Y-195657200D01*
X210648628Y-195585771D01*
X210577200Y-195442914D01*
X210577200Y-195371485D01*
X210648628Y-195228628D01*
X210720057Y-195157200D01*
X210862914Y-195085771D01*
X211148628Y-195085771D01*
X211291485Y-195157200D01*
X211362914Y-195228628D01*
X211434342Y-195371485D01*
X211434342Y-195442914D01*
X211362914Y-195585771D01*
X211291485Y-195657200D01*
X211148628Y-195728628D01*
X210862914Y-195728628D01*
X210720057Y-195800057D01*
X210648628Y-195871485D01*
X210577200Y-196014342D01*
X210577200Y-196300057D01*
X210648628Y-196442914D01*
X210720057Y-196514342D01*
X210862914Y-196585771D01*
X211148628Y-196585771D01*
X211291485Y-196514342D01*
X211362914Y-196442914D01*
X211434342Y-196300057D01*
X211434342Y-196014342D01*
X211362914Y-195871485D01*
X211291485Y-195800057D01*
X211148628Y-195728628D01*
X212291485Y-195728628D02*
X212148628Y-195657200D01*
X212077200Y-195585771D01*
X212005771Y-195442914D01*
X212005771Y-195371485D01*
X212077200Y-195228628D01*
X212148628Y-195157200D01*
X212291485Y-195085771D01*
X212577200Y-195085771D01*
X212720057Y-195157200D01*
X212791485Y-195228628D01*
X212862914Y-195371485D01*
X212862914Y-195442914D01*
X212791485Y-195585771D01*
X212720057Y-195657200D01*
X212577200Y-195728628D01*
X212291485Y-195728628D01*
X212148628Y-195800057D01*
X212077200Y-195871485D01*
X212005771Y-196014342D01*
X212005771Y-196300057D01*
X212077200Y-196442914D01*
X212148628Y-196514342D01*
X212291485Y-196585771D01*
X212577200Y-196585771D01*
X212720057Y-196514342D01*
X212791485Y-196442914D01*
X212862914Y-196300057D01*
X212862914Y-196014342D01*
X212791485Y-195871485D01*
X212720057Y-195800057D01*
X212577200Y-195728628D01*
X214148628Y-196585771D02*
X214148628Y-195800057D01*
X214077200Y-195657200D01*
X213934342Y-195585771D01*
X213648628Y-195585771D01*
X213505771Y-195657200D01*
X214148628Y-196514342D02*
X214005771Y-196585771D01*
X213648628Y-196585771D01*
X213505771Y-196514342D01*
X213434342Y-196371485D01*
X213434342Y-196228628D01*
X213505771Y-196085771D01*
X213648628Y-196014342D01*
X214005771Y-196014342D01*
X214148628Y-195942914D01*
X215648628Y-196585771D02*
X214791485Y-196585771D01*
X215220057Y-196585771D02*
X215220057Y-195085771D01*
X215077200Y-195300057D01*
X214934342Y-195442914D01*
X214791485Y-195514342D01*
X216934342Y-196585771D02*
X216934342Y-195085771D01*
X216934342Y-196514342D02*
X216791485Y-196585771D01*
X216505771Y-196585771D01*
X216362914Y-196514342D01*
X216291485Y-196442914D01*
X216220057Y-196300057D01*
X216220057Y-195871485D01*
X216291485Y-195728628D01*
X216362914Y-195657200D01*
X216505771Y-195585771D01*
X216791485Y-195585771D01*
X216934342Y-195657200D01*
X218291485Y-195085771D02*
X218005771Y-195085771D01*
X217862914Y-195157200D01*
X217791485Y-195228628D01*
X217648628Y-195442914D01*
X217577200Y-195728628D01*
X217577200Y-196300057D01*
X217648628Y-196442914D01*
X217720057Y-196514342D01*
X217862914Y-196585771D01*
X218148628Y-196585771D01*
X218291485Y-196514342D01*
X218362914Y-196442914D01*
X218434342Y-196300057D01*
X218434342Y-195942914D01*
X218362914Y-195800057D01*
X218291485Y-195728628D01*
X218148628Y-195657200D01*
X217862914Y-195657200D01*
X217720057Y-195728628D01*
X217648628Y-195800057D01*
X217577200Y-195942914D01*
X219862914Y-196585771D02*
X219005771Y-196585771D01*
X219434342Y-196585771D02*
X219434342Y-195085771D01*
X219291485Y-195300057D01*
X219148628Y-195442914D01*
X219005771Y-195514342D01*
X221148628Y-196585771D02*
X221148628Y-195085771D01*
X221148628Y-196514342D02*
X221005771Y-196585771D01*
X220720057Y-196585771D01*
X220577200Y-196514342D01*
X220505771Y-196442914D01*
X220434342Y-196300057D01*
X220434342Y-195871485D01*
X220505771Y-195728628D01*
X220577200Y-195657200D01*
X220720057Y-195585771D01*
X221005771Y-195585771D01*
X221148628Y-195657200D01*
X222577200Y-195085771D02*
X221862914Y-195085771D01*
X221791485Y-195800057D01*
X221862914Y-195728628D01*
X222005771Y-195657200D01*
X222362914Y-195657200D01*
X222505771Y-195728628D01*
X222577200Y-195800057D01*
X222648628Y-195942914D01*
X222648628Y-196300057D01*
X222577200Y-196442914D01*
X222505771Y-196514342D01*
X222362914Y-196585771D01*
X222005771Y-196585771D01*
X221862914Y-196514342D01*
X221791485Y-196442914D01*
X223505771Y-195728628D02*
X223362914Y-195657200D01*
X223291485Y-195585771D01*
X223220057Y-195442914D01*
X223220057Y-195371485D01*
X223291485Y-195228628D01*
X223362914Y-195157200D01*
X223505771Y-195085771D01*
X223791485Y-195085771D01*
X223934342Y-195157200D01*
X224005771Y-195228628D01*
X224077200Y-195371485D01*
X224077200Y-195442914D01*
X224005771Y-195585771D01*
X223934342Y-195657200D01*
X223791485Y-195728628D01*
X223505771Y-195728628D01*
X223362914Y-195800057D01*
X223291485Y-195871485D01*
X223220057Y-196014342D01*
X223220057Y-196300057D01*
X223291485Y-196442914D01*
X223362914Y-196514342D01*
X223505771Y-196585771D01*
X223791485Y-196585771D01*
X223934342Y-196514342D01*
X224005771Y-196442914D01*
X224077200Y-196300057D01*
X224077200Y-196014342D01*
X224005771Y-195871485D01*
X223934342Y-195800057D01*
X223791485Y-195728628D01*
X224362914Y-194677200D02*
X225791485Y-194677200D01*
X224934342Y-195728628D02*
X224791485Y-195657200D01*
X224720057Y-195585771D01*
X224648628Y-195442914D01*
X224648628Y-195371485D01*
X224720057Y-195228628D01*
X224791485Y-195157200D01*
X224934342Y-195085771D01*
X225220057Y-195085771D01*
X225362914Y-195157200D01*
X225434342Y-195228628D01*
X225505771Y-195371485D01*
X225505771Y-195442914D01*
X225434342Y-195585771D01*
X225362914Y-195657200D01*
X225220057Y-195728628D01*
X224934342Y-195728628D01*
X224791485Y-195800057D01*
X224720057Y-195871485D01*
X224648628Y-196014342D01*
X224648628Y-196300057D01*
X224720057Y-196442914D01*
X224791485Y-196514342D01*
X224934342Y-196585771D01*
X225220057Y-196585771D01*
X225362914Y-196514342D01*
X225434342Y-196442914D01*
X225505771Y-196300057D01*
X225505771Y-196014342D01*
X225434342Y-195871485D01*
X225362914Y-195800057D01*
X225220057Y-195728628D01*
X225791485Y-194677200D02*
X227220057Y-194677200D01*
X226362914Y-195728628D02*
X226220057Y-195657200D01*
X226148628Y-195585771D01*
X226077199Y-195442914D01*
X226077199Y-195371485D01*
X226148628Y-195228628D01*
X226220057Y-195157200D01*
X226362914Y-195085771D01*
X226648628Y-195085771D01*
X226791485Y-195157200D01*
X226862914Y-195228628D01*
X226934342Y-195371485D01*
X226934342Y-195442914D01*
X226862914Y-195585771D01*
X226791485Y-195657200D01*
X226648628Y-195728628D01*
X226362914Y-195728628D01*
X226220057Y-195800057D01*
X226148628Y-195871485D01*
X226077199Y-196014342D01*
X226077199Y-196300057D01*
X226148628Y-196442914D01*
X226220057Y-196514342D01*
X226362914Y-196585771D01*
X226648628Y-196585771D01*
X226791485Y-196514342D01*
X226862914Y-196442914D01*
X226934342Y-196300057D01*
X226934342Y-196014342D01*
X226862914Y-195871485D01*
X226791485Y-195800057D01*
X226648628Y-195728628D01*
X228220057Y-195585771D02*
X228220057Y-196585771D01*
X227577199Y-195585771D02*
X227577199Y-196371485D01*
X227648628Y-196514342D01*
X227791485Y-196585771D01*
X228005771Y-196585771D01*
X228148628Y-196514342D01*
X228220057Y-196442914D01*
X228934342Y-196585771D02*
X228934342Y-195085771D01*
X228934342Y-195657200D02*
X229077199Y-195585771D01*
X229362914Y-195585771D01*
X229505771Y-195657200D01*
X229577199Y-195728628D01*
X229648628Y-195871485D01*
X229648628Y-196300057D01*
X229577199Y-196442914D01*
X229505771Y-196514342D01*
X229362914Y-196585771D01*
X229077199Y-196585771D01*
X228934342Y-196514342D01*
X230934342Y-195585771D02*
X230934342Y-196585771D01*
X230291485Y-195585771D02*
X230291485Y-196371485D01*
X230362914Y-196514342D01*
X230505771Y-196585771D01*
X230720057Y-196585771D01*
X230862914Y-196514342D01*
X230934342Y-196442914D01*
X231648628Y-195585771D02*
X231648628Y-196585771D01*
X231648628Y-195728628D02*
X231720057Y-195657200D01*
X231862914Y-195585771D01*
X232077199Y-195585771D01*
X232220057Y-195657200D01*
X232291485Y-195800057D01*
X232291485Y-196585771D01*
X232791485Y-195585771D02*
X233362914Y-195585771D01*
X233005771Y-195085771D02*
X233005771Y-196371485D01*
X233077199Y-196514342D01*
X233220057Y-196585771D01*
X233362914Y-196585771D01*
X234505771Y-195585771D02*
X234505771Y-196585771D01*
X233862914Y-195585771D02*
X233862914Y-196371485D01*
X233934342Y-196514342D01*
X234077200Y-196585771D01*
X234291485Y-196585771D01*
X234434342Y-196514342D01*
X234505771Y-196442914D01*
X236005771Y-196585771D02*
X235148628Y-196585771D01*
X235577200Y-196585771D02*
X235577200Y-195085771D01*
X235434342Y-195300057D01*
X235291485Y-195442914D01*
X235148628Y-195514342D01*
X236862914Y-195728628D02*
X236720057Y-195657200D01*
X236648628Y-195585771D01*
X236577199Y-195442914D01*
X236577199Y-195371485D01*
X236648628Y-195228628D01*
X236720057Y-195157200D01*
X236862914Y-195085771D01*
X237148628Y-195085771D01*
X237291485Y-195157200D01*
X237362914Y-195228628D01*
X237434342Y-195371485D01*
X237434342Y-195442914D01*
X237362914Y-195585771D01*
X237291485Y-195657200D01*
X237148628Y-195728628D01*
X236862914Y-195728628D01*
X236720057Y-195800057D01*
X236648628Y-195871485D01*
X236577199Y-196014342D01*
X236577199Y-196300057D01*
X236648628Y-196442914D01*
X236720057Y-196514342D01*
X236862914Y-196585771D01*
X237148628Y-196585771D01*
X237291485Y-196514342D01*
X237362914Y-196442914D01*
X237434342Y-196300057D01*
X237434342Y-196014342D01*
X237362914Y-195871485D01*
X237291485Y-195800057D01*
X237148628Y-195728628D01*
X238077199Y-196442914D02*
X238148628Y-196514342D01*
X238077199Y-196585771D01*
X238005771Y-196514342D01*
X238077199Y-196442914D01*
X238077199Y-196585771D01*
X239077199Y-195085771D02*
X239220057Y-195085771D01*
X239362914Y-195157200D01*
X239434342Y-195228628D01*
X239505771Y-195371485D01*
X239577199Y-195657200D01*
X239577199Y-196014342D01*
X239505771Y-196300057D01*
X239434342Y-196442914D01*
X239362914Y-196514342D01*
X239220057Y-196585771D01*
X239077199Y-196585771D01*
X238934342Y-196514342D01*
X238862914Y-196442914D01*
X238791485Y-196300057D01*
X238720057Y-196014342D01*
X238720057Y-195657200D01*
X238791485Y-195371485D01*
X238862914Y-195228628D01*
X238934342Y-195157200D01*
X239077199Y-195085771D01*
X240862914Y-195585771D02*
X240862914Y-196585771D01*
X240505771Y-195014342D02*
X240148628Y-196085771D01*
X241077199Y-196085771D01*
X241648628Y-196442914D02*
X241720057Y-196514342D01*
X241648628Y-196585771D01*
X241577199Y-196514342D01*
X241648628Y-196442914D01*
X241648628Y-196585771D01*
X243148628Y-196585771D02*
X242291485Y-196585771D01*
X242720057Y-196585771D02*
X242720057Y-195085771D01*
X242577199Y-195300057D01*
X242434342Y-195442914D01*
X242291485Y-195514342D01*
D10*
D11*
X177002200Y-191507200D02*
X285002200Y-191507200D01*
D10*
D12*
X264411485Y-193785771D02*
X263911485Y-193071485D01*
X263554342Y-193785771D02*
X263554342Y-192285771D01*
X264125771Y-192285771D01*
X264268628Y-192357200D01*
X264340057Y-192428628D01*
X264411485Y-192571485D01*
X264411485Y-192785771D01*
X264340057Y-192928628D01*
X264268628Y-193000057D01*
X264125771Y-193071485D01*
X263554342Y-193071485D01*
X265625771Y-193714342D02*
X265482914Y-193785771D01*
X265197200Y-193785771D01*
X265054342Y-193714342D01*
X264982914Y-193571485D01*
X264982914Y-193000057D01*
X265054342Y-192857200D01*
X265197200Y-192785771D01*
X265482914Y-192785771D01*
X265625771Y-192857200D01*
X265697200Y-193000057D01*
X265697200Y-193142914D01*
X264982914Y-193285771D01*
X266197200Y-192785771D02*
X266554342Y-193785771D01*
X266911485Y-192785771D01*
X267482914Y-193642914D02*
X267554342Y-193714342D01*
X267482914Y-193785771D01*
X267411485Y-193714342D01*
X267482914Y-193642914D01*
X267482914Y-193785771D01*
X267482914Y-192857200D02*
X267554342Y-192928628D01*
X267482914Y-193000057D01*
X267411485Y-192928628D01*
X267482914Y-192857200D01*
X267482914Y-193000057D01*
D10*
D11*
X178362914Y-193714342D02*
X178577200Y-193785771D01*
X178934342Y-193785771D01*
X179077200Y-193714342D01*
X179148628Y-193642914D01*
X179220057Y-193500057D01*
X179220057Y-193357200D01*
X179148628Y-193214342D01*
X179077200Y-193142914D01*
X178934342Y-193071485D01*
X178648628Y-193000057D01*
X178505771Y-192928628D01*
X178434342Y-192857200D01*
X178362914Y-192714342D01*
X178362914Y-192571485D01*
X178434342Y-192428628D01*
X178505771Y-192357200D01*
X178648628Y-192285771D01*
X179005771Y-192285771D01*
X179220057Y-192357200D01*
X179862914Y-193785771D02*
X179862914Y-192785771D01*
X179862914Y-192285771D02*
X179791485Y-192357200D01*
X179862914Y-192428628D01*
X179934342Y-192357200D01*
X179862914Y-192285771D01*
X179862914Y-192428628D01*
X180434342Y-192785771D02*
X181220057Y-192785771D01*
X180434342Y-193785771D01*
X181220057Y-193785771D01*
X182362914Y-193714342D02*
X182220057Y-193785771D01*
X181934342Y-193785771D01*
X181791485Y-193714342D01*
X181720057Y-193571485D01*
X181720057Y-193000057D01*
X181791485Y-192857200D01*
X181934342Y-192785771D01*
X182220057Y-192785771D01*
X182362914Y-192857200D01*
X182434342Y-193000057D01*
X182434342Y-193142914D01*
X181720057Y-193285771D01*
X183077200Y-193642914D02*
X183148628Y-193714342D01*
X183077200Y-193785771D01*
X183005771Y-193714342D01*
X183077200Y-193642914D01*
X183077200Y-193785771D01*
X183077200Y-192857200D02*
X183148628Y-192928628D01*
X183077200Y-193000057D01*
X183005771Y-192928628D01*
X183077200Y-192857200D01*
X183077200Y-193000057D01*
X184862914Y-193357200D02*
X185577200Y-193357200D01*
X184720057Y-193785771D02*
X185220057Y-192285771D01*
X185720057Y-193785771D01*
X186862914Y-192785771D02*
X186862914Y-193785771D01*
X186505771Y-192214342D02*
X186148628Y-193285771D01*
X187077200Y-193285771D01*
D10*
D11*
X263434342Y-196585771D02*
X263434342Y-195085771D01*
X264791485Y-196585771D02*
X264791485Y-195085771D01*
X264791485Y-196514342D02*
X264648628Y-196585771D01*
X264362914Y-196585771D01*
X264220057Y-196514342D01*
X264148628Y-196442914D01*
X264077200Y-196300057D01*
X264077200Y-195871485D01*
X264148628Y-195728628D01*
X264220057Y-195657200D01*
X264362914Y-195585771D01*
X264648628Y-195585771D01*
X264791485Y-195657200D01*
X265505771Y-196442914D02*
X265577200Y-196514342D01*
X265505771Y-196585771D01*
X265434342Y-196514342D01*
X265505771Y-196442914D01*
X265505771Y-196585771D01*
X265505771Y-195657200D02*
X265577200Y-195728628D01*
X265505771Y-195800057D01*
X265434342Y-195728628D01*
X265505771Y-195657200D01*
X265505771Y-195800057D01*
X268148628Y-196585771D02*
X267291485Y-196585771D01*
X267720057Y-196585771D02*
X267720057Y-195085771D01*
X267577200Y-195300057D01*
X267434342Y-195442914D01*
X267291485Y-195514342D01*
X269862914Y-195014342D02*
X268577200Y-196942914D01*
X271148628Y-196585771D02*
X270291485Y-196585771D01*
X270720057Y-196585771D02*
X270720057Y-195085771D01*
X270577200Y-195300057D01*
X270434342Y-195442914D01*
X270291485Y-195514342D01*
D10*
D11*
X177002200Y-187507200D02*
X285002200Y-187507200D01*
D10*
D13*
X178714580Y-188211961D02*
X179857438Y-188211961D01*
X179036009Y-190211961D02*
X179286009Y-188211961D01*
X180274104Y-190211961D02*
X180440771Y-188878628D01*
X180524104Y-188211961D02*
X180416961Y-188307200D01*
X180500295Y-188402438D01*
X180607438Y-188307200D01*
X180524104Y-188211961D01*
X180500295Y-188402438D01*
X181107438Y-188878628D02*
X181869342Y-188878628D01*
X181476485Y-188211961D02*
X181262200Y-189926247D01*
X181333628Y-190116723D01*
X181512200Y-190211961D01*
X181702676Y-190211961D01*
X182655057Y-190211961D02*
X182476485Y-190116723D01*
X182405057Y-189926247D01*
X182619342Y-188211961D01*
X184190771Y-190116723D02*
X183988390Y-190211961D01*
X183607438Y-190211961D01*
X183428866Y-190116723D01*
X183357438Y-189926247D01*
X183452676Y-189164342D01*
X183571723Y-188973866D01*
X183774104Y-188878628D01*
X184155057Y-188878628D01*
X184333628Y-188973866D01*
X184405057Y-189164342D01*
X184381247Y-189354819D01*
X183405057Y-189545295D01*
X185155057Y-190021485D02*
X185238390Y-190116723D01*
X185131247Y-190211961D01*
X185047914Y-190116723D01*
X185155057Y-190021485D01*
X185131247Y-190211961D01*
X185286009Y-188973866D02*
X185369342Y-189069104D01*
X185262200Y-189164342D01*
X185178866Y-189069104D01*
X185286009Y-188973866D01*
X185262200Y-189164342D01*
D10*
D11*
X178934342Y-185600057D02*
X178434342Y-185600057D01*
X178434342Y-186385771D02*
X178434342Y-184885771D01*
X179148628Y-184885771D01*
X179720057Y-186385771D02*
X179720057Y-185385771D01*
X179720057Y-184885771D02*
X179648628Y-184957200D01*
X179720057Y-185028628D01*
X179791485Y-184957200D01*
X179720057Y-184885771D01*
X179720057Y-185028628D01*
X180648628Y-186385771D02*
X180505771Y-186314342D01*
X180434342Y-186171485D01*
X180434342Y-184885771D01*
X181791485Y-186314342D02*
X181648628Y-186385771D01*
X181362914Y-186385771D01*
X181220057Y-186314342D01*
X181148628Y-186171485D01*
X181148628Y-185600057D01*
X181220057Y-185457200D01*
X181362914Y-185385771D01*
X181648628Y-185385771D01*
X181791485Y-185457200D01*
X181862914Y-185600057D01*
X181862914Y-185742914D01*
X181148628Y-185885771D01*
X182505771Y-186242914D02*
X182577200Y-186314342D01*
X182505771Y-186385771D01*
X182434342Y-186314342D01*
X182505771Y-186242914D01*
X182505771Y-186385771D01*
X182505771Y-185457200D02*
X182577200Y-185528628D01*
X182505771Y-185600057D01*
X182434342Y-185528628D01*
X182505771Y-185457200D01*
X182505771Y-185600057D01*
X184362914Y-186385771D02*
X184362914Y-184885771D01*
X184362914Y-185600057D02*
X185220057Y-185600057D01*
X185220057Y-186385771D02*
X185220057Y-184885771D01*
X185934342Y-186385771D02*
X185934342Y-184885771D01*
X186291485Y-184885771D01*
X186505771Y-184957200D01*
X186648628Y-185100057D01*
X186720057Y-185242914D01*
X186791485Y-185528628D01*
X186791485Y-185742914D01*
X186720057Y-186028628D01*
X186648628Y-186171485D01*
X186505771Y-186314342D01*
X186291485Y-186385771D01*
X185934342Y-186385771D01*
X187434342Y-186385771D02*
X187434342Y-184885771D01*
X187934342Y-185957200D01*
X188434342Y-184885771D01*
X188434342Y-186385771D01*
X189148628Y-186385771D02*
X189148628Y-184885771D01*
X189862914Y-185814342D02*
X191005771Y-185814342D01*
X191720057Y-184885771D02*
X191720057Y-186100057D01*
X191791485Y-186242914D01*
X191862914Y-186314342D01*
X192005771Y-186385771D01*
X192291485Y-186385771D01*
X192434342Y-186314342D01*
X192505771Y-186242914D01*
X192577200Y-186100057D01*
X192577200Y-184885771D01*
X193220057Y-186314342D02*
X193434342Y-186385771D01*
X193791485Y-186385771D01*
X193934342Y-186314342D01*
X194005771Y-186242914D01*
X194077200Y-186100057D01*
X194077200Y-185957200D01*
X194005771Y-185814342D01*
X193934342Y-185742914D01*
X193791485Y-185671485D01*
X193505771Y-185600057D01*
X193362914Y-185528628D01*
X193291485Y-185457200D01*
X193220057Y-185314342D01*
X193220057Y-185171485D01*
X193291485Y-185028628D01*
X193362914Y-184957200D01*
X193505771Y-184885771D01*
X193862914Y-184885771D01*
X194077200Y-184957200D01*
X195434342Y-186385771D02*
X194720057Y-186385771D01*
X194720057Y-184885771D01*
X196220057Y-184885771D02*
X196362914Y-184885771D01*
X196505771Y-184957200D01*
X196577200Y-185028628D01*
X196648628Y-185171485D01*
X196720057Y-185457200D01*
X196720057Y-185814342D01*
X196648628Y-186100057D01*
X196577200Y-186242914D01*
X196505771Y-186314342D01*
X196362914Y-186385771D01*
X196220057Y-186385771D01*
X196077200Y-186314342D01*
X196005771Y-186242914D01*
X195934342Y-186100057D01*
X195862914Y-185814342D01*
X195862914Y-185457200D01*
X195934342Y-185171485D01*
X196005771Y-185028628D01*
X196077200Y-184957200D01*
X196220057Y-184885771D01*
X197648628Y-184885771D02*
X197791485Y-184885771D01*
X197934342Y-184957200D01*
X198005771Y-185028628D01*
X198077200Y-185171485D01*
X198148628Y-185457200D01*
X198148628Y-185814342D01*
X198077200Y-186100057D01*
X198005771Y-186242914D01*
X197934342Y-186314342D01*
X197791485Y-186385771D01*
X197648628Y-186385771D01*
X197505771Y-186314342D01*
X197434342Y-186242914D01*
X197362914Y-186100057D01*
X197291485Y-185814342D01*
X197291485Y-185457200D01*
X197362914Y-185171485D01*
X197434342Y-185028628D01*
X197505771Y-184957200D01*
X197648628Y-184885771D01*
X198434342Y-186528628D02*
X199577200Y-186528628D01*
X199791485Y-184885771D02*
X200720057Y-184885771D01*
X200220057Y-185457200D01*
X200434342Y-185457200D01*
X200577200Y-185528628D01*
X200648628Y-185600057D01*
X200720057Y-185742914D01*
X200720057Y-186100057D01*
X200648628Y-186242914D01*
X200577200Y-186314342D01*
X200434342Y-186385771D01*
X200005771Y-186385771D01*
X199862914Y-186314342D01*
X199791485Y-186242914D01*
X201648628Y-184885771D02*
X201791485Y-184885771D01*
X201934342Y-184957200D01*
X202005771Y-185028628D01*
X202077200Y-185171485D01*
X202148628Y-185457200D01*
X202148628Y-185814342D01*
X202077200Y-186100057D01*
X202005771Y-186242914D01*
X201934342Y-186314342D01*
X201791485Y-186385771D01*
X201648628Y-186385771D01*
X201505771Y-186314342D01*
X201434342Y-186242914D01*
X201362914Y-186100057D01*
X201291485Y-185814342D01*
X201291485Y-185457200D01*
X201362914Y-185171485D01*
X201434342Y-185028628D01*
X201505771Y-184957200D01*
X201648628Y-184885771D01*
X203505771Y-186385771D02*
X202791485Y-186385771D01*
X202791485Y-184885771D01*
X204005771Y-185814342D02*
X205148628Y-185814342D01*
X205791485Y-185957200D02*
X206505771Y-185957200D01*
X205648628Y-186385771D02*
X206148628Y-184885771D01*
X206648628Y-186385771D01*
X207148628Y-186385771D02*
X207148628Y-184885771D01*
X207505771Y-184885771D01*
X207720057Y-184957200D01*
X207862914Y-185100057D01*
X207934342Y-185242914D01*
X208005771Y-185528628D01*
X208005771Y-185742914D01*
X207934342Y-186028628D01*
X207862914Y-186171485D01*
X207720057Y-186314342D01*
X207505771Y-186385771D01*
X207148628Y-186385771D01*
X208577200Y-185957200D02*
X209291485Y-185957200D01*
X208434342Y-186385771D02*
X208934342Y-184885771D01*
X209434342Y-186385771D01*
X209934342Y-186385771D02*
X209934342Y-184885771D01*
X210505771Y-184885771D01*
X210648628Y-184957200D01*
X210720057Y-185028628D01*
X210791485Y-185171485D01*
X210791485Y-185385771D01*
X210720057Y-185528628D01*
X210648628Y-185600057D01*
X210505771Y-185671485D01*
X209934342Y-185671485D01*
X211220057Y-184885771D02*
X212077200Y-184885771D01*
X211648628Y-186385771D02*
X211648628Y-184885771D01*
X212577200Y-185600057D02*
X213077200Y-185600057D01*
X213291485Y-186385771D02*
X212577200Y-186385771D01*
X212577200Y-184885771D01*
X213291485Y-184885771D01*
X214791485Y-186385771D02*
X214291485Y-185671485D01*
X213934342Y-186385771D02*
X213934342Y-184885771D01*
X214505771Y-184885771D01*
X214648628Y-184957200D01*
X214720057Y-185028628D01*
X214791485Y-185171485D01*
X214791485Y-185385771D01*
X214720057Y-185528628D01*
X214648628Y-185600057D01*
X214505771Y-185671485D01*
X213934342Y-185671485D01*
X215434342Y-186242914D02*
X215505771Y-186314342D01*
X215434342Y-186385771D01*
X215362914Y-186314342D01*
X215434342Y-186242914D01*
X215434342Y-186385771D01*
X216148628Y-186385771D02*
X216148628Y-184885771D01*
X216291485Y-185814342D02*
X216720057Y-186385771D01*
X216720057Y-185385771D02*
X216148628Y-185957200D01*
X217362914Y-186385771D02*
X217362914Y-185385771D01*
X217362914Y-184885771D02*
X217291485Y-184957200D01*
X217362914Y-185028628D01*
X217434342Y-184957200D01*
X217362914Y-184885771D01*
X217362914Y-185028628D01*
X218720057Y-186314342D02*
X218577200Y-186385771D01*
X218291485Y-186385771D01*
X218148628Y-186314342D01*
X218077200Y-186242914D01*
X218005771Y-186100057D01*
X218005771Y-185671485D01*
X218077200Y-185528628D01*
X218148628Y-185457200D01*
X218291485Y-185385771D01*
X218577200Y-185385771D01*
X218720057Y-185457200D01*
X220005771Y-186385771D02*
X220005771Y-185600057D01*
X219934342Y-185457200D01*
X219791485Y-185385771D01*
X219505771Y-185385771D01*
X219362914Y-185457200D01*
X220005771Y-186314342D02*
X219862914Y-186385771D01*
X219505771Y-186385771D01*
X219362914Y-186314342D01*
X219291485Y-186171485D01*
X219291485Y-186028628D01*
X219362914Y-185885771D01*
X219505771Y-185814342D01*
X219862914Y-185814342D01*
X220005771Y-185742914D01*
X221362914Y-186385771D02*
X221362914Y-184885771D01*
X221362914Y-186314342D02*
X221220057Y-186385771D01*
X220934342Y-186385771D01*
X220791485Y-186314342D01*
X220720057Y-186242914D01*
X220648628Y-186100057D01*
X220648628Y-185671485D01*
X220720057Y-185528628D01*
X220791485Y-185457200D01*
X220934342Y-185385771D01*
X221220057Y-185385771D01*
X221362914Y-185457200D01*
X221720057Y-186528628D02*
X222862914Y-186528628D01*
X223220057Y-185385771D02*
X223220057Y-186885771D01*
X223220057Y-185457200D02*
X223362914Y-185385771D01*
X223648628Y-185385771D01*
X223791485Y-185457200D01*
X223862914Y-185528628D01*
X223934342Y-185671485D01*
X223934342Y-186100057D01*
X223862914Y-186242914D01*
X223791485Y-186314342D01*
X223648628Y-186385771D01*
X223362914Y-186385771D01*
X223220057Y-186314342D01*
X225220057Y-186314342D02*
X225077200Y-186385771D01*
X224791485Y-186385771D01*
X224648628Y-186314342D01*
X224577200Y-186242914D01*
X224505771Y-186100057D01*
X224505771Y-185671485D01*
X224577200Y-185528628D01*
X224648628Y-185457200D01*
X224791485Y-185385771D01*
X225077200Y-185385771D01*
X225220057Y-185457200D01*
X225862914Y-186385771D02*
X225862914Y-184885771D01*
X225862914Y-185457200D02*
X226005771Y-185385771D01*
X226291485Y-185385771D01*
X226434342Y-185457200D01*
X226505771Y-185528628D01*
X226577200Y-185671485D01*
X226577200Y-186100057D01*
X226505771Y-186242914D01*
X226434342Y-186314342D01*
X226291485Y-186385771D01*
X226005771Y-186385771D01*
X225862914Y-186314342D01*
D10*
D11*
X177002200Y-181507200D02*
X285002200Y-181507200D01*
D10*
D11*
X178362914Y-183614342D02*
X178577200Y-183685771D01*
X178934342Y-183685771D01*
X179077200Y-183614342D01*
X179148628Y-183542914D01*
X179220057Y-183400057D01*
X179220057Y-183257200D01*
X179148628Y-183114342D01*
X179077200Y-183042914D01*
X178934342Y-182971485D01*
X178648628Y-182900057D01*
X178505771Y-182828628D01*
X178434342Y-182757200D01*
X178362914Y-182614342D01*
X178362914Y-182471485D01*
X178434342Y-182328628D01*
X178505771Y-182257200D01*
X178648628Y-182185771D01*
X179005771Y-182185771D01*
X179220057Y-182257200D01*
X179862914Y-183685771D02*
X179862914Y-182185771D01*
X180505771Y-183685771D02*
X180505771Y-182900057D01*
X180434342Y-182757200D01*
X180291485Y-182685771D01*
X180077200Y-182685771D01*
X179934342Y-182757200D01*
X179862914Y-182828628D01*
X181791485Y-183614342D02*
X181648628Y-183685771D01*
X181362914Y-183685771D01*
X181220057Y-183614342D01*
X181148628Y-183471485D01*
X181148628Y-182900057D01*
X181220057Y-182757200D01*
X181362914Y-182685771D01*
X181648628Y-182685771D01*
X181791485Y-182757200D01*
X181862914Y-182900057D01*
X181862914Y-183042914D01*
X181148628Y-183185771D01*
X183077200Y-183614342D02*
X182934342Y-183685771D01*
X182648628Y-183685771D01*
X182505771Y-183614342D01*
X182434342Y-183471485D01*
X182434342Y-182900057D01*
X182505771Y-182757200D01*
X182648628Y-182685771D01*
X182934342Y-182685771D01*
X183077200Y-182757200D01*
X183148628Y-182900057D01*
X183148628Y-183042914D01*
X182434342Y-183185771D01*
X183577200Y-182685771D02*
X184148628Y-182685771D01*
X183791485Y-182185771D02*
X183791485Y-183471485D01*
X183862914Y-183614342D01*
X184005771Y-183685771D01*
X184148628Y-183685771D01*
X184648628Y-183542914D02*
X184720057Y-183614342D01*
X184648628Y-183685771D01*
X184577200Y-183614342D01*
X184648628Y-183542914D01*
X184648628Y-183685771D01*
X184648628Y-182757200D02*
X184720057Y-182828628D01*
X184648628Y-182900057D01*
X184577200Y-182828628D01*
X184648628Y-182757200D01*
X184648628Y-182900057D01*
D10*
D11*
X197002200Y-191507200D02*
X197002200Y-194507200D01*
D10*
D11*
X261002200Y-191507200D02*
X261002200Y-198007200D01*
D14*
%TO.P,TP2,1*%
%TO.N,GND*%
X135826500Y-88734900D03*
%TD*%
%TO.P,TP1,1*%
%TO.N,/+12V*%
X138099800Y-88633300D03*
%TD*%
D15*
%TO.P,J3,G9*%
%TO.N,GND*%
X142434600Y-74133500D03*
%TO.P,J3,G8*%
X142434600Y-90933500D03*
D16*
%TO.P,J3,G7*%
X143064600Y-77733500D03*
%TO.P,J3,G6*%
X143064600Y-79333500D03*
%TO.P,J3,G5*%
X143064600Y-80933500D03*
%TO.P,J3,G4*%
X143064600Y-82533500D03*
%TO.P,J3,G3*%
X143064600Y-84133500D03*
%TO.P,J3,G2*%
X143064600Y-85733500D03*
%TO.P,J3,G1*%
X143064600Y-87333500D03*
D17*
%TO.P,J3,30*%
X140034600Y-76733500D03*
%TO.P,J3,29*%
%TO.N,/CKN*%
X140034600Y-77133500D03*
%TO.P,J3,28*%
%TO.N,/CKP*%
X140034600Y-77533500D03*
%TO.P,J3,27*%
%TO.N,GND*%
X140034600Y-77933500D03*
%TO.P,J3,26*%
%TO.N,/D0N*%
X140034600Y-78333500D03*
%TO.P,J3,25*%
%TO.N,/D0P*%
X140034600Y-78733500D03*
%TO.P,J3,24*%
%TO.N,GND*%
X140034600Y-79133500D03*
%TO.P,J3,23*%
%TO.N,/D1N*%
X140034600Y-79533500D03*
%TO.P,J3,22*%
%TO.N,/D1P*%
X140034600Y-79933500D03*
%TO.P,J3,21*%
%TO.N,GND*%
X140034600Y-80333500D03*
%TO.P,J3,20*%
%TO.N,/D2N*%
X140034600Y-80733500D03*
%TO.P,J3,19*%
%TO.N,/D2P*%
X140034600Y-81133500D03*
%TO.P,J3,18*%
%TO.N,GND*%
X140034600Y-81533500D03*
%TO.P,J3,17*%
%TO.N,Net-(J3-Pad17)*%
X140034600Y-81933500D03*
%TO.P,J3,16*%
%TO.N,/HDMI1_SCL*%
X140034600Y-82333500D03*
%TO.P,J3,15*%
%TO.N,/HDMI1_SDA*%
X140034600Y-82733500D03*
%TO.P,J3,14*%
%TO.N,/HDMI1_HPD*%
X140034600Y-83133500D03*
%TO.P,J3,13*%
%TO.N,+5V*%
X140034600Y-83533500D03*
%TO.P,J3,12*%
%TO.N,VBUS*%
X140034600Y-83933500D03*
%TO.P,J3,11*%
%TO.N,GND*%
X140034600Y-84333500D03*
%TO.P,J3,10*%
%TO.N,/USB_D-*%
X140034600Y-84733500D03*
%TO.P,J3,9*%
%TO.N,/USB_D+*%
X140034600Y-85133500D03*
%TO.P,J3,8*%
%TO.N,GND*%
X140034600Y-85533500D03*
%TO.P,J3,7*%
%TO.N,/UART_RX*%
X140034600Y-85933500D03*
%TO.P,J3,6*%
%TO.N,/UART_TX*%
X140034600Y-86333500D03*
%TO.P,J3,5*%
%TO.N,/RESET*%
X140034600Y-86733500D03*
%TO.P,J3,4*%
%TO.N,/+12V*%
X140034600Y-87133500D03*
%TO.P,J3,3*%
X140034600Y-87533500D03*
%TO.P,J3,2*%
X140034600Y-87933500D03*
%TO.P,J3,1*%
X140034600Y-88333500D03*
%TD*%
D18*
%TO.P,J4,SH2*%
%TO.N,GND*%
X127134300Y-91609500D03*
%TO.P,J4,SH1*%
X135984300Y-91609500D03*
D19*
%TO.P,J4,4*%
X129684300Y-88709500D03*
%TO.P,J4,3*%
%TO.N,/UART_RX*%
X130934300Y-88709500D03*
%TO.P,J4,1*%
%TO.N,/RESET*%
X133434300Y-88709500D03*
%TO.P,J4,2*%
%TO.N,/UART_TX*%
X132184300Y-88709500D03*
%TD*%
D20*
%TO.P,J1,S4*%
%TO.N,GND*%
X117870700Y-89788700D03*
D21*
%TO.P,J1,S3*%
X123830700Y-89788700D03*
D20*
%TO.P,J1,S2*%
X117870700Y-75288700D03*
D21*
%TO.P,J1,S1*%
X123830700Y-75288700D03*
%TD*%
D22*
%TO.N,GND*%
X126288800Y-86525100D03*
X126288800Y-85039200D03*
X126326900Y-82054700D03*
X132588000Y-86309200D03*
X128028700Y-85750400D03*
X128028700Y-84328000D03*
X132600700Y-82537300D03*
X128028700Y-82753200D03*
X138531600Y-84632800D03*
X128041400Y-79387700D03*
X138569700Y-80327500D03*
X138544300Y-82296000D03*
X141643100Y-84328000D03*
X141655800Y-85763100D03*
X138544300Y-79133700D03*
X138544300Y-77927200D03*
X122199400Y-79044800D03*
X122212100Y-82029300D03*
X122262900Y-83527900D03*
X122288300Y-85039200D03*
X122262900Y-86550500D03*
X138569700Y-76733400D03*
X128016000Y-81191100D03*
X132600700Y-80391000D03*
X126314200Y-83540600D03*
X141668500Y-87337900D03*
X132600700Y-78803500D03*
X134581900Y-76733400D03*
%TO.N,/RESET*%
X133451600Y-88709500D03*
%TO.N,/UART_TX*%
X132181600Y-88747600D03*
%TO.N,/UART_RX*%
X130924300Y-88773000D03*
%TO.N,+5V*%
X127088900Y-78536800D03*
X137909300Y-83527900D03*
%TO.N,/HDMI1_HPD*%
X141998700Y-83400900D03*
%TO.N,/HDMI1_SDA*%
X141576400Y-82737300D03*
%TO.N,/HDMI1_SCL*%
X141195450Y-82089650D03*
%TO.N,/D2P*%
X141020800Y-81330800D03*
%TO.N,/D2N*%
X141020800Y-80746600D03*
%TO.N,/D1P*%
X141033500Y-80124300D03*
%TO.N,/D1N*%
X141046200Y-79540100D03*
%TO.N,/D0P*%
X141058900Y-78740000D03*
%TO.N,/D0N*%
X141058900Y-78117700D03*
%TO.N,/CKP*%
X141071600Y-77533500D03*
%TO.N,/CKN*%
X141084300Y-76911200D03*
%TD*%
D23*
%TO.N,GND*%
X138569800Y-76733500D02*
X138569700Y-76733400D01*
X140034600Y-76733500D02*
X138569800Y-76733500D01*
X138550600Y-77933500D02*
X138544300Y-77927200D01*
X140034600Y-77933500D02*
X138550600Y-77933500D01*
X138544500Y-79133500D02*
X138544300Y-79133700D01*
X140034600Y-79133500D02*
X138544500Y-79133500D01*
X138575700Y-80333500D02*
X138569700Y-80327500D01*
X140034600Y-80333500D02*
X138575700Y-80333500D01*
X139306800Y-81533500D02*
X138544300Y-82296000D01*
X140034600Y-81533500D02*
X139306800Y-81533500D01*
X138830900Y-84333500D02*
X138531600Y-84632800D01*
X140034600Y-84333500D02*
X138830900Y-84333500D01*
X140034600Y-85533500D02*
X139127500Y-85533500D01*
X138531600Y-84937600D02*
X138531600Y-84632800D01*
X139127500Y-85533500D02*
X138531600Y-84937600D01*
X141426200Y-85533500D02*
X141655800Y-85763100D01*
X140034600Y-85533500D02*
X141426200Y-85533500D01*
X141637600Y-84333500D02*
X141643100Y-84328000D01*
X140034600Y-84333500D02*
X141637600Y-84333500D01*
X142434600Y-74133500D02*
X140140900Y-74133500D01*
X140034600Y-74239800D02*
X140034600Y-76733500D01*
X140140900Y-74133500D02*
X140034600Y-74239800D01*
%TO.N,/RESET*%
X133434300Y-87866700D02*
X133434300Y-88709500D01*
X134567500Y-86733500D02*
X133434300Y-87866700D01*
X140034600Y-86733500D02*
X134567500Y-86733500D01*
%TO.N,/UART_TX*%
X132486400Y-87591900D02*
X132184300Y-87894000D01*
X133045200Y-87591900D02*
X132486400Y-87591900D01*
X132184300Y-87894000D02*
X132184300Y-88709500D01*
X140034600Y-86333500D02*
X134303600Y-86333500D01*
X134303600Y-86333500D02*
X133045200Y-87591900D01*
D24*
%TO.N,/UART_RX*%
X130937000Y-88712200D02*
X130934300Y-88709500D01*
D23*
X130924300Y-87503000D02*
X130924300Y-88773000D01*
X131368800Y-87058500D02*
X130924300Y-87503000D01*
X133032500Y-87058500D02*
X131368800Y-87058500D01*
X140034600Y-85933500D02*
X134157500Y-85933500D01*
X134157500Y-85933500D02*
X133032500Y-87058500D01*
D25*
%TO.N,+5V*%
X137909300Y-83527900D02*
X137909300Y-83527900D01*
X127088900Y-77749400D02*
X127088900Y-78536800D01*
X127457200Y-77381100D02*
X127088900Y-77749400D01*
X133451600Y-77381100D02*
X127457200Y-77381100D01*
X133959600Y-77889100D02*
X133451600Y-77381100D01*
X137909300Y-83527900D02*
X133959600Y-79578200D01*
X133959600Y-79578200D02*
X133959600Y-77889100D01*
D23*
X137914900Y-83533500D02*
X137909300Y-83527900D01*
X140034600Y-83533500D02*
X137914900Y-83533500D01*
%TO.N,/HDMI1_HPD*%
X140034600Y-83133500D02*
X140867700Y-83133500D01*
X141135100Y-83400900D02*
X141998700Y-83400900D01*
X140867700Y-83133500D02*
X141135100Y-83400900D01*
%TO.N,/HDMI1_SDA*%
X141572600Y-82733500D02*
X141576400Y-82737300D01*
X140034600Y-82733500D02*
X141572600Y-82733500D01*
%TO.N,/HDMI1_SCL*%
X140951600Y-82333500D02*
X141195450Y-82089650D01*
X140034600Y-82333500D02*
X140951600Y-82333500D01*
D26*
%TO.N,/D2P*%
X140823500Y-81133500D02*
X141020800Y-81330800D01*
X140034600Y-81133500D02*
X140823500Y-81133500D01*
%TO.N,/D2N*%
X141007700Y-80733500D02*
X141020800Y-80746600D01*
X140034600Y-80733500D02*
X141007700Y-80733500D01*
%TO.N,/D1P*%
X140842700Y-79933500D02*
X141033500Y-80124300D01*
X140034600Y-79933500D02*
X140842700Y-79933500D01*
%TO.N,/D1N*%
X141039600Y-79533500D02*
X141046200Y-79540100D01*
X140034600Y-79533500D02*
X141039600Y-79533500D01*
%TO.N,/D0P*%
X141052400Y-78733500D02*
X141058900Y-78740000D01*
X140034600Y-78733500D02*
X141052400Y-78733500D01*
%TO.N,/D0N*%
X140843100Y-78333500D02*
X141058900Y-78117700D01*
X140034600Y-78333500D02*
X140843100Y-78333500D01*
%TO.N,/CKP*%
X140034600Y-77533500D02*
X141071600Y-77533500D01*
%TO.N,/CKN*%
X140862000Y-77133500D02*
X141084300Y-76911200D01*
X140034600Y-77133500D02*
X140862000Y-77133500D01*
D23*
%TO.N,/+12V*%
X140034600Y-87133500D02*
X140034600Y-87533500D01*
X140034600Y-87533500D02*
X140034600Y-87933500D01*
X140034600Y-87933500D02*
X140034600Y-88333500D01*
X138812200Y-87133500D02*
X138811000Y-87134700D01*
X138811000Y-87922100D02*
X138099800Y-88633300D01*
X138844000Y-87533500D02*
X138811000Y-87566500D01*
X138811000Y-87134700D02*
X138811000Y-87566500D01*
X138811000Y-87566500D02*
X138811000Y-87922100D01*
X138822400Y-87933500D02*
X138811000Y-87922100D01*
X140034600Y-88333500D02*
X139197000Y-88333500D01*
X139155200Y-88291700D02*
X139155200Y-87933500D01*
X139197000Y-88333500D02*
X139155200Y-88291700D01*
X140034600Y-87933500D02*
X139155200Y-87933500D01*
X139155200Y-87933500D02*
X138822400Y-87933500D01*
X139155200Y-87565200D02*
X139186900Y-87533500D01*
X140034600Y-87533500D02*
X139186900Y-87533500D01*
X139155200Y-87933500D02*
X139155200Y-87565200D01*
X139186900Y-87533500D02*
X138844000Y-87533500D01*
X139155200Y-87158800D02*
X139180500Y-87133500D01*
X139155200Y-87565200D02*
X139155200Y-87158800D01*
X140034600Y-87133500D02*
X139180500Y-87133500D01*
X139180500Y-87133500D02*
X138812200Y-87133500D01*
%TD*%
D27*
%TO.N,GND*%
X144094967Y-71805135D02*
X144106934Y-93345400D01*
X137626314Y-93345400D01*
X137660112Y-93233982D01*
X137672372Y-93109500D01*
X137669300Y-91895250D01*
X137510550Y-91736500D01*
X136111300Y-91736500D01*
X136111300Y-91756500D01*
X135857300Y-91756500D01*
X135857300Y-91736500D01*
X134458050Y-91736500D01*
X134299300Y-91895250D01*
X134296228Y-93109500D01*
X134308488Y-93233982D01*
X134342286Y-93345400D01*
X128776314Y-93345400D01*
X128810112Y-93233982D01*
X128822372Y-93109500D01*
X128819300Y-91895250D01*
X128660550Y-91736500D01*
X127261300Y-91736500D01*
X127261300Y-91756500D01*
X127007300Y-91756500D01*
X127007300Y-91736500D01*
X125608050Y-91736500D01*
X125449300Y-91895250D01*
X125446228Y-93109500D01*
X125458488Y-93233982D01*
X125492286Y-93345400D01*
X113753500Y-93345400D01*
X113753500Y-90129885D01*
X115778382Y-90129885D01*
X115792527Y-90201384D01*
X115898558Y-90452568D01*
X116051555Y-90678240D01*
X116245639Y-90869728D01*
X116473351Y-91019672D01*
X116725940Y-91122311D01*
X116993700Y-91173700D01*
X117743700Y-91173700D01*
X117743700Y-89915700D01*
X117997700Y-89915700D01*
X117997700Y-91173700D01*
X118747700Y-91173700D01*
X119015460Y-91122311D01*
X119268049Y-91019672D01*
X119495761Y-90869728D01*
X119689845Y-90678240D01*
X119842842Y-90452568D01*
X119948873Y-90201384D01*
X119959911Y-90145590D01*
X121539224Y-90145590D01*
X121560137Y-90239653D01*
X121675409Y-90508126D01*
X121840843Y-90748952D01*
X122050081Y-90952876D01*
X122295082Y-91112061D01*
X122566431Y-91220390D01*
X122853700Y-91273700D01*
X123703700Y-91273700D01*
X123703700Y-89915700D01*
X121660545Y-89915700D01*
X121539224Y-90145590D01*
X119959911Y-90145590D01*
X119963018Y-90129885D01*
X119840356Y-89915700D01*
X117997700Y-89915700D01*
X117743700Y-89915700D01*
X115901044Y-89915700D01*
X115778382Y-90129885D01*
X113753500Y-90129885D01*
X113753500Y-89447515D01*
X115778382Y-89447515D01*
X115901044Y-89661700D01*
X117743700Y-89661700D01*
X117743700Y-88403700D01*
X117997700Y-88403700D01*
X117997700Y-89661700D01*
X119840356Y-89661700D01*
X119963018Y-89447515D01*
X119959912Y-89431810D01*
X121539224Y-89431810D01*
X121660545Y-89661700D01*
X123703700Y-89661700D01*
X123703700Y-88303700D01*
X123957700Y-88303700D01*
X123957700Y-89661700D01*
X123977700Y-89661700D01*
X123977700Y-89915700D01*
X123957700Y-89915700D01*
X123957700Y-91273700D01*
X124807700Y-91273700D01*
X125094969Y-91220390D01*
X125366318Y-91112061D01*
X125448629Y-91058581D01*
X125449300Y-91323750D01*
X125608050Y-91482500D01*
X127007300Y-91482500D01*
X127007300Y-89633250D01*
X127261300Y-89633250D01*
X127261300Y-91482500D01*
X128660550Y-91482500D01*
X128819300Y-91323750D01*
X128822372Y-90109500D01*
X128810112Y-89985018D01*
X128784914Y-89901952D01*
X128833115Y-89960685D01*
X128929806Y-90040037D01*
X129040120Y-90099002D01*
X129159818Y-90135312D01*
X129284300Y-90147572D01*
X129398550Y-90144500D01*
X129557300Y-89985750D01*
X129557300Y-88836500D01*
X128808050Y-88836500D01*
X128649300Y-88995250D01*
X128646228Y-89509500D01*
X128658488Y-89633982D01*
X128683686Y-89717048D01*
X128635485Y-89658315D01*
X128538794Y-89578963D01*
X128428480Y-89519998D01*
X128308782Y-89483688D01*
X128184300Y-89471428D01*
X127420050Y-89474500D01*
X127261300Y-89633250D01*
X127007300Y-89633250D01*
X126848550Y-89474500D01*
X126101232Y-89471496D01*
X126122176Y-89431810D01*
X126101263Y-89337747D01*
X125985991Y-89069274D01*
X125820557Y-88828448D01*
X125611319Y-88624524D01*
X125366318Y-88465339D01*
X125094969Y-88357010D01*
X124807700Y-88303700D01*
X123957700Y-88303700D01*
X123703700Y-88303700D01*
X122853700Y-88303700D01*
X122566431Y-88357010D01*
X122295082Y-88465339D01*
X122050081Y-88624524D01*
X121840843Y-88828448D01*
X121675409Y-89069274D01*
X121560137Y-89337747D01*
X121539224Y-89431810D01*
X119959912Y-89431810D01*
X119948873Y-89376016D01*
X119842842Y-89124832D01*
X119689845Y-88899160D01*
X119495761Y-88707672D01*
X119268049Y-88557728D01*
X119015460Y-88455089D01*
X118747700Y-88403700D01*
X117997700Y-88403700D01*
X117743700Y-88403700D01*
X116993700Y-88403700D01*
X116725940Y-88455089D01*
X116473351Y-88557728D01*
X116245639Y-88707672D01*
X116051555Y-88899160D01*
X115898558Y-89124832D01*
X115792527Y-89376016D01*
X115778382Y-89447515D01*
X113753500Y-89447515D01*
X113753500Y-87909500D01*
X128646228Y-87909500D01*
X128649300Y-88423750D01*
X128808050Y-88582500D01*
X129557300Y-88582500D01*
X129557300Y-87433250D01*
X129398550Y-87274500D01*
X129284300Y-87271428D01*
X129159818Y-87283688D01*
X129040120Y-87319998D01*
X128929806Y-87378963D01*
X128833115Y-87458315D01*
X128753763Y-87555006D01*
X128694798Y-87665320D01*
X128658488Y-87785018D01*
X128646228Y-87909500D01*
X113753500Y-87909500D01*
X113753500Y-78449635D01*
X126203900Y-78449635D01*
X126203900Y-78623965D01*
X126237910Y-78794945D01*
X126304623Y-78956005D01*
X126401476Y-79100955D01*
X126524745Y-79224224D01*
X126669695Y-79321077D01*
X126830755Y-79387790D01*
X127001735Y-79421800D01*
X127176065Y-79421800D01*
X127347045Y-79387790D01*
X127508105Y-79321077D01*
X127653055Y-79224224D01*
X127776324Y-79100955D01*
X127873177Y-78956005D01*
X127939890Y-78794945D01*
X127973900Y-78623965D01*
X127973900Y-78449635D01*
X127939890Y-78278655D01*
X127893268Y-78166100D01*
X133126443Y-78166100D01*
X133174601Y-78214258D01*
X133174600Y-79539647D01*
X133170803Y-79578200D01*
X133174600Y-79616753D01*
X133174600Y-79616760D01*
X133185959Y-79732086D01*
X133230846Y-79880059D01*
X133303738Y-80016432D01*
X133401836Y-80135964D01*
X133431790Y-80160547D01*
X137059033Y-83787791D01*
X137125023Y-83947105D01*
X137221876Y-84092055D01*
X137345145Y-84215324D01*
X137490095Y-84312177D01*
X137651155Y-84378890D01*
X137822135Y-84412900D01*
X137996465Y-84412900D01*
X138167445Y-84378890D01*
X138328505Y-84312177D01*
X138393872Y-84268500D01*
X138892313Y-84268500D01*
X138895098Y-84277680D01*
X138924935Y-84333500D01*
X138895098Y-84389320D01*
X138870090Y-84471760D01*
X138849600Y-84492250D01*
X138856285Y-84534436D01*
X138846528Y-84633500D01*
X138846528Y-84833500D01*
X138856377Y-84933500D01*
X138846528Y-85033500D01*
X138846528Y-85198500D01*
X134193594Y-85198500D01*
X134157499Y-85194945D01*
X134121404Y-85198500D01*
X134121395Y-85198500D01*
X134013415Y-85209135D01*
X133874867Y-85251163D01*
X133747180Y-85319413D01*
X133635262Y-85411262D01*
X133612246Y-85439307D01*
X132728054Y-86323500D01*
X131404905Y-86323500D01*
X131368800Y-86319944D01*
X131332695Y-86323500D01*
X131224715Y-86334135D01*
X131086167Y-86376163D01*
X130958480Y-86444413D01*
X130846562Y-86536262D01*
X130823541Y-86564313D01*
X130430108Y-86957746D01*
X130402062Y-86980763D01*
X130310213Y-87092681D01*
X130241963Y-87220368D01*
X130223095Y-87282567D01*
X130221578Y-87287570D01*
X130208782Y-87283688D01*
X130084300Y-87271428D01*
X129970050Y-87274500D01*
X129811300Y-87433250D01*
X129811300Y-88582500D01*
X129831300Y-88582500D01*
X129831300Y-88836500D01*
X129811300Y-88836500D01*
X129811300Y-89985750D01*
X129970050Y-90144500D01*
X130084300Y-90147572D01*
X130208782Y-90135312D01*
X130309300Y-90104820D01*
X130409818Y-90135312D01*
X130534300Y-90147572D01*
X131334300Y-90147572D01*
X131458782Y-90135312D01*
X131559300Y-90104820D01*
X131659818Y-90135312D01*
X131784300Y-90147572D01*
X132584300Y-90147572D01*
X132708782Y-90135312D01*
X132809300Y-90104820D01*
X132909818Y-90135312D01*
X133034300Y-90147572D01*
X133834300Y-90147572D01*
X133958782Y-90135312D01*
X134078480Y-90099002D01*
X134188794Y-90040037D01*
X134285485Y-89960685D01*
X134333686Y-89901952D01*
X134308488Y-89985018D01*
X134296228Y-90109500D01*
X134299300Y-91323750D01*
X134458050Y-91482500D01*
X135857300Y-91482500D01*
X135857300Y-91462500D01*
X136111300Y-91462500D01*
X136111300Y-91482500D01*
X137510550Y-91482500D01*
X137659550Y-91333500D01*
X141021528Y-91333500D01*
X141033788Y-91457982D01*
X141070098Y-91577680D01*
X141129063Y-91687994D01*
X141208415Y-91784685D01*
X141305106Y-91864037D01*
X141415420Y-91923002D01*
X141535118Y-91959312D01*
X141659600Y-91971572D01*
X142148850Y-91968500D01*
X142307600Y-91809750D01*
X142307600Y-91060500D01*
X142561600Y-91060500D01*
X142561600Y-91809750D01*
X142720350Y-91968500D01*
X143209600Y-91971572D01*
X143334082Y-91959312D01*
X143453780Y-91923002D01*
X143564094Y-91864037D01*
X143660785Y-91784685D01*
X143740137Y-91687994D01*
X143799102Y-91577680D01*
X143835412Y-91457982D01*
X143847672Y-91333500D01*
X143844600Y-91219250D01*
X143685850Y-91060500D01*
X142561600Y-91060500D01*
X142307600Y-91060500D01*
X141183350Y-91060500D01*
X141024600Y-91219250D01*
X141021528Y-91333500D01*
X137659550Y-91333500D01*
X137669300Y-91323750D01*
X137671299Y-90533500D01*
X141021528Y-90533500D01*
X141024600Y-90647750D01*
X141183350Y-90806500D01*
X142307600Y-90806500D01*
X142307600Y-90057250D01*
X142561600Y-90057250D01*
X142561600Y-90806500D01*
X143685850Y-90806500D01*
X143844600Y-90647750D01*
X143847672Y-90533500D01*
X143835412Y-90409018D01*
X143799102Y-90289320D01*
X143740137Y-90179006D01*
X143660785Y-90082315D01*
X143564094Y-90002963D01*
X143453780Y-89943998D01*
X143334082Y-89907688D01*
X143209600Y-89895428D01*
X142720350Y-89898500D01*
X142561600Y-90057250D01*
X142307600Y-90057250D01*
X142148850Y-89898500D01*
X141659600Y-89895428D01*
X141535118Y-89907688D01*
X141415420Y-89943998D01*
X141305106Y-90002963D01*
X141208415Y-90082315D01*
X141129063Y-90179006D01*
X141070098Y-90289320D01*
X141033788Y-90409018D01*
X141021528Y-90533500D01*
X137671299Y-90533500D01*
X137672372Y-90109500D01*
X137660112Y-89985018D01*
X137648063Y-89945297D01*
X137695811Y-89965075D01*
X137963389Y-90018300D01*
X138236211Y-90018300D01*
X138503789Y-89965075D01*
X138755843Y-89860671D01*
X138982686Y-89709099D01*
X139175599Y-89516186D01*
X139327171Y-89289343D01*
X139418647Y-89068500D01*
X139453408Y-89068500D01*
X139484600Y-89071572D01*
X140029686Y-89071572D01*
X140034600Y-89072056D01*
X140039514Y-89071572D01*
X140584600Y-89071572D01*
X140709082Y-89059312D01*
X140828780Y-89023002D01*
X140939094Y-88964037D01*
X141035785Y-88884685D01*
X141115137Y-88787994D01*
X141174102Y-88677680D01*
X141210412Y-88557982D01*
X141222672Y-88433500D01*
X141222672Y-88233500D01*
X141212823Y-88133500D01*
X141222672Y-88033500D01*
X141222672Y-87833500D01*
X141212823Y-87733500D01*
X141222672Y-87633500D01*
X141222672Y-87615250D01*
X142129600Y-87615250D01*
X142142194Y-87724024D01*
X142181568Y-87842749D01*
X142243348Y-87951512D01*
X142325159Y-88046131D01*
X142423858Y-88122973D01*
X142535651Y-88179082D01*
X142656243Y-88212304D01*
X142778850Y-88218500D01*
X142937600Y-88059750D01*
X142937600Y-87456500D01*
X143191600Y-87456500D01*
X143191600Y-88059750D01*
X143350350Y-88218500D01*
X143472957Y-88212304D01*
X143593549Y-88179082D01*
X143705342Y-88122973D01*
X143804041Y-88046131D01*
X143885852Y-87951512D01*
X143947632Y-87842749D01*
X143987006Y-87724024D01*
X143999600Y-87615250D01*
X143840850Y-87456500D01*
X143191600Y-87456500D01*
X142937600Y-87456500D01*
X142288350Y-87456500D01*
X142129600Y-87615250D01*
X141222672Y-87615250D01*
X141222672Y-87433500D01*
X141212823Y-87333500D01*
X141222672Y-87233500D01*
X141222672Y-87033500D01*
X141212823Y-86933500D01*
X141222672Y-86833500D01*
X141222672Y-86633500D01*
X141212823Y-86533500D01*
X141222672Y-86433500D01*
X141222672Y-86233500D01*
X141212823Y-86133500D01*
X141222672Y-86033500D01*
X141222672Y-86015250D01*
X142129600Y-86015250D01*
X142142194Y-86124024D01*
X142181568Y-86242749D01*
X142243348Y-86351512D01*
X142325159Y-86446131D01*
X142423858Y-86522973D01*
X142444832Y-86533500D01*
X142423858Y-86544027D01*
X142325159Y-86620869D01*
X142243348Y-86715488D01*
X142181568Y-86824251D01*
X142142194Y-86942976D01*
X142129600Y-87051750D01*
X142288350Y-87210500D01*
X142937600Y-87210500D01*
X142937600Y-86607250D01*
X142863850Y-86533500D01*
X142937600Y-86459750D01*
X142937600Y-85856500D01*
X143191600Y-85856500D01*
X143191600Y-86459750D01*
X143265350Y-86533500D01*
X143191600Y-86607250D01*
X143191600Y-87210500D01*
X143840850Y-87210500D01*
X143999600Y-87051750D01*
X143987006Y-86942976D01*
X143947632Y-86824251D01*
X143885852Y-86715488D01*
X143804041Y-86620869D01*
X143705342Y-86544027D01*
X143684368Y-86533500D01*
X143705342Y-86522973D01*
X143804041Y-86446131D01*
X143885852Y-86351512D01*
X143947632Y-86242749D01*
X143987006Y-86124024D01*
X143999600Y-86015250D01*
X143840850Y-85856500D01*
X143191600Y-85856500D01*
X142937600Y-85856500D01*
X142288350Y-85856500D01*
X142129600Y-86015250D01*
X141222672Y-86015250D01*
X141222672Y-85833500D01*
X141212915Y-85734436D01*
X141219600Y-85692250D01*
X141199110Y-85671760D01*
X141174102Y-85589320D01*
X141144265Y-85533500D01*
X141174102Y-85477680D01*
X141199110Y-85395240D01*
X141219600Y-85374750D01*
X141212915Y-85332564D01*
X141222672Y-85233500D01*
X141222672Y-85033500D01*
X141212823Y-84933500D01*
X141222672Y-84833500D01*
X141222672Y-84633500D01*
X141212915Y-84534436D01*
X141219600Y-84492250D01*
X141199110Y-84471760D01*
X141174102Y-84389320D01*
X141144265Y-84333500D01*
X141174102Y-84277680D01*
X141199110Y-84195240D01*
X141219600Y-84174750D01*
X141213444Y-84135900D01*
X141505747Y-84135900D01*
X141579495Y-84185177D01*
X141740555Y-84251890D01*
X141911535Y-84285900D01*
X142085865Y-84285900D01*
X142213550Y-84260502D01*
X142284348Y-84260502D01*
X142129600Y-84415250D01*
X142142194Y-84524024D01*
X142181568Y-84642749D01*
X142243348Y-84751512D01*
X142325159Y-84846131D01*
X142423858Y-84922973D01*
X142444832Y-84933500D01*
X142423858Y-84944027D01*
X142325159Y-85020869D01*
X142243348Y-85115488D01*
X142181568Y-85224251D01*
X142142194Y-85342976D01*
X142129600Y-85451750D01*
X142288350Y-85610500D01*
X142937600Y-85610500D01*
X142937600Y-85007250D01*
X142863850Y-84933500D01*
X142937600Y-84859750D01*
X142937600Y-84256500D01*
X143191600Y-84256500D01*
X143191600Y-84859750D01*
X143265350Y-84933500D01*
X143191600Y-85007250D01*
X143191600Y-85610500D01*
X143840850Y-85610500D01*
X143999600Y-85451750D01*
X143987006Y-85342976D01*
X143947632Y-85224251D01*
X143885852Y-85115488D01*
X143804041Y-85020869D01*
X143705342Y-84944027D01*
X143684368Y-84933500D01*
X143705342Y-84922973D01*
X143804041Y-84846131D01*
X143885852Y-84751512D01*
X143947632Y-84642749D01*
X143987006Y-84524024D01*
X143999600Y-84415250D01*
X143840850Y-84256500D01*
X143191600Y-84256500D01*
X142937600Y-84256500D01*
X142917600Y-84256500D01*
X142917600Y-84010500D01*
X142937600Y-84010500D01*
X142937600Y-83407250D01*
X142883700Y-83353350D01*
X142883700Y-83313735D01*
X142883686Y-83313664D01*
X142937600Y-83259750D01*
X142937600Y-82656500D01*
X143191600Y-82656500D01*
X143191600Y-83259750D01*
X143265350Y-83333500D01*
X143191600Y-83407250D01*
X143191600Y-84010500D01*
X143840850Y-84010500D01*
X143999600Y-83851750D01*
X143987006Y-83742976D01*
X143947632Y-83624251D01*
X143885852Y-83515488D01*
X143804041Y-83420869D01*
X143705342Y-83344027D01*
X143684368Y-83333500D01*
X143705342Y-83322973D01*
X143804041Y-83246131D01*
X143885852Y-83151512D01*
X143947632Y-83042749D01*
X143987006Y-82924024D01*
X143999600Y-82815250D01*
X143840850Y-82656500D01*
X143191600Y-82656500D01*
X142937600Y-82656500D01*
X142917600Y-82656500D01*
X142917600Y-82410500D01*
X142937600Y-82410500D01*
X142937600Y-81807250D01*
X142863850Y-81733500D01*
X142937600Y-81659750D01*
X142937600Y-81056500D01*
X143191600Y-81056500D01*
X143191600Y-81659750D01*
X143265350Y-81733500D01*
X143191600Y-81807250D01*
X143191600Y-82410500D01*
X143840850Y-82410500D01*
X143999600Y-82251750D01*
X143987006Y-82142976D01*
X143947632Y-82024251D01*
X143885852Y-81915488D01*
X143804041Y-81820869D01*
X143705342Y-81744027D01*
X143684368Y-81733500D01*
X143705342Y-81722973D01*
X143804041Y-81646131D01*
X143885852Y-81551512D01*
X143947632Y-81442749D01*
X143987006Y-81324024D01*
X143999600Y-81215250D01*
X143840850Y-81056500D01*
X143191600Y-81056500D01*
X142937600Y-81056500D01*
X142288350Y-81056500D01*
X142129600Y-81215250D01*
X142142194Y-81324024D01*
X142181568Y-81442749D01*
X142243348Y-81551512D01*
X142325159Y-81646131D01*
X142423858Y-81722973D01*
X142444832Y-81733500D01*
X142423858Y-81744027D01*
X142325159Y-81820869D01*
X142243348Y-81915488D01*
X142181568Y-82024251D01*
X142164972Y-82074293D01*
X142140555Y-82049876D01*
X142080450Y-82009715D01*
X142080450Y-82002485D01*
X142046440Y-81831505D01*
X141979727Y-81670445D01*
X141884058Y-81527268D01*
X141905800Y-81417965D01*
X141905800Y-81243635D01*
X141871790Y-81072655D01*
X141857725Y-81038700D01*
X141871790Y-81004745D01*
X141905800Y-80833765D01*
X141905800Y-80659435D01*
X141871790Y-80488455D01*
X141856185Y-80450780D01*
X141884490Y-80382445D01*
X141918500Y-80211465D01*
X141918500Y-80037135D01*
X141884490Y-79866155D01*
X141876775Y-79847530D01*
X141897190Y-79798245D01*
X141931200Y-79627265D01*
X141931200Y-79615250D01*
X142129600Y-79615250D01*
X142142194Y-79724024D01*
X142181568Y-79842749D01*
X142243348Y-79951512D01*
X142325159Y-80046131D01*
X142423858Y-80122973D01*
X142444832Y-80133500D01*
X142423858Y-80144027D01*
X142325159Y-80220869D01*
X142243348Y-80315488D01*
X142181568Y-80424251D01*
X142142194Y-80542976D01*
X142129600Y-80651750D01*
X142288350Y-80810500D01*
X142937600Y-80810500D01*
X142937600Y-80207250D01*
X142863850Y-80133500D01*
X142937600Y-80059750D01*
X142937600Y-79456500D01*
X143191600Y-79456500D01*
X143191600Y-80059750D01*
X143265350Y-80133500D01*
X143191600Y-80207250D01*
X143191600Y-80810500D01*
X143840850Y-80810500D01*
X143999600Y-80651750D01*
X143987006Y-80542976D01*
X143947632Y-80424251D01*
X143885852Y-80315488D01*
X143804041Y-80220869D01*
X143705342Y-80144027D01*
X143684368Y-80133500D01*
X143705342Y-80122973D01*
X143804041Y-80046131D01*
X143885852Y-79951512D01*
X143947632Y-79842749D01*
X143987006Y-79724024D01*
X143999600Y-79615250D01*
X143840850Y-79456500D01*
X143191600Y-79456500D01*
X142937600Y-79456500D01*
X142288350Y-79456500D01*
X142129600Y-79615250D01*
X141931200Y-79615250D01*
X141931200Y-79452935D01*
X141897190Y-79281955D01*
X141844761Y-79155380D01*
X141909890Y-78998145D01*
X141943900Y-78827165D01*
X141943900Y-78652835D01*
X141909890Y-78481855D01*
X141887935Y-78428850D01*
X141909890Y-78375845D01*
X141943900Y-78204865D01*
X141943900Y-78030535D01*
X141940860Y-78015250D01*
X142129600Y-78015250D01*
X142142194Y-78124024D01*
X142181568Y-78242749D01*
X142243348Y-78351512D01*
X142325159Y-78446131D01*
X142423858Y-78522973D01*
X142444832Y-78533500D01*
X142423858Y-78544027D01*
X142325159Y-78620869D01*
X142243348Y-78715488D01*
X142181568Y-78824251D01*
X142142194Y-78942976D01*
X142129600Y-79051750D01*
X142288350Y-79210500D01*
X142937600Y-79210500D01*
X142937600Y-78607250D01*
X142863850Y-78533500D01*
X142937600Y-78459750D01*
X142937600Y-77856500D01*
X143191600Y-77856500D01*
X143191600Y-78459750D01*
X143265350Y-78533500D01*
X143191600Y-78607250D01*
X143191600Y-79210500D01*
X143840850Y-79210500D01*
X143999600Y-79051750D01*
X143987006Y-78942976D01*
X143947632Y-78824251D01*
X143885852Y-78715488D01*
X143804041Y-78620869D01*
X143705342Y-78544027D01*
X143684368Y-78533500D01*
X143705342Y-78522973D01*
X143804041Y-78446131D01*
X143885852Y-78351512D01*
X143947632Y-78242749D01*
X143987006Y-78124024D01*
X143999600Y-78015250D01*
X143840850Y-77856500D01*
X143191600Y-77856500D01*
X142937600Y-77856500D01*
X142288350Y-77856500D01*
X142129600Y-78015250D01*
X141940860Y-78015250D01*
X141909890Y-77859555D01*
X141902175Y-77840930D01*
X141922590Y-77791645D01*
X141956600Y-77620665D01*
X141956600Y-77451750D01*
X142129600Y-77451750D01*
X142288350Y-77610500D01*
X142937600Y-77610500D01*
X142937600Y-77007250D01*
X143191600Y-77007250D01*
X143191600Y-77610500D01*
X143840850Y-77610500D01*
X143999600Y-77451750D01*
X143987006Y-77342976D01*
X143947632Y-77224251D01*
X143885852Y-77115488D01*
X143804041Y-77020869D01*
X143705342Y-76944027D01*
X143593549Y-76887918D01*
X143472957Y-76854696D01*
X143350350Y-76848500D01*
X143191600Y-77007250D01*
X142937600Y-77007250D01*
X142778850Y-76848500D01*
X142656243Y-76854696D01*
X142535651Y-76887918D01*
X142423858Y-76944027D01*
X142325159Y-77020869D01*
X142243348Y-77115488D01*
X142181568Y-77224251D01*
X142142194Y-77342976D01*
X142129600Y-77451750D01*
X141956600Y-77451750D01*
X141956600Y-77446335D01*
X141922590Y-77275355D01*
X141906985Y-77237680D01*
X141935290Y-77169345D01*
X141969300Y-76998365D01*
X141969300Y-76824035D01*
X141935290Y-76653055D01*
X141868577Y-76491995D01*
X141771724Y-76347045D01*
X141648455Y-76223776D01*
X141503505Y-76126923D01*
X141342445Y-76060210D01*
X141171465Y-76026200D01*
X140997135Y-76026200D01*
X140848668Y-76055732D01*
X140808690Y-76036072D01*
X140687831Y-76003834D01*
X140563006Y-75995793D01*
X140320350Y-75998500D01*
X140161600Y-76157250D01*
X140161600Y-76395428D01*
X139907600Y-76395428D01*
X139907600Y-76157250D01*
X139748850Y-75998500D01*
X139506194Y-75995793D01*
X139381369Y-76003834D01*
X139260510Y-76036072D01*
X139148264Y-76091270D01*
X139048943Y-76167304D01*
X138966363Y-76261255D01*
X138903700Y-76369510D01*
X138863360Y-76487911D01*
X138849600Y-76574750D01*
X138953991Y-76679141D01*
X138895098Y-76789320D01*
X138870090Y-76871760D01*
X138849600Y-76892250D01*
X138856285Y-76934436D01*
X138846528Y-77033500D01*
X138846528Y-77233500D01*
X138856377Y-77333500D01*
X138846528Y-77433500D01*
X138846528Y-77633500D01*
X138856285Y-77732564D01*
X138849600Y-77774750D01*
X138870090Y-77795240D01*
X138895098Y-77877680D01*
X138924935Y-77933500D01*
X138895098Y-77989320D01*
X138870090Y-78071760D01*
X138849600Y-78092250D01*
X138856285Y-78134436D01*
X138846528Y-78233500D01*
X138846528Y-78433500D01*
X138856377Y-78533500D01*
X138846528Y-78633500D01*
X138846528Y-78833500D01*
X138856285Y-78932564D01*
X138849600Y-78974750D01*
X138870090Y-78995240D01*
X138895098Y-79077680D01*
X138924935Y-79133500D01*
X138895098Y-79189320D01*
X138870090Y-79271760D01*
X138849600Y-79292250D01*
X138856285Y-79334436D01*
X138846528Y-79433500D01*
X138846528Y-79633500D01*
X138856377Y-79733500D01*
X138846528Y-79833500D01*
X138846528Y-80033500D01*
X138856285Y-80132564D01*
X138849600Y-80174750D01*
X138870090Y-80195240D01*
X138895098Y-80277680D01*
X138924935Y-80333500D01*
X138895098Y-80389320D01*
X138870090Y-80471760D01*
X138849600Y-80492250D01*
X138856285Y-80534436D01*
X138846528Y-80633500D01*
X138846528Y-80833500D01*
X138856377Y-80933500D01*
X138846528Y-81033500D01*
X138846528Y-81233500D01*
X138856285Y-81332564D01*
X138849600Y-81374750D01*
X138870090Y-81395240D01*
X138895098Y-81477680D01*
X138924935Y-81533500D01*
X138895098Y-81589320D01*
X138870090Y-81671760D01*
X138849600Y-81692250D01*
X138856285Y-81734436D01*
X138846528Y-81833500D01*
X138846528Y-82033500D01*
X138856377Y-82133500D01*
X138846528Y-82233500D01*
X138846528Y-82433500D01*
X138856377Y-82533500D01*
X138846528Y-82633500D01*
X138846528Y-82798500D01*
X138410634Y-82798500D01*
X138328505Y-82743623D01*
X138169191Y-82677633D01*
X134744600Y-79253043D01*
X134744600Y-77927652D01*
X134748397Y-77889099D01*
X134744600Y-77850546D01*
X134744600Y-77850539D01*
X134733241Y-77735213D01*
X134688354Y-77587240D01*
X134615462Y-77450867D01*
X134517364Y-77331336D01*
X134487410Y-77306753D01*
X134033947Y-76853290D01*
X134009364Y-76823336D01*
X133889833Y-76725238D01*
X133753460Y-76652346D01*
X133605487Y-76607459D01*
X133490161Y-76596100D01*
X133490153Y-76596100D01*
X133451600Y-76592303D01*
X133413047Y-76596100D01*
X127495756Y-76596100D01*
X127457200Y-76592303D01*
X127418644Y-76596100D01*
X127418639Y-76596100D01*
X127378226Y-76600080D01*
X127303313Y-76607458D01*
X127155340Y-76652346D01*
X127018967Y-76725238D01*
X126899436Y-76823336D01*
X126874849Y-76853295D01*
X126561091Y-77167053D01*
X126531136Y-77191636D01*
X126433038Y-77311168D01*
X126360146Y-77447541D01*
X126315259Y-77595514D01*
X126303900Y-77710840D01*
X126303900Y-77710847D01*
X126300103Y-77749400D01*
X126303900Y-77787953D01*
X126303900Y-78119340D01*
X126237910Y-78278655D01*
X126203900Y-78449635D01*
X113753500Y-78449635D01*
X113753500Y-75629885D01*
X115778382Y-75629885D01*
X115792527Y-75701384D01*
X115898558Y-75952568D01*
X116051555Y-76178240D01*
X116245639Y-76369728D01*
X116473351Y-76519672D01*
X116725940Y-76622311D01*
X116993700Y-76673700D01*
X117743700Y-76673700D01*
X117743700Y-75415700D01*
X117997700Y-75415700D01*
X117997700Y-76673700D01*
X118747700Y-76673700D01*
X119015460Y-76622311D01*
X119268049Y-76519672D01*
X119495761Y-76369728D01*
X119689845Y-76178240D01*
X119842842Y-75952568D01*
X119948873Y-75701384D01*
X119959911Y-75645590D01*
X121539224Y-75645590D01*
X121560137Y-75739653D01*
X121675409Y-76008126D01*
X121840843Y-76248952D01*
X122050081Y-76452876D01*
X122295082Y-76612061D01*
X122566431Y-76720390D01*
X122853700Y-76773700D01*
X123703700Y-76773700D01*
X123703700Y-75415700D01*
X123957700Y-75415700D01*
X123957700Y-76773700D01*
X124807700Y-76773700D01*
X125094969Y-76720390D01*
X125366318Y-76612061D01*
X125611319Y-76452876D01*
X125820557Y-76248952D01*
X125985991Y-76008126D01*
X126101263Y-75739653D01*
X126122176Y-75645590D01*
X126000855Y-75415700D01*
X123957700Y-75415700D01*
X123703700Y-75415700D01*
X121660545Y-75415700D01*
X121539224Y-75645590D01*
X119959911Y-75645590D01*
X119963018Y-75629885D01*
X119840356Y-75415700D01*
X117997700Y-75415700D01*
X117743700Y-75415700D01*
X115901044Y-75415700D01*
X115778382Y-75629885D01*
X113753500Y-75629885D01*
X113753500Y-74947515D01*
X115778382Y-74947515D01*
X115901044Y-75161700D01*
X117743700Y-75161700D01*
X117743700Y-73903700D01*
X117997700Y-73903700D01*
X117997700Y-75161700D01*
X119840356Y-75161700D01*
X119963018Y-74947515D01*
X119959912Y-74931810D01*
X121539224Y-74931810D01*
X121660545Y-75161700D01*
X123703700Y-75161700D01*
X123703700Y-73803700D01*
X123957700Y-73803700D01*
X123957700Y-75161700D01*
X126000855Y-75161700D01*
X126122176Y-74931810D01*
X126101263Y-74837747D01*
X125985991Y-74569274D01*
X125961417Y-74533500D01*
X141021528Y-74533500D01*
X141033788Y-74657982D01*
X141070098Y-74777680D01*
X141129063Y-74887994D01*
X141208415Y-74984685D01*
X141305106Y-75064037D01*
X141415420Y-75123002D01*
X141535118Y-75159312D01*
X141659600Y-75171572D01*
X142148850Y-75168500D01*
X142307600Y-75009750D01*
X142307600Y-74260500D01*
X142561600Y-74260500D01*
X142561600Y-75009750D01*
X142720350Y-75168500D01*
X143209600Y-75171572D01*
X143334082Y-75159312D01*
X143453780Y-75123002D01*
X143564094Y-75064037D01*
X143660785Y-74984685D01*
X143740137Y-74887994D01*
X143799102Y-74777680D01*
X143835412Y-74657982D01*
X143847672Y-74533500D01*
X143844600Y-74419250D01*
X143685850Y-74260500D01*
X142561600Y-74260500D01*
X142307600Y-74260500D01*
X141183350Y-74260500D01*
X141024600Y-74419250D01*
X141021528Y-74533500D01*
X125961417Y-74533500D01*
X125820557Y-74328448D01*
X125611319Y-74124524D01*
X125366318Y-73965339D01*
X125094969Y-73857010D01*
X124807700Y-73803700D01*
X123957700Y-73803700D01*
X123703700Y-73803700D01*
X122853700Y-73803700D01*
X122566431Y-73857010D01*
X122295082Y-73965339D01*
X122050081Y-74124524D01*
X121840843Y-74328448D01*
X121675409Y-74569274D01*
X121560137Y-74837747D01*
X121539224Y-74931810D01*
X119959912Y-74931810D01*
X119948873Y-74876016D01*
X119842842Y-74624832D01*
X119689845Y-74399160D01*
X119495761Y-74207672D01*
X119268049Y-74057728D01*
X119015460Y-73955089D01*
X118747700Y-73903700D01*
X117997700Y-73903700D01*
X117743700Y-73903700D01*
X116993700Y-73903700D01*
X116725940Y-73955089D01*
X116473351Y-74057728D01*
X116245639Y-74207672D01*
X116051555Y-74399160D01*
X115898558Y-74624832D01*
X115792527Y-74876016D01*
X115778382Y-74947515D01*
X113753500Y-74947515D01*
X113753500Y-73733500D01*
X141021528Y-73733500D01*
X141024600Y-73847750D01*
X141183350Y-74006500D01*
X142307600Y-74006500D01*
X142307600Y-73257250D01*
X142561600Y-73257250D01*
X142561600Y-74006500D01*
X143685850Y-74006500D01*
X143844600Y-73847750D01*
X143847672Y-73733500D01*
X143835412Y-73609018D01*
X143799102Y-73489320D01*
X143740137Y-73379006D01*
X143660785Y-73282315D01*
X143564094Y-73202963D01*
X143453780Y-73143998D01*
X143334082Y-73107688D01*
X143209600Y-73095428D01*
X142720350Y-73098500D01*
X142561600Y-73257250D01*
X142307600Y-73257250D01*
X142148850Y-73098500D01*
X141659600Y-73095428D01*
X141535118Y-73107688D01*
X141415420Y-73143998D01*
X141305106Y-73202963D01*
X141208415Y-73282315D01*
X141129063Y-73379006D01*
X141070098Y-73489320D01*
X141033788Y-73609018D01*
X141021528Y-73733500D01*
X113753500Y-73733500D01*
X113753500Y-71792964D01*
X144094967Y-71805135D01*
%TA.AperFunction,Conductor*%
D28*
G36*
X144094967Y-71805135D02*
G01*
X144106934Y-93345400D01*
X137626314Y-93345400D01*
X137660112Y-93233982D01*
X137672372Y-93109500D01*
X137669300Y-91895250D01*
X137510550Y-91736500D01*
X136111300Y-91736500D01*
X136111300Y-91756500D01*
X135857300Y-91756500D01*
X135857300Y-91736500D01*
X134458050Y-91736500D01*
X134299300Y-91895250D01*
X134296228Y-93109500D01*
X134308488Y-93233982D01*
X134342286Y-93345400D01*
X128776314Y-93345400D01*
X128810112Y-93233982D01*
X128822372Y-93109500D01*
X128819300Y-91895250D01*
X128660550Y-91736500D01*
X127261300Y-91736500D01*
X127261300Y-91756500D01*
X127007300Y-91756500D01*
X127007300Y-91736500D01*
X125608050Y-91736500D01*
X125449300Y-91895250D01*
X125446228Y-93109500D01*
X125458488Y-93233982D01*
X125492286Y-93345400D01*
X113753500Y-93345400D01*
X113753500Y-90129885D01*
X115778382Y-90129885D01*
X115792527Y-90201384D01*
X115898558Y-90452568D01*
X116051555Y-90678240D01*
X116245639Y-90869728D01*
X116473351Y-91019672D01*
X116725940Y-91122311D01*
X116993700Y-91173700D01*
X117743700Y-91173700D01*
X117743700Y-89915700D01*
X117997700Y-89915700D01*
X117997700Y-91173700D01*
X118747700Y-91173700D01*
X119015460Y-91122311D01*
X119268049Y-91019672D01*
X119495761Y-90869728D01*
X119689845Y-90678240D01*
X119842842Y-90452568D01*
X119948873Y-90201384D01*
X119959911Y-90145590D01*
X121539224Y-90145590D01*
X121560137Y-90239653D01*
X121675409Y-90508126D01*
X121840843Y-90748952D01*
X122050081Y-90952876D01*
X122295082Y-91112061D01*
X122566431Y-91220390D01*
X122853700Y-91273700D01*
X123703700Y-91273700D01*
X123703700Y-89915700D01*
X121660545Y-89915700D01*
X121539224Y-90145590D01*
X119959911Y-90145590D01*
X119963018Y-90129885D01*
X119840356Y-89915700D01*
X117997700Y-89915700D01*
X117743700Y-89915700D01*
X115901044Y-89915700D01*
X115778382Y-90129885D01*
X113753500Y-90129885D01*
X113753500Y-89447515D01*
X115778382Y-89447515D01*
X115901044Y-89661700D01*
X117743700Y-89661700D01*
X117743700Y-88403700D01*
X117997700Y-88403700D01*
X117997700Y-89661700D01*
X119840356Y-89661700D01*
X119963018Y-89447515D01*
X119959912Y-89431810D01*
X121539224Y-89431810D01*
X121660545Y-89661700D01*
X123703700Y-89661700D01*
X123703700Y-88303700D01*
X123957700Y-88303700D01*
X123957700Y-89661700D01*
X123977700Y-89661700D01*
X123977700Y-89915700D01*
X123957700Y-89915700D01*
X123957700Y-91273700D01*
X124807700Y-91273700D01*
X125094969Y-91220390D01*
X125366318Y-91112061D01*
X125448629Y-91058581D01*
X125449300Y-91323750D01*
X125608050Y-91482500D01*
X127007300Y-91482500D01*
X127007300Y-89633250D01*
X127261300Y-89633250D01*
X127261300Y-91482500D01*
X128660550Y-91482500D01*
X128819300Y-91323750D01*
X128822372Y-90109500D01*
X128810112Y-89985018D01*
X128784914Y-89901952D01*
X128833115Y-89960685D01*
X128929806Y-90040037D01*
X129040120Y-90099002D01*
X129159818Y-90135312D01*
X129284300Y-90147572D01*
X129398550Y-90144500D01*
X129557300Y-89985750D01*
X129557300Y-88836500D01*
X128808050Y-88836500D01*
X128649300Y-88995250D01*
X128646228Y-89509500D01*
X128658488Y-89633982D01*
X128683686Y-89717048D01*
X128635485Y-89658315D01*
X128538794Y-89578963D01*
X128428480Y-89519998D01*
X128308782Y-89483688D01*
X128184300Y-89471428D01*
X127420050Y-89474500D01*
X127261300Y-89633250D01*
X127007300Y-89633250D01*
X126848550Y-89474500D01*
X126101232Y-89471496D01*
X126122176Y-89431810D01*
X126101263Y-89337747D01*
X125985991Y-89069274D01*
X125820557Y-88828448D01*
X125611319Y-88624524D01*
X125366318Y-88465339D01*
X125094969Y-88357010D01*
X124807700Y-88303700D01*
X123957700Y-88303700D01*
X123703700Y-88303700D01*
X122853700Y-88303700D01*
X122566431Y-88357010D01*
X122295082Y-88465339D01*
X122050081Y-88624524D01*
X121840843Y-88828448D01*
X121675409Y-89069274D01*
X121560137Y-89337747D01*
X121539224Y-89431810D01*
X119959912Y-89431810D01*
X119948873Y-89376016D01*
X119842842Y-89124832D01*
X119689845Y-88899160D01*
X119495761Y-88707672D01*
X119268049Y-88557728D01*
X119015460Y-88455089D01*
X118747700Y-88403700D01*
X117997700Y-88403700D01*
X117743700Y-88403700D01*
X116993700Y-88403700D01*
X116725940Y-88455089D01*
X116473351Y-88557728D01*
X116245639Y-88707672D01*
X116051555Y-88899160D01*
X115898558Y-89124832D01*
X115792527Y-89376016D01*
X115778382Y-89447515D01*
X113753500Y-89447515D01*
X113753500Y-87909500D01*
X128646228Y-87909500D01*
X128649300Y-88423750D01*
X128808050Y-88582500D01*
X129557300Y-88582500D01*
X129557300Y-87433250D01*
X129398550Y-87274500D01*
X129284300Y-87271428D01*
X129159818Y-87283688D01*
X129040120Y-87319998D01*
X128929806Y-87378963D01*
X128833115Y-87458315D01*
X128753763Y-87555006D01*
X128694798Y-87665320D01*
X128658488Y-87785018D01*
X128646228Y-87909500D01*
X113753500Y-87909500D01*
X113753500Y-78449635D01*
X126203900Y-78449635D01*
X126203900Y-78623965D01*
X126237910Y-78794945D01*
X126304623Y-78956005D01*
X126401476Y-79100955D01*
X126524745Y-79224224D01*
X126669695Y-79321077D01*
X126830755Y-79387790D01*
X127001735Y-79421800D01*
X127176065Y-79421800D01*
X127347045Y-79387790D01*
X127508105Y-79321077D01*
X127653055Y-79224224D01*
X127776324Y-79100955D01*
X127873177Y-78956005D01*
X127939890Y-78794945D01*
X127973900Y-78623965D01*
X127973900Y-78449635D01*
X127939890Y-78278655D01*
X127893268Y-78166100D01*
X133126443Y-78166100D01*
X133174601Y-78214258D01*
X133174600Y-79539647D01*
X133170803Y-79578200D01*
X133174600Y-79616753D01*
X133174600Y-79616760D01*
X133185959Y-79732086D01*
X133230846Y-79880059D01*
X133303738Y-80016432D01*
X133401836Y-80135964D01*
X133431790Y-80160547D01*
X137059033Y-83787791D01*
X137125023Y-83947105D01*
X137221876Y-84092055D01*
X137345145Y-84215324D01*
X137490095Y-84312177D01*
X137651155Y-84378890D01*
X137822135Y-84412900D01*
X137996465Y-84412900D01*
X138167445Y-84378890D01*
X138328505Y-84312177D01*
X138393872Y-84268500D01*
X138892313Y-84268500D01*
X138895098Y-84277680D01*
X138924935Y-84333500D01*
X138895098Y-84389320D01*
X138870090Y-84471760D01*
X138849600Y-84492250D01*
X138856285Y-84534436D01*
X138846528Y-84633500D01*
X138846528Y-84833500D01*
X138856377Y-84933500D01*
X138846528Y-85033500D01*
X138846528Y-85198500D01*
X134193594Y-85198500D01*
X134157499Y-85194945D01*
X134121404Y-85198500D01*
X134121395Y-85198500D01*
X134013415Y-85209135D01*
X133874867Y-85251163D01*
X133747180Y-85319413D01*
X133635262Y-85411262D01*
X133612246Y-85439307D01*
X132728054Y-86323500D01*
X131404905Y-86323500D01*
X131368800Y-86319944D01*
X131332695Y-86323500D01*
X131224715Y-86334135D01*
X131086167Y-86376163D01*
X130958480Y-86444413D01*
X130846562Y-86536262D01*
X130823541Y-86564313D01*
X130430108Y-86957746D01*
X130402062Y-86980763D01*
X130310213Y-87092681D01*
X130241963Y-87220368D01*
X130223095Y-87282567D01*
X130221578Y-87287570D01*
X130208782Y-87283688D01*
X130084300Y-87271428D01*
X129970050Y-87274500D01*
X129811300Y-87433250D01*
X129811300Y-88582500D01*
X129831300Y-88582500D01*
X129831300Y-88836500D01*
X129811300Y-88836500D01*
X129811300Y-89985750D01*
X129970050Y-90144500D01*
X130084300Y-90147572D01*
X130208782Y-90135312D01*
X130309300Y-90104820D01*
X130409818Y-90135312D01*
X130534300Y-90147572D01*
X131334300Y-90147572D01*
X131458782Y-90135312D01*
X131559300Y-90104820D01*
X131659818Y-90135312D01*
X131784300Y-90147572D01*
X132584300Y-90147572D01*
X132708782Y-90135312D01*
X132809300Y-90104820D01*
X132909818Y-90135312D01*
X133034300Y-90147572D01*
X133834300Y-90147572D01*
X133958782Y-90135312D01*
X134078480Y-90099002D01*
X134188794Y-90040037D01*
X134285485Y-89960685D01*
X134333686Y-89901952D01*
X134308488Y-89985018D01*
X134296228Y-90109500D01*
X134299300Y-91323750D01*
X134458050Y-91482500D01*
X135857300Y-91482500D01*
X135857300Y-91462500D01*
X136111300Y-91462500D01*
X136111300Y-91482500D01*
X137510550Y-91482500D01*
X137659550Y-91333500D01*
X141021528Y-91333500D01*
X141033788Y-91457982D01*
X141070098Y-91577680D01*
X141129063Y-91687994D01*
X141208415Y-91784685D01*
X141305106Y-91864037D01*
X141415420Y-91923002D01*
X141535118Y-91959312D01*
X141659600Y-91971572D01*
X142148850Y-91968500D01*
X142307600Y-91809750D01*
X142307600Y-91060500D01*
X142561600Y-91060500D01*
X142561600Y-91809750D01*
X142720350Y-91968500D01*
X143209600Y-91971572D01*
X143334082Y-91959312D01*
X143453780Y-91923002D01*
X143564094Y-91864037D01*
X143660785Y-91784685D01*
X143740137Y-91687994D01*
X143799102Y-91577680D01*
X143835412Y-91457982D01*
X143847672Y-91333500D01*
X143844600Y-91219250D01*
X143685850Y-91060500D01*
X142561600Y-91060500D01*
X142307600Y-91060500D01*
X141183350Y-91060500D01*
X141024600Y-91219250D01*
X141021528Y-91333500D01*
X137659550Y-91333500D01*
X137669300Y-91323750D01*
X137671299Y-90533500D01*
X141021528Y-90533500D01*
X141024600Y-90647750D01*
X141183350Y-90806500D01*
X142307600Y-90806500D01*
X142307600Y-90057250D01*
X142561600Y-90057250D01*
X142561600Y-90806500D01*
X143685850Y-90806500D01*
X143844600Y-90647750D01*
X143847672Y-90533500D01*
X143835412Y-90409018D01*
X143799102Y-90289320D01*
X143740137Y-90179006D01*
X143660785Y-90082315D01*
X143564094Y-90002963D01*
X143453780Y-89943998D01*
X143334082Y-89907688D01*
X143209600Y-89895428D01*
X142720350Y-89898500D01*
X142561600Y-90057250D01*
X142307600Y-90057250D01*
X142148850Y-89898500D01*
X141659600Y-89895428D01*
X141535118Y-89907688D01*
X141415420Y-89943998D01*
X141305106Y-90002963D01*
X141208415Y-90082315D01*
X141129063Y-90179006D01*
X141070098Y-90289320D01*
X141033788Y-90409018D01*
X141021528Y-90533500D01*
X137671299Y-90533500D01*
X137672372Y-90109500D01*
X137660112Y-89985018D01*
X137648063Y-89945297D01*
X137695811Y-89965075D01*
X137963389Y-90018300D01*
X138236211Y-90018300D01*
X138503789Y-89965075D01*
X138755843Y-89860671D01*
X138982686Y-89709099D01*
X139175599Y-89516186D01*
X139327171Y-89289343D01*
X139418647Y-89068500D01*
X139453408Y-89068500D01*
X139484600Y-89071572D01*
X140029686Y-89071572D01*
X140034600Y-89072056D01*
X140039514Y-89071572D01*
X140584600Y-89071572D01*
X140709082Y-89059312D01*
X140828780Y-89023002D01*
X140939094Y-88964037D01*
X141035785Y-88884685D01*
X141115137Y-88787994D01*
X141174102Y-88677680D01*
X141210412Y-88557982D01*
X141222672Y-88433500D01*
X141222672Y-88233500D01*
X141212823Y-88133500D01*
X141222672Y-88033500D01*
X141222672Y-87833500D01*
X141212823Y-87733500D01*
X141222672Y-87633500D01*
X141222672Y-87615250D01*
X142129600Y-87615250D01*
X142142194Y-87724024D01*
X142181568Y-87842749D01*
X142243348Y-87951512D01*
X142325159Y-88046131D01*
X142423858Y-88122973D01*
X142535651Y-88179082D01*
X142656243Y-88212304D01*
X142778850Y-88218500D01*
X142937600Y-88059750D01*
X142937600Y-87456500D01*
X143191600Y-87456500D01*
X143191600Y-88059750D01*
X143350350Y-88218500D01*
X143472957Y-88212304D01*
X143593549Y-88179082D01*
X143705342Y-88122973D01*
X143804041Y-88046131D01*
X143885852Y-87951512D01*
X143947632Y-87842749D01*
X143987006Y-87724024D01*
X143999600Y-87615250D01*
X143840850Y-87456500D01*
X143191600Y-87456500D01*
X142937600Y-87456500D01*
X142288350Y-87456500D01*
X142129600Y-87615250D01*
X141222672Y-87615250D01*
X141222672Y-87433500D01*
X141212823Y-87333500D01*
X141222672Y-87233500D01*
X141222672Y-87033500D01*
X141212823Y-86933500D01*
X141222672Y-86833500D01*
X141222672Y-86633500D01*
X141212823Y-86533500D01*
X141222672Y-86433500D01*
X141222672Y-86233500D01*
X141212823Y-86133500D01*
X141222672Y-86033500D01*
X141222672Y-86015250D01*
X142129600Y-86015250D01*
X142142194Y-86124024D01*
X142181568Y-86242749D01*
X142243348Y-86351512D01*
X142325159Y-86446131D01*
X142423858Y-86522973D01*
X142444832Y-86533500D01*
X142423858Y-86544027D01*
X142325159Y-86620869D01*
X142243348Y-86715488D01*
X142181568Y-86824251D01*
X142142194Y-86942976D01*
X142129600Y-87051750D01*
X142288350Y-87210500D01*
X142937600Y-87210500D01*
X142937600Y-86607250D01*
X142863850Y-86533500D01*
X142937600Y-86459750D01*
X142937600Y-85856500D01*
X143191600Y-85856500D01*
X143191600Y-86459750D01*
X143265350Y-86533500D01*
X143191600Y-86607250D01*
X143191600Y-87210500D01*
X143840850Y-87210500D01*
X143999600Y-87051750D01*
X143987006Y-86942976D01*
X143947632Y-86824251D01*
X143885852Y-86715488D01*
X143804041Y-86620869D01*
X143705342Y-86544027D01*
X143684368Y-86533500D01*
X143705342Y-86522973D01*
X143804041Y-86446131D01*
X143885852Y-86351512D01*
X143947632Y-86242749D01*
X143987006Y-86124024D01*
X143999600Y-86015250D01*
X143840850Y-85856500D01*
X143191600Y-85856500D01*
X142937600Y-85856500D01*
X142288350Y-85856500D01*
X142129600Y-86015250D01*
X141222672Y-86015250D01*
X141222672Y-85833500D01*
X141212915Y-85734436D01*
X141219600Y-85692250D01*
X141199110Y-85671760D01*
X141174102Y-85589320D01*
X141144265Y-85533500D01*
X141174102Y-85477680D01*
X141199110Y-85395240D01*
X141219600Y-85374750D01*
X141212915Y-85332564D01*
X141222672Y-85233500D01*
X141222672Y-85033500D01*
X141212823Y-84933500D01*
X141222672Y-84833500D01*
X141222672Y-84633500D01*
X141212915Y-84534436D01*
X141219600Y-84492250D01*
X141199110Y-84471760D01*
X141174102Y-84389320D01*
X141144265Y-84333500D01*
X141174102Y-84277680D01*
X141199110Y-84195240D01*
X141219600Y-84174750D01*
X141213444Y-84135900D01*
X141505747Y-84135900D01*
X141579495Y-84185177D01*
X141740555Y-84251890D01*
X141911535Y-84285900D01*
X142085865Y-84285900D01*
X142213550Y-84260502D01*
X142284348Y-84260502D01*
X142129600Y-84415250D01*
X142142194Y-84524024D01*
X142181568Y-84642749D01*
X142243348Y-84751512D01*
X142325159Y-84846131D01*
X142423858Y-84922973D01*
X142444832Y-84933500D01*
X142423858Y-84944027D01*
X142325159Y-85020869D01*
X142243348Y-85115488D01*
X142181568Y-85224251D01*
X142142194Y-85342976D01*
X142129600Y-85451750D01*
X142288350Y-85610500D01*
X142937600Y-85610500D01*
X142937600Y-85007250D01*
X142863850Y-84933500D01*
X142937600Y-84859750D01*
X142937600Y-84256500D01*
X143191600Y-84256500D01*
X143191600Y-84859750D01*
X143265350Y-84933500D01*
X143191600Y-85007250D01*
X143191600Y-85610500D01*
X143840850Y-85610500D01*
X143999600Y-85451750D01*
X143987006Y-85342976D01*
X143947632Y-85224251D01*
X143885852Y-85115488D01*
X143804041Y-85020869D01*
X143705342Y-84944027D01*
X143684368Y-84933500D01*
X143705342Y-84922973D01*
X143804041Y-84846131D01*
X143885852Y-84751512D01*
X143947632Y-84642749D01*
X143987006Y-84524024D01*
X143999600Y-84415250D01*
X143840850Y-84256500D01*
X143191600Y-84256500D01*
X142937600Y-84256500D01*
X142917600Y-84256500D01*
X142917600Y-84010500D01*
X142937600Y-84010500D01*
X142937600Y-83407250D01*
X142883700Y-83353350D01*
X142883700Y-83313735D01*
X142883686Y-83313664D01*
X142937600Y-83259750D01*
X142937600Y-82656500D01*
X143191600Y-82656500D01*
X143191600Y-83259750D01*
X143265350Y-83333500D01*
X143191600Y-83407250D01*
X143191600Y-84010500D01*
X143840850Y-84010500D01*
X143999600Y-83851750D01*
X143987006Y-83742976D01*
X143947632Y-83624251D01*
X143885852Y-83515488D01*
X143804041Y-83420869D01*
X143705342Y-83344027D01*
X143684368Y-83333500D01*
X143705342Y-83322973D01*
X143804041Y-83246131D01*
X143885852Y-83151512D01*
X143947632Y-83042749D01*
X143987006Y-82924024D01*
X143999600Y-82815250D01*
X143840850Y-82656500D01*
X143191600Y-82656500D01*
X142937600Y-82656500D01*
X142917600Y-82656500D01*
X142917600Y-82410500D01*
X142937600Y-82410500D01*
X142937600Y-81807250D01*
X142863850Y-81733500D01*
X142937600Y-81659750D01*
X142937600Y-81056500D01*
X143191600Y-81056500D01*
X143191600Y-81659750D01*
X143265350Y-81733500D01*
X143191600Y-81807250D01*
X143191600Y-82410500D01*
X143840850Y-82410500D01*
X143999600Y-82251750D01*
X143987006Y-82142976D01*
X143947632Y-82024251D01*
X143885852Y-81915488D01*
X143804041Y-81820869D01*
X143705342Y-81744027D01*
X143684368Y-81733500D01*
X143705342Y-81722973D01*
X143804041Y-81646131D01*
X143885852Y-81551512D01*
X143947632Y-81442749D01*
X143987006Y-81324024D01*
X143999600Y-81215250D01*
X143840850Y-81056500D01*
X143191600Y-81056500D01*
X142937600Y-81056500D01*
X142288350Y-81056500D01*
X142129600Y-81215250D01*
X142142194Y-81324024D01*
X142181568Y-81442749D01*
X142243348Y-81551512D01*
X142325159Y-81646131D01*
X142423858Y-81722973D01*
X142444832Y-81733500D01*
X142423858Y-81744027D01*
X142325159Y-81820869D01*
X142243348Y-81915488D01*
X142181568Y-82024251D01*
X142164972Y-82074293D01*
X142140555Y-82049876D01*
X142080450Y-82009715D01*
X142080450Y-82002485D01*
X142046440Y-81831505D01*
X141979727Y-81670445D01*
X141884058Y-81527268D01*
X141905800Y-81417965D01*
X141905800Y-81243635D01*
X141871790Y-81072655D01*
X141857725Y-81038700D01*
X141871790Y-81004745D01*
X141905800Y-80833765D01*
X141905800Y-80659435D01*
X141871790Y-80488455D01*
X141856185Y-80450780D01*
X141884490Y-80382445D01*
X141918500Y-80211465D01*
X141918500Y-80037135D01*
X141884490Y-79866155D01*
X141876775Y-79847530D01*
X141897190Y-79798245D01*
X141931200Y-79627265D01*
X141931200Y-79615250D01*
X142129600Y-79615250D01*
X142142194Y-79724024D01*
X142181568Y-79842749D01*
X142243348Y-79951512D01*
X142325159Y-80046131D01*
X142423858Y-80122973D01*
X142444832Y-80133500D01*
X142423858Y-80144027D01*
X142325159Y-80220869D01*
X142243348Y-80315488D01*
X142181568Y-80424251D01*
X142142194Y-80542976D01*
X142129600Y-80651750D01*
X142288350Y-80810500D01*
X142937600Y-80810500D01*
X142937600Y-80207250D01*
X142863850Y-80133500D01*
X142937600Y-80059750D01*
X142937600Y-79456500D01*
X143191600Y-79456500D01*
X143191600Y-80059750D01*
X143265350Y-80133500D01*
X143191600Y-80207250D01*
X143191600Y-80810500D01*
X143840850Y-80810500D01*
X143999600Y-80651750D01*
X143987006Y-80542976D01*
X143947632Y-80424251D01*
X143885852Y-80315488D01*
X143804041Y-80220869D01*
X143705342Y-80144027D01*
X143684368Y-80133500D01*
X143705342Y-80122973D01*
X143804041Y-80046131D01*
X143885852Y-79951512D01*
X143947632Y-79842749D01*
X143987006Y-79724024D01*
X143999600Y-79615250D01*
X143840850Y-79456500D01*
X143191600Y-79456500D01*
X142937600Y-79456500D01*
X142288350Y-79456500D01*
X142129600Y-79615250D01*
X141931200Y-79615250D01*
X141931200Y-79452935D01*
X141897190Y-79281955D01*
X141844761Y-79155380D01*
X141909890Y-78998145D01*
X141943900Y-78827165D01*
X141943900Y-78652835D01*
X141909890Y-78481855D01*
X141887935Y-78428850D01*
X141909890Y-78375845D01*
X141943900Y-78204865D01*
X141943900Y-78030535D01*
X141940860Y-78015250D01*
X142129600Y-78015250D01*
X142142194Y-78124024D01*
X142181568Y-78242749D01*
X142243348Y-78351512D01*
X142325159Y-78446131D01*
X142423858Y-78522973D01*
X142444832Y-78533500D01*
X142423858Y-78544027D01*
X142325159Y-78620869D01*
X142243348Y-78715488D01*
X142181568Y-78824251D01*
X142142194Y-78942976D01*
X142129600Y-79051750D01*
X142288350Y-79210500D01*
X142937600Y-79210500D01*
X142937600Y-78607250D01*
X142863850Y-78533500D01*
X142937600Y-78459750D01*
X142937600Y-77856500D01*
X143191600Y-77856500D01*
X143191600Y-78459750D01*
X143265350Y-78533500D01*
X143191600Y-78607250D01*
X143191600Y-79210500D01*
X143840850Y-79210500D01*
X143999600Y-79051750D01*
X143987006Y-78942976D01*
X143947632Y-78824251D01*
X143885852Y-78715488D01*
X143804041Y-78620869D01*
X143705342Y-78544027D01*
X143684368Y-78533500D01*
X143705342Y-78522973D01*
X143804041Y-78446131D01*
X143885852Y-78351512D01*
X143947632Y-78242749D01*
X143987006Y-78124024D01*
X143999600Y-78015250D01*
X143840850Y-77856500D01*
X143191600Y-77856500D01*
X142937600Y-77856500D01*
X142288350Y-77856500D01*
X142129600Y-78015250D01*
X141940860Y-78015250D01*
X141909890Y-77859555D01*
X141902175Y-77840930D01*
X141922590Y-77791645D01*
X141956600Y-77620665D01*
X141956600Y-77451750D01*
X142129600Y-77451750D01*
X142288350Y-77610500D01*
X142937600Y-77610500D01*
X142937600Y-77007250D01*
X143191600Y-77007250D01*
X143191600Y-77610500D01*
X143840850Y-77610500D01*
X143999600Y-77451750D01*
X143987006Y-77342976D01*
X143947632Y-77224251D01*
X143885852Y-77115488D01*
X143804041Y-77020869D01*
X143705342Y-76944027D01*
X143593549Y-76887918D01*
X143472957Y-76854696D01*
X143350350Y-76848500D01*
X143191600Y-77007250D01*
X142937600Y-77007250D01*
X142778850Y-76848500D01*
X142656243Y-76854696D01*
X142535651Y-76887918D01*
X142423858Y-76944027D01*
X142325159Y-77020869D01*
X142243348Y-77115488D01*
X142181568Y-77224251D01*
X142142194Y-77342976D01*
X142129600Y-77451750D01*
X141956600Y-77451750D01*
X141956600Y-77446335D01*
X141922590Y-77275355D01*
X141906985Y-77237680D01*
X141935290Y-77169345D01*
X141969300Y-76998365D01*
X141969300Y-76824035D01*
X141935290Y-76653055D01*
X141868577Y-76491995D01*
X141771724Y-76347045D01*
X141648455Y-76223776D01*
X141503505Y-76126923D01*
X141342445Y-76060210D01*
X141171465Y-76026200D01*
X140997135Y-76026200D01*
X140848668Y-76055732D01*
X140808690Y-76036072D01*
X140687831Y-76003834D01*
X140563006Y-75995793D01*
X140320350Y-75998500D01*
X140161600Y-76157250D01*
X140161600Y-76395428D01*
X139907600Y-76395428D01*
X139907600Y-76157250D01*
X139748850Y-75998500D01*
X139506194Y-75995793D01*
X139381369Y-76003834D01*
X139260510Y-76036072D01*
X139148264Y-76091270D01*
X139048943Y-76167304D01*
X138966363Y-76261255D01*
X138903700Y-76369510D01*
X138863360Y-76487911D01*
X138849600Y-76574750D01*
X138953991Y-76679141D01*
X138895098Y-76789320D01*
X138870090Y-76871760D01*
X138849600Y-76892250D01*
X138856285Y-76934436D01*
X138846528Y-77033500D01*
X138846528Y-77233500D01*
X138856377Y-77333500D01*
X138846528Y-77433500D01*
X138846528Y-77633500D01*
X138856285Y-77732564D01*
X138849600Y-77774750D01*
X138870090Y-77795240D01*
X138895098Y-77877680D01*
X138924935Y-77933500D01*
X138895098Y-77989320D01*
X138870090Y-78071760D01*
X138849600Y-78092250D01*
X138856285Y-78134436D01*
X138846528Y-78233500D01*
X138846528Y-78433500D01*
X138856377Y-78533500D01*
X138846528Y-78633500D01*
X138846528Y-78833500D01*
X138856285Y-78932564D01*
X138849600Y-78974750D01*
X138870090Y-78995240D01*
X138895098Y-79077680D01*
X138924935Y-79133500D01*
X138895098Y-79189320D01*
X138870090Y-79271760D01*
X138849600Y-79292250D01*
X138856285Y-79334436D01*
X138846528Y-79433500D01*
X138846528Y-79633500D01*
X138856377Y-79733500D01*
X138846528Y-79833500D01*
X138846528Y-80033500D01*
X138856285Y-80132564D01*
X138849600Y-80174750D01*
X138870090Y-80195240D01*
X138895098Y-80277680D01*
X138924935Y-80333500D01*
X138895098Y-80389320D01*
X138870090Y-80471760D01*
X138849600Y-80492250D01*
X138856285Y-80534436D01*
X138846528Y-80633500D01*
X138846528Y-80833500D01*
X138856377Y-80933500D01*
X138846528Y-81033500D01*
X138846528Y-81233500D01*
X138856285Y-81332564D01*
X138849600Y-81374750D01*
X138870090Y-81395240D01*
X138895098Y-81477680D01*
X138924935Y-81533500D01*
X138895098Y-81589320D01*
X138870090Y-81671760D01*
X138849600Y-81692250D01*
X138856285Y-81734436D01*
X138846528Y-81833500D01*
X138846528Y-82033500D01*
X138856377Y-82133500D01*
X138846528Y-82233500D01*
X138846528Y-82433500D01*
X138856377Y-82533500D01*
X138846528Y-82633500D01*
X138846528Y-82798500D01*
X138410634Y-82798500D01*
X138328505Y-82743623D01*
X138169191Y-82677633D01*
X134744600Y-79253043D01*
X134744600Y-77927652D01*
X134748397Y-77889099D01*
X134744600Y-77850546D01*
X134744600Y-77850539D01*
X134733241Y-77735213D01*
X134688354Y-77587240D01*
X134615462Y-77450867D01*
X134517364Y-77331336D01*
X134487410Y-77306753D01*
X134033947Y-76853290D01*
X134009364Y-76823336D01*
X133889833Y-76725238D01*
X133753460Y-76652346D01*
X133605487Y-76607459D01*
X133490161Y-76596100D01*
X133490153Y-76596100D01*
X133451600Y-76592303D01*
X133413047Y-76596100D01*
X127495756Y-76596100D01*
X127457200Y-76592303D01*
X127418644Y-76596100D01*
X127418639Y-76596100D01*
X127378226Y-76600080D01*
X127303313Y-76607458D01*
X127155340Y-76652346D01*
X127018967Y-76725238D01*
X126899436Y-76823336D01*
X126874849Y-76853295D01*
X126561091Y-77167053D01*
X126531136Y-77191636D01*
X126433038Y-77311168D01*
X126360146Y-77447541D01*
X126315259Y-77595514D01*
X126303900Y-77710840D01*
X126303900Y-77710847D01*
X126300103Y-77749400D01*
X126303900Y-77787953D01*
X126303900Y-78119340D01*
X126237910Y-78278655D01*
X126203900Y-78449635D01*
X113753500Y-78449635D01*
X113753500Y-75629885D01*
X115778382Y-75629885D01*
X115792527Y-75701384D01*
X115898558Y-75952568D01*
X116051555Y-76178240D01*
X116245639Y-76369728D01*
X116473351Y-76519672D01*
X116725940Y-76622311D01*
X116993700Y-76673700D01*
X117743700Y-76673700D01*
X117743700Y-75415700D01*
X117997700Y-75415700D01*
X117997700Y-76673700D01*
X118747700Y-76673700D01*
X119015460Y-76622311D01*
X119268049Y-76519672D01*
X119495761Y-76369728D01*
X119689845Y-76178240D01*
X119842842Y-75952568D01*
X119948873Y-75701384D01*
X119959911Y-75645590D01*
X121539224Y-75645590D01*
X121560137Y-75739653D01*
X121675409Y-76008126D01*
X121840843Y-76248952D01*
X122050081Y-76452876D01*
X122295082Y-76612061D01*
X122566431Y-76720390D01*
X122853700Y-76773700D01*
X123703700Y-76773700D01*
X123703700Y-75415700D01*
X123957700Y-75415700D01*
X123957700Y-76773700D01*
X124807700Y-76773700D01*
X125094969Y-76720390D01*
X125366318Y-76612061D01*
X125611319Y-76452876D01*
X125820557Y-76248952D01*
X125985991Y-76008126D01*
X126101263Y-75739653D01*
X126122176Y-75645590D01*
X126000855Y-75415700D01*
X123957700Y-75415700D01*
X123703700Y-75415700D01*
X121660545Y-75415700D01*
X121539224Y-75645590D01*
X119959911Y-75645590D01*
X119963018Y-75629885D01*
X119840356Y-75415700D01*
X117997700Y-75415700D01*
X117743700Y-75415700D01*
X115901044Y-75415700D01*
X115778382Y-75629885D01*
X113753500Y-75629885D01*
X113753500Y-74947515D01*
X115778382Y-74947515D01*
X115901044Y-75161700D01*
X117743700Y-75161700D01*
X117743700Y-73903700D01*
X117997700Y-73903700D01*
X117997700Y-75161700D01*
X119840356Y-75161700D01*
X119963018Y-74947515D01*
X119959912Y-74931810D01*
X121539224Y-74931810D01*
X121660545Y-75161700D01*
X123703700Y-75161700D01*
X123703700Y-73803700D01*
X123957700Y-73803700D01*
X123957700Y-75161700D01*
X126000855Y-75161700D01*
X126122176Y-74931810D01*
X126101263Y-74837747D01*
X125985991Y-74569274D01*
X125961417Y-74533500D01*
X141021528Y-74533500D01*
X141033788Y-74657982D01*
X141070098Y-74777680D01*
X141129063Y-74887994D01*
X141208415Y-74984685D01*
X141305106Y-75064037D01*
X141415420Y-75123002D01*
X141535118Y-75159312D01*
X141659600Y-75171572D01*
X142148850Y-75168500D01*
X142307600Y-75009750D01*
X142307600Y-74260500D01*
X142561600Y-74260500D01*
X142561600Y-75009750D01*
X142720350Y-75168500D01*
X143209600Y-75171572D01*
X143334082Y-75159312D01*
X143453780Y-75123002D01*
X143564094Y-75064037D01*
X143660785Y-74984685D01*
X143740137Y-74887994D01*
X143799102Y-74777680D01*
X143835412Y-74657982D01*
X143847672Y-74533500D01*
X143844600Y-74419250D01*
X143685850Y-74260500D01*
X142561600Y-74260500D01*
X142307600Y-74260500D01*
X141183350Y-74260500D01*
X141024600Y-74419250D01*
X141021528Y-74533500D01*
X125961417Y-74533500D01*
X125820557Y-74328448D01*
X125611319Y-74124524D01*
X125366318Y-73965339D01*
X125094969Y-73857010D01*
X124807700Y-73803700D01*
X123957700Y-73803700D01*
X123703700Y-73803700D01*
X122853700Y-73803700D01*
X122566431Y-73857010D01*
X122295082Y-73965339D01*
X122050081Y-74124524D01*
X121840843Y-74328448D01*
X121675409Y-74569274D01*
X121560137Y-74837747D01*
X121539224Y-74931810D01*
X119959912Y-74931810D01*
X119948873Y-74876016D01*
X119842842Y-74624832D01*
X119689845Y-74399160D01*
X119495761Y-74207672D01*
X119268049Y-74057728D01*
X119015460Y-73955089D01*
X118747700Y-73903700D01*
X117997700Y-73903700D01*
X117743700Y-73903700D01*
X116993700Y-73903700D01*
X116725940Y-73955089D01*
X116473351Y-74057728D01*
X116245639Y-74207672D01*
X116051555Y-74399160D01*
X115898558Y-74624832D01*
X115792527Y-74876016D01*
X115778382Y-74947515D01*
X113753500Y-74947515D01*
X113753500Y-73733500D01*
X141021528Y-73733500D01*
X141024600Y-73847750D01*
X141183350Y-74006500D01*
X142307600Y-74006500D01*
X142307600Y-73257250D01*
X142561600Y-73257250D01*
X142561600Y-74006500D01*
X143685850Y-74006500D01*
X143844600Y-73847750D01*
X143847672Y-73733500D01*
X143835412Y-73609018D01*
X143799102Y-73489320D01*
X143740137Y-73379006D01*
X143660785Y-73282315D01*
X143564094Y-73202963D01*
X143453780Y-73143998D01*
X143334082Y-73107688D01*
X143209600Y-73095428D01*
X142720350Y-73098500D01*
X142561600Y-73257250D01*
X142307600Y-73257250D01*
X142148850Y-73098500D01*
X141659600Y-73095428D01*
X141535118Y-73107688D01*
X141415420Y-73143998D01*
X141305106Y-73202963D01*
X141208415Y-73282315D01*
X141129063Y-73379006D01*
X141070098Y-73489320D01*
X141033788Y-73609018D01*
X141021528Y-73733500D01*
X113753500Y-73733500D01*
X113753500Y-71792964D01*
X144094967Y-71805135D01*
G37*
%TD.AperFunction*%
D27*
X135227668Y-87478623D02*
X135114637Y-87539040D01*
X135049112Y-87777907D01*
X135826500Y-88555295D01*
X136603888Y-87777907D01*
X136538363Y-87539040D01*
X136388045Y-87468500D01*
X137350113Y-87468500D01*
X137216914Y-87557501D01*
X137024001Y-87750414D01*
X136872429Y-87977257D01*
X136870699Y-87981434D01*
X136783493Y-87957512D01*
X136006105Y-88734900D01*
X136020248Y-88749043D01*
X135840643Y-88928648D01*
X135826500Y-88914505D01*
X135812358Y-88928648D01*
X135632753Y-88749043D01*
X135646895Y-88734900D01*
X134869507Y-87957512D01*
X134630640Y-88023037D01*
X134514740Y-88270016D01*
X134472372Y-88441354D01*
X134472372Y-87909500D01*
X134468658Y-87871789D01*
X134871947Y-87468500D01*
X135255692Y-87468500D01*
X135227668Y-87478623D01*
%TA.AperFunction,Conductor*%
D28*
G36*
X135227668Y-87478623D02*
G01*
X135114637Y-87539040D01*
X135049112Y-87777907D01*
X135826500Y-88555295D01*
X136603888Y-87777907D01*
X136538363Y-87539040D01*
X136388045Y-87468500D01*
X137350113Y-87468500D01*
X137216914Y-87557501D01*
X137024001Y-87750414D01*
X136872429Y-87977257D01*
X136870699Y-87981434D01*
X136783493Y-87957512D01*
X136006105Y-88734900D01*
X136020248Y-88749043D01*
X135840643Y-88928648D01*
X135826500Y-88914505D01*
X135812358Y-88928648D01*
X135632753Y-88749043D01*
X135646895Y-88734900D01*
X134869507Y-87957512D01*
X134630640Y-88023037D01*
X134514740Y-88270016D01*
X134472372Y-88441354D01*
X134472372Y-87909500D01*
X134468658Y-87871789D01*
X134871947Y-87468500D01*
X135255692Y-87468500D01*
X135227668Y-87478623D01*
G37*
%TD.AperFunction*%
%TD*%
M02*
