%TF.GenerationSoftware,KiCad,Pcbnew,5.1.10-88a1d61d58~88~ubuntu18.04.1*%
%TF.CreationDate,2021-11-15T16:26:48+07:00*%
%TF.ProjectId,HDMI-USL00_30L-ADAPTER,48444d49-2d55-4534-9c30-305f33304c2d,rev?*%
%TF.SameCoordinates,Original*%
%TF.FileFunction,Copper,L1,Top*%
%TF.FilePolarity,Positive*%
%FSLAX46Y46*%
G04 Gerber Fmt 4.6, Leading zero omitted, Abs format (unit mm)*
G04 Created by KiCad (PCBNEW 5.1.10-88a1d61d58~88~ubuntu18.04.1) date 2021-11-15 16:26:48*
%MOMM*%
%LPD*%
G01*
G04 APERTURE LIST*
%ADD10C,0.100000*%
%ADD11C,0.150000*%
%ADD12C,0.300000*%
%ADD13C,0.400000*%
%TA.AperFunction,ComponentPad*%
%ADD14C,1.500000*%
%TD*%
%TA.AperFunction,ComponentPad*%
%ADD15O,3.000000X1.500000*%
%TD*%
%TA.AperFunction,ComponentPad*%
%ADD16O,3.400000X1.700000*%
%TD*%
%TA.AperFunction,SMDPad,CuDef*%
%ADD17R,2.600000X0.300000*%
%TD*%
%TA.AperFunction,SMDPad,CuDef*%
%ADD18R,0.736600X0.203200*%
%TD*%
%TA.AperFunction,SMDPad,CuDef*%
%ADD19R,0.736600X0.406400*%
%TD*%
%TA.AperFunction,SMDPad,CuDef*%
%ADD20R,1.550000X0.800000*%
%TD*%
%TA.AperFunction,SMDPad,CuDef*%
%ADD21R,0.600000X0.500000*%
%TD*%
%TA.AperFunction,SMDPad,CuDef*%
%ADD22R,1.100000X0.200000*%
%TD*%
%TA.AperFunction,ViaPad*%
%ADD23C,0.500000*%
%TD*%
%TA.AperFunction,Conductor*%
%ADD24C,0.127000*%
%TD*%
%TA.AperFunction,Conductor*%
%ADD25C,0.199000*%
%TD*%
%TA.AperFunction,Conductor*%
%ADD26C,0.300000*%
%TD*%
%TA.AperFunction,Conductor*%
%ADD27C,0.200000*%
%TD*%
%TA.AperFunction,Conductor*%
%ADD28C,0.254000*%
%TD*%
%TA.AperFunction,Conductor*%
%ADD29C,0.100000*%
%TD*%
G04 APERTURE END LIST*
D10*
D11*
X177002200Y-166007200D02*
X177002200Y-198007200D01*
X285002200Y-198007200D01*
X285002200Y-166007200D01*
X177002200Y-166007200D01*
D10*
D11*
X10000000Y-10000000D02*
X10000000Y-200007200D01*
X287002200Y-200007200D01*
X287002200Y-10000000D01*
X10000000Y-10000000D01*
D10*
D11*
X12000000Y-12000000D02*
X12000000Y-198007200D01*
X285002200Y-198007200D01*
X285002200Y-12000000D01*
X12000000Y-12000000D01*
D10*
D11*
X60000000Y-12000000D02*
X60000000Y-10000000D01*
D10*
D11*
X110000000Y-12000000D02*
X110000000Y-10000000D01*
D10*
D11*
X160000000Y-12000000D02*
X160000000Y-10000000D01*
D10*
D11*
X210000000Y-12000000D02*
X210000000Y-10000000D01*
D10*
D11*
X260000000Y-12000000D02*
X260000000Y-10000000D01*
D10*
D11*
X36065476Y-11588095D02*
X35322619Y-11588095D01*
X35694047Y-11588095D02*
X35694047Y-10288095D01*
X35570238Y-10473809D01*
X35446428Y-10597619D01*
X35322619Y-10659523D01*
D10*
D11*
X85322619Y-10411904D02*
X85384523Y-10350000D01*
X85508333Y-10288095D01*
X85817857Y-10288095D01*
X85941666Y-10350000D01*
X86003571Y-10411904D01*
X86065476Y-10535714D01*
X86065476Y-10659523D01*
X86003571Y-10845238D01*
X85260714Y-11588095D01*
X86065476Y-11588095D01*
D10*
D11*
X135260714Y-10288095D02*
X136065476Y-10288095D01*
X135632142Y-10783333D01*
X135817857Y-10783333D01*
X135941666Y-10845238D01*
X136003571Y-10907142D01*
X136065476Y-11030952D01*
X136065476Y-11340476D01*
X136003571Y-11464285D01*
X135941666Y-11526190D01*
X135817857Y-11588095D01*
X135446428Y-11588095D01*
X135322619Y-11526190D01*
X135260714Y-11464285D01*
D10*
D11*
X185941666Y-10721428D02*
X185941666Y-11588095D01*
X185632142Y-10226190D02*
X185322619Y-11154761D01*
X186127380Y-11154761D01*
D10*
D11*
X236003571Y-10288095D02*
X235384523Y-10288095D01*
X235322619Y-10907142D01*
X235384523Y-10845238D01*
X235508333Y-10783333D01*
X235817857Y-10783333D01*
X235941666Y-10845238D01*
X236003571Y-10907142D01*
X236065476Y-11030952D01*
X236065476Y-11340476D01*
X236003571Y-11464285D01*
X235941666Y-11526190D01*
X235817857Y-11588095D01*
X235508333Y-11588095D01*
X235384523Y-11526190D01*
X235322619Y-11464285D01*
D10*
D11*
X285941666Y-10288095D02*
X285694047Y-10288095D01*
X285570238Y-10350000D01*
X285508333Y-10411904D01*
X285384523Y-10597619D01*
X285322619Y-10845238D01*
X285322619Y-11340476D01*
X285384523Y-11464285D01*
X285446428Y-11526190D01*
X285570238Y-11588095D01*
X285817857Y-11588095D01*
X285941666Y-11526190D01*
X286003571Y-11464285D01*
X286065476Y-11340476D01*
X286065476Y-11030952D01*
X286003571Y-10907142D01*
X285941666Y-10845238D01*
X285817857Y-10783333D01*
X285570238Y-10783333D01*
X285446428Y-10845238D01*
X285384523Y-10907142D01*
X285322619Y-11030952D01*
D10*
D11*
X60000000Y-198007200D02*
X60000000Y-200007200D01*
D10*
D11*
X110000000Y-198007200D02*
X110000000Y-200007200D01*
D10*
D11*
X160000000Y-198007200D02*
X160000000Y-200007200D01*
D10*
D11*
X210000000Y-198007200D02*
X210000000Y-200007200D01*
D10*
D11*
X260000000Y-198007200D02*
X260000000Y-200007200D01*
D10*
D11*
X36065476Y-199595295D02*
X35322619Y-199595295D01*
X35694047Y-199595295D02*
X35694047Y-198295295D01*
X35570238Y-198481009D01*
X35446428Y-198604819D01*
X35322619Y-198666723D01*
D10*
D11*
X85322619Y-198419104D02*
X85384523Y-198357200D01*
X85508333Y-198295295D01*
X85817857Y-198295295D01*
X85941666Y-198357200D01*
X86003571Y-198419104D01*
X86065476Y-198542914D01*
X86065476Y-198666723D01*
X86003571Y-198852438D01*
X85260714Y-199595295D01*
X86065476Y-199595295D01*
D10*
D11*
X135260714Y-198295295D02*
X136065476Y-198295295D01*
X135632142Y-198790533D01*
X135817857Y-198790533D01*
X135941666Y-198852438D01*
X136003571Y-198914342D01*
X136065476Y-199038152D01*
X136065476Y-199347676D01*
X136003571Y-199471485D01*
X135941666Y-199533390D01*
X135817857Y-199595295D01*
X135446428Y-199595295D01*
X135322619Y-199533390D01*
X135260714Y-199471485D01*
D10*
D11*
X185941666Y-198728628D02*
X185941666Y-199595295D01*
X185632142Y-198233390D02*
X185322619Y-199161961D01*
X186127380Y-199161961D01*
D10*
D11*
X236003571Y-198295295D02*
X235384523Y-198295295D01*
X235322619Y-198914342D01*
X235384523Y-198852438D01*
X235508333Y-198790533D01*
X235817857Y-198790533D01*
X235941666Y-198852438D01*
X236003571Y-198914342D01*
X236065476Y-199038152D01*
X236065476Y-199347676D01*
X236003571Y-199471485D01*
X235941666Y-199533390D01*
X235817857Y-199595295D01*
X235508333Y-199595295D01*
X235384523Y-199533390D01*
X235322619Y-199471485D01*
D10*
D11*
X285941666Y-198295295D02*
X285694047Y-198295295D01*
X285570238Y-198357200D01*
X285508333Y-198419104D01*
X285384523Y-198604819D01*
X285322619Y-198852438D01*
X285322619Y-199347676D01*
X285384523Y-199471485D01*
X285446428Y-199533390D01*
X285570238Y-199595295D01*
X285817857Y-199595295D01*
X285941666Y-199533390D01*
X286003571Y-199471485D01*
X286065476Y-199347676D01*
X286065476Y-199038152D01*
X286003571Y-198914342D01*
X285941666Y-198852438D01*
X285817857Y-198790533D01*
X285570238Y-198790533D01*
X285446428Y-198852438D01*
X285384523Y-198914342D01*
X285322619Y-199038152D01*
D10*
D11*
X10000000Y-60000000D02*
X12000000Y-60000000D01*
D10*
D11*
X10000000Y-110000000D02*
X12000000Y-110000000D01*
D10*
D11*
X10000000Y-160000000D02*
X12000000Y-160000000D01*
D10*
D11*
X10690476Y-35216666D02*
X11309523Y-35216666D01*
X10566666Y-35588095D02*
X11000000Y-34288095D01*
X11433333Y-35588095D01*
D10*
D11*
X11092857Y-84907142D02*
X11278571Y-84969047D01*
X11340476Y-85030952D01*
X11402380Y-85154761D01*
X11402380Y-85340476D01*
X11340476Y-85464285D01*
X11278571Y-85526190D01*
X11154761Y-85588095D01*
X10659523Y-85588095D01*
X10659523Y-84288095D01*
X11092857Y-84288095D01*
X11216666Y-84350000D01*
X11278571Y-84411904D01*
X11340476Y-84535714D01*
X11340476Y-84659523D01*
X11278571Y-84783333D01*
X11216666Y-84845238D01*
X11092857Y-84907142D01*
X10659523Y-84907142D01*
D10*
D11*
X11402380Y-135464285D02*
X11340476Y-135526190D01*
X11154761Y-135588095D01*
X11030952Y-135588095D01*
X10845238Y-135526190D01*
X10721428Y-135402380D01*
X10659523Y-135278571D01*
X10597619Y-135030952D01*
X10597619Y-134845238D01*
X10659523Y-134597619D01*
X10721428Y-134473809D01*
X10845238Y-134350000D01*
X11030952Y-134288095D01*
X11154761Y-134288095D01*
X11340476Y-134350000D01*
X11402380Y-134411904D01*
D10*
D11*
X10659523Y-185588095D02*
X10659523Y-184288095D01*
X10969047Y-184288095D01*
X11154761Y-184350000D01*
X11278571Y-184473809D01*
X11340476Y-184597619D01*
X11402380Y-184845238D01*
X11402380Y-185030952D01*
X11340476Y-185278571D01*
X11278571Y-185402380D01*
X11154761Y-185526190D01*
X10969047Y-185588095D01*
X10659523Y-185588095D01*
D10*
D11*
X287002200Y-60000000D02*
X285002200Y-60000000D01*
D10*
D11*
X287002200Y-110000000D02*
X285002200Y-110000000D01*
D10*
D11*
X287002200Y-160000000D02*
X285002200Y-160000000D01*
D10*
D11*
X285692676Y-35216666D02*
X286311723Y-35216666D01*
X285568866Y-35588095D02*
X286002200Y-34288095D01*
X286435533Y-35588095D01*
D10*
D11*
X286095057Y-84907142D02*
X286280771Y-84969047D01*
X286342676Y-85030952D01*
X286404580Y-85154761D01*
X286404580Y-85340476D01*
X286342676Y-85464285D01*
X286280771Y-85526190D01*
X286156961Y-85588095D01*
X285661723Y-85588095D01*
X285661723Y-84288095D01*
X286095057Y-84288095D01*
X286218866Y-84350000D01*
X286280771Y-84411904D01*
X286342676Y-84535714D01*
X286342676Y-84659523D01*
X286280771Y-84783333D01*
X286218866Y-84845238D01*
X286095057Y-84907142D01*
X285661723Y-84907142D01*
D10*
D11*
X286404580Y-135464285D02*
X286342676Y-135526190D01*
X286156961Y-135588095D01*
X286033152Y-135588095D01*
X285847438Y-135526190D01*
X285723628Y-135402380D01*
X285661723Y-135278571D01*
X285599819Y-135030952D01*
X285599819Y-134845238D01*
X285661723Y-134597619D01*
X285723628Y-134473809D01*
X285847438Y-134350000D01*
X286033152Y-134288095D01*
X286156961Y-134288095D01*
X286342676Y-134350000D01*
X286404580Y-134411904D01*
D10*
D11*
X285661723Y-185588095D02*
X285661723Y-184288095D01*
X285971247Y-184288095D01*
X286156961Y-184350000D01*
X286280771Y-184473809D01*
X286342676Y-184597619D01*
X286404580Y-184845238D01*
X286404580Y-185030952D01*
X286342676Y-185278571D01*
X286280771Y-185402380D01*
X286156961Y-185526190D01*
X285971247Y-185588095D01*
X285661723Y-185588095D01*
D10*
D11*
X200434342Y-193785771D02*
X200434342Y-192285771D01*
X200791485Y-192285771D01*
X201005771Y-192357200D01*
X201148628Y-192500057D01*
X201220057Y-192642914D01*
X201291485Y-192928628D01*
X201291485Y-193142914D01*
X201220057Y-193428628D01*
X201148628Y-193571485D01*
X201005771Y-193714342D01*
X200791485Y-193785771D01*
X200434342Y-193785771D01*
X202577200Y-193785771D02*
X202577200Y-193000057D01*
X202505771Y-192857200D01*
X202362914Y-192785771D01*
X202077200Y-192785771D01*
X201934342Y-192857200D01*
X202577200Y-193714342D02*
X202434342Y-193785771D01*
X202077200Y-193785771D01*
X201934342Y-193714342D01*
X201862914Y-193571485D01*
X201862914Y-193428628D01*
X201934342Y-193285771D01*
X202077200Y-193214342D01*
X202434342Y-193214342D01*
X202577200Y-193142914D01*
X203077200Y-192785771D02*
X203648628Y-192785771D01*
X203291485Y-192285771D02*
X203291485Y-193571485D01*
X203362914Y-193714342D01*
X203505771Y-193785771D01*
X203648628Y-193785771D01*
X204720057Y-193714342D02*
X204577200Y-193785771D01*
X204291485Y-193785771D01*
X204148628Y-193714342D01*
X204077200Y-193571485D01*
X204077200Y-193000057D01*
X204148628Y-192857200D01*
X204291485Y-192785771D01*
X204577200Y-192785771D01*
X204720057Y-192857200D01*
X204791485Y-193000057D01*
X204791485Y-193142914D01*
X204077200Y-193285771D01*
X205434342Y-193642914D02*
X205505771Y-193714342D01*
X205434342Y-193785771D01*
X205362914Y-193714342D01*
X205434342Y-193642914D01*
X205434342Y-193785771D01*
X205434342Y-192857200D02*
X205505771Y-192928628D01*
X205434342Y-193000057D01*
X205362914Y-192928628D01*
X205434342Y-192857200D01*
X205434342Y-193000057D01*
D10*
D11*
X177002200Y-194507200D02*
X285002200Y-194507200D01*
D10*
D11*
X178434342Y-196585771D02*
X178434342Y-195085771D01*
X179291485Y-196585771D02*
X178648628Y-195728628D01*
X179291485Y-195085771D02*
X178434342Y-195942914D01*
X179934342Y-196585771D02*
X179934342Y-195585771D01*
X179934342Y-195085771D02*
X179862914Y-195157200D01*
X179934342Y-195228628D01*
X180005771Y-195157200D01*
X179934342Y-195085771D01*
X179934342Y-195228628D01*
X181505771Y-196442914D02*
X181434342Y-196514342D01*
X181220057Y-196585771D01*
X181077200Y-196585771D01*
X180862914Y-196514342D01*
X180720057Y-196371485D01*
X180648628Y-196228628D01*
X180577200Y-195942914D01*
X180577200Y-195728628D01*
X180648628Y-195442914D01*
X180720057Y-195300057D01*
X180862914Y-195157200D01*
X181077200Y-195085771D01*
X181220057Y-195085771D01*
X181434342Y-195157200D01*
X181505771Y-195228628D01*
X182791485Y-196585771D02*
X182791485Y-195800057D01*
X182720057Y-195657200D01*
X182577200Y-195585771D01*
X182291485Y-195585771D01*
X182148628Y-195657200D01*
X182791485Y-196514342D02*
X182648628Y-196585771D01*
X182291485Y-196585771D01*
X182148628Y-196514342D01*
X182077200Y-196371485D01*
X182077200Y-196228628D01*
X182148628Y-196085771D01*
X182291485Y-196014342D01*
X182648628Y-196014342D01*
X182791485Y-195942914D01*
X184148628Y-196585771D02*
X184148628Y-195085771D01*
X184148628Y-196514342D02*
X184005771Y-196585771D01*
X183720057Y-196585771D01*
X183577200Y-196514342D01*
X183505771Y-196442914D01*
X183434342Y-196300057D01*
X183434342Y-195871485D01*
X183505771Y-195728628D01*
X183577200Y-195657200D01*
X183720057Y-195585771D01*
X184005771Y-195585771D01*
X184148628Y-195657200D01*
X186005771Y-195800057D02*
X186505771Y-195800057D01*
X186720057Y-196585771D02*
X186005771Y-196585771D01*
X186005771Y-195085771D01*
X186720057Y-195085771D01*
X187362914Y-196442914D02*
X187434342Y-196514342D01*
X187362914Y-196585771D01*
X187291485Y-196514342D01*
X187362914Y-196442914D01*
X187362914Y-196585771D01*
X188077200Y-196585771D02*
X188077200Y-195085771D01*
X188434342Y-195085771D01*
X188648628Y-195157200D01*
X188791485Y-195300057D01*
X188862914Y-195442914D01*
X188934342Y-195728628D01*
X188934342Y-195942914D01*
X188862914Y-196228628D01*
X188791485Y-196371485D01*
X188648628Y-196514342D01*
X188434342Y-196585771D01*
X188077200Y-196585771D01*
X189577200Y-196442914D02*
X189648628Y-196514342D01*
X189577200Y-196585771D01*
X189505771Y-196514342D01*
X189577200Y-196442914D01*
X189577200Y-196585771D01*
X190220057Y-196157200D02*
X190934342Y-196157200D01*
X190077200Y-196585771D02*
X190577200Y-195085771D01*
X191077200Y-196585771D01*
X191577200Y-196442914D02*
X191648628Y-196514342D01*
X191577200Y-196585771D01*
X191505771Y-196514342D01*
X191577200Y-196442914D01*
X191577200Y-196585771D01*
X194577200Y-196585771D02*
X194577200Y-195085771D01*
X194720057Y-196014342D02*
X195148628Y-196585771D01*
X195148628Y-195585771D02*
X194577200Y-196157200D01*
X195791485Y-196585771D02*
X195791485Y-195585771D01*
X195791485Y-195085771D02*
X195720057Y-195157200D01*
X195791485Y-195228628D01*
X195862914Y-195157200D01*
X195791485Y-195085771D01*
X195791485Y-195228628D01*
X197148628Y-196514342D02*
X197005771Y-196585771D01*
X196720057Y-196585771D01*
X196577200Y-196514342D01*
X196505771Y-196442914D01*
X196434342Y-196300057D01*
X196434342Y-195871485D01*
X196505771Y-195728628D01*
X196577200Y-195657200D01*
X196720057Y-195585771D01*
X197005771Y-195585771D01*
X197148628Y-195657200D01*
X198434342Y-196585771D02*
X198434342Y-195800057D01*
X198362914Y-195657200D01*
X198220057Y-195585771D01*
X197934342Y-195585771D01*
X197791485Y-195657200D01*
X198434342Y-196514342D02*
X198291485Y-196585771D01*
X197934342Y-196585771D01*
X197791485Y-196514342D01*
X197720057Y-196371485D01*
X197720057Y-196228628D01*
X197791485Y-196085771D01*
X197934342Y-196014342D01*
X198291485Y-196014342D01*
X198434342Y-195942914D01*
X199791485Y-196585771D02*
X199791485Y-195085771D01*
X199791485Y-196514342D02*
X199648628Y-196585771D01*
X199362914Y-196585771D01*
X199220057Y-196514342D01*
X199148628Y-196442914D01*
X199077200Y-196300057D01*
X199077200Y-195871485D01*
X199148628Y-195728628D01*
X199220057Y-195657200D01*
X199362914Y-195585771D01*
X199648628Y-195585771D01*
X199791485Y-195657200D01*
X202362914Y-195085771D02*
X201648628Y-195085771D01*
X201577200Y-195800057D01*
X201648628Y-195728628D01*
X201791485Y-195657200D01*
X202148628Y-195657200D01*
X202291485Y-195728628D01*
X202362914Y-195800057D01*
X202434342Y-195942914D01*
X202434342Y-196300057D01*
X202362914Y-196442914D01*
X202291485Y-196514342D01*
X202148628Y-196585771D01*
X201791485Y-196585771D01*
X201648628Y-196514342D01*
X201577200Y-196442914D01*
X203077200Y-196442914D02*
X203148628Y-196514342D01*
X203077200Y-196585771D01*
X203005771Y-196514342D01*
X203077200Y-196442914D01*
X203077200Y-196585771D01*
X204577200Y-196585771D02*
X203720057Y-196585771D01*
X204148628Y-196585771D02*
X204148628Y-195085771D01*
X204005771Y-195300057D01*
X203862914Y-195442914D01*
X203720057Y-195514342D01*
X205220057Y-196442914D02*
X205291485Y-196514342D01*
X205220057Y-196585771D01*
X205148628Y-196514342D01*
X205220057Y-196442914D01*
X205220057Y-196585771D01*
X206720057Y-196585771D02*
X205862914Y-196585771D01*
X206291485Y-196585771D02*
X206291485Y-195085771D01*
X206148628Y-195300057D01*
X206005771Y-195442914D01*
X205862914Y-195514342D01*
X207648628Y-195085771D02*
X207791485Y-195085771D01*
X207934342Y-195157200D01*
X208005771Y-195228628D01*
X208077200Y-195371485D01*
X208148628Y-195657200D01*
X208148628Y-196014342D01*
X208077200Y-196300057D01*
X208005771Y-196442914D01*
X207934342Y-196514342D01*
X207791485Y-196585771D01*
X207648628Y-196585771D01*
X207505771Y-196514342D01*
X207434342Y-196442914D01*
X207362914Y-196300057D01*
X207291485Y-196014342D01*
X207291485Y-195657200D01*
X207362914Y-195371485D01*
X207434342Y-195228628D01*
X207505771Y-195157200D01*
X207648628Y-195085771D01*
X208791485Y-196014342D02*
X209934342Y-196014342D01*
X210862914Y-195728628D02*
X210720057Y-195657200D01*
X210648628Y-195585771D01*
X210577200Y-195442914D01*
X210577200Y-195371485D01*
X210648628Y-195228628D01*
X210720057Y-195157200D01*
X210862914Y-195085771D01*
X211148628Y-195085771D01*
X211291485Y-195157200D01*
X211362914Y-195228628D01*
X211434342Y-195371485D01*
X211434342Y-195442914D01*
X211362914Y-195585771D01*
X211291485Y-195657200D01*
X211148628Y-195728628D01*
X210862914Y-195728628D01*
X210720057Y-195800057D01*
X210648628Y-195871485D01*
X210577200Y-196014342D01*
X210577200Y-196300057D01*
X210648628Y-196442914D01*
X210720057Y-196514342D01*
X210862914Y-196585771D01*
X211148628Y-196585771D01*
X211291485Y-196514342D01*
X211362914Y-196442914D01*
X211434342Y-196300057D01*
X211434342Y-196014342D01*
X211362914Y-195871485D01*
X211291485Y-195800057D01*
X211148628Y-195728628D01*
X212291485Y-195728628D02*
X212148628Y-195657200D01*
X212077200Y-195585771D01*
X212005771Y-195442914D01*
X212005771Y-195371485D01*
X212077200Y-195228628D01*
X212148628Y-195157200D01*
X212291485Y-195085771D01*
X212577200Y-195085771D01*
X212720057Y-195157200D01*
X212791485Y-195228628D01*
X212862914Y-195371485D01*
X212862914Y-195442914D01*
X212791485Y-195585771D01*
X212720057Y-195657200D01*
X212577200Y-195728628D01*
X212291485Y-195728628D01*
X212148628Y-195800057D01*
X212077200Y-195871485D01*
X212005771Y-196014342D01*
X212005771Y-196300057D01*
X212077200Y-196442914D01*
X212148628Y-196514342D01*
X212291485Y-196585771D01*
X212577200Y-196585771D01*
X212720057Y-196514342D01*
X212791485Y-196442914D01*
X212862914Y-196300057D01*
X212862914Y-196014342D01*
X212791485Y-195871485D01*
X212720057Y-195800057D01*
X212577200Y-195728628D01*
X214148628Y-196585771D02*
X214148628Y-195800057D01*
X214077200Y-195657200D01*
X213934342Y-195585771D01*
X213648628Y-195585771D01*
X213505771Y-195657200D01*
X214148628Y-196514342D02*
X214005771Y-196585771D01*
X213648628Y-196585771D01*
X213505771Y-196514342D01*
X213434342Y-196371485D01*
X213434342Y-196228628D01*
X213505771Y-196085771D01*
X213648628Y-196014342D01*
X214005771Y-196014342D01*
X214148628Y-195942914D01*
X215648628Y-196585771D02*
X214791485Y-196585771D01*
X215220057Y-196585771D02*
X215220057Y-195085771D01*
X215077200Y-195300057D01*
X214934342Y-195442914D01*
X214791485Y-195514342D01*
X216934342Y-196585771D02*
X216934342Y-195085771D01*
X216934342Y-196514342D02*
X216791485Y-196585771D01*
X216505771Y-196585771D01*
X216362914Y-196514342D01*
X216291485Y-196442914D01*
X216220057Y-196300057D01*
X216220057Y-195871485D01*
X216291485Y-195728628D01*
X216362914Y-195657200D01*
X216505771Y-195585771D01*
X216791485Y-195585771D01*
X216934342Y-195657200D01*
X218291485Y-195085771D02*
X218005771Y-195085771D01*
X217862914Y-195157200D01*
X217791485Y-195228628D01*
X217648628Y-195442914D01*
X217577200Y-195728628D01*
X217577200Y-196300057D01*
X217648628Y-196442914D01*
X217720057Y-196514342D01*
X217862914Y-196585771D01*
X218148628Y-196585771D01*
X218291485Y-196514342D01*
X218362914Y-196442914D01*
X218434342Y-196300057D01*
X218434342Y-195942914D01*
X218362914Y-195800057D01*
X218291485Y-195728628D01*
X218148628Y-195657200D01*
X217862914Y-195657200D01*
X217720057Y-195728628D01*
X217648628Y-195800057D01*
X217577200Y-195942914D01*
X219862914Y-196585771D02*
X219005771Y-196585771D01*
X219434342Y-196585771D02*
X219434342Y-195085771D01*
X219291485Y-195300057D01*
X219148628Y-195442914D01*
X219005771Y-195514342D01*
X221148628Y-196585771D02*
X221148628Y-195085771D01*
X221148628Y-196514342D02*
X221005771Y-196585771D01*
X220720057Y-196585771D01*
X220577200Y-196514342D01*
X220505771Y-196442914D01*
X220434342Y-196300057D01*
X220434342Y-195871485D01*
X220505771Y-195728628D01*
X220577200Y-195657200D01*
X220720057Y-195585771D01*
X221005771Y-195585771D01*
X221148628Y-195657200D01*
X222577200Y-195085771D02*
X221862914Y-195085771D01*
X221791485Y-195800057D01*
X221862914Y-195728628D01*
X222005771Y-195657200D01*
X222362914Y-195657200D01*
X222505771Y-195728628D01*
X222577200Y-195800057D01*
X222648628Y-195942914D01*
X222648628Y-196300057D01*
X222577200Y-196442914D01*
X222505771Y-196514342D01*
X222362914Y-196585771D01*
X222005771Y-196585771D01*
X221862914Y-196514342D01*
X221791485Y-196442914D01*
X223505771Y-195728628D02*
X223362914Y-195657200D01*
X223291485Y-195585771D01*
X223220057Y-195442914D01*
X223220057Y-195371485D01*
X223291485Y-195228628D01*
X223362914Y-195157200D01*
X223505771Y-195085771D01*
X223791485Y-195085771D01*
X223934342Y-195157200D01*
X224005771Y-195228628D01*
X224077200Y-195371485D01*
X224077200Y-195442914D01*
X224005771Y-195585771D01*
X223934342Y-195657200D01*
X223791485Y-195728628D01*
X223505771Y-195728628D01*
X223362914Y-195800057D01*
X223291485Y-195871485D01*
X223220057Y-196014342D01*
X223220057Y-196300057D01*
X223291485Y-196442914D01*
X223362914Y-196514342D01*
X223505771Y-196585771D01*
X223791485Y-196585771D01*
X223934342Y-196514342D01*
X224005771Y-196442914D01*
X224077200Y-196300057D01*
X224077200Y-196014342D01*
X224005771Y-195871485D01*
X223934342Y-195800057D01*
X223791485Y-195728628D01*
X224362914Y-194677200D02*
X225791485Y-194677200D01*
X224934342Y-195728628D02*
X224791485Y-195657200D01*
X224720057Y-195585771D01*
X224648628Y-195442914D01*
X224648628Y-195371485D01*
X224720057Y-195228628D01*
X224791485Y-195157200D01*
X224934342Y-195085771D01*
X225220057Y-195085771D01*
X225362914Y-195157200D01*
X225434342Y-195228628D01*
X225505771Y-195371485D01*
X225505771Y-195442914D01*
X225434342Y-195585771D01*
X225362914Y-195657200D01*
X225220057Y-195728628D01*
X224934342Y-195728628D01*
X224791485Y-195800057D01*
X224720057Y-195871485D01*
X224648628Y-196014342D01*
X224648628Y-196300057D01*
X224720057Y-196442914D01*
X224791485Y-196514342D01*
X224934342Y-196585771D01*
X225220057Y-196585771D01*
X225362914Y-196514342D01*
X225434342Y-196442914D01*
X225505771Y-196300057D01*
X225505771Y-196014342D01*
X225434342Y-195871485D01*
X225362914Y-195800057D01*
X225220057Y-195728628D01*
X225791485Y-194677200D02*
X227220057Y-194677200D01*
X226362914Y-195728628D02*
X226220057Y-195657200D01*
X226148628Y-195585771D01*
X226077199Y-195442914D01*
X226077199Y-195371485D01*
X226148628Y-195228628D01*
X226220057Y-195157200D01*
X226362914Y-195085771D01*
X226648628Y-195085771D01*
X226791485Y-195157200D01*
X226862914Y-195228628D01*
X226934342Y-195371485D01*
X226934342Y-195442914D01*
X226862914Y-195585771D01*
X226791485Y-195657200D01*
X226648628Y-195728628D01*
X226362914Y-195728628D01*
X226220057Y-195800057D01*
X226148628Y-195871485D01*
X226077199Y-196014342D01*
X226077199Y-196300057D01*
X226148628Y-196442914D01*
X226220057Y-196514342D01*
X226362914Y-196585771D01*
X226648628Y-196585771D01*
X226791485Y-196514342D01*
X226862914Y-196442914D01*
X226934342Y-196300057D01*
X226934342Y-196014342D01*
X226862914Y-195871485D01*
X226791485Y-195800057D01*
X226648628Y-195728628D01*
X228220057Y-195585771D02*
X228220057Y-196585771D01*
X227577199Y-195585771D02*
X227577199Y-196371485D01*
X227648628Y-196514342D01*
X227791485Y-196585771D01*
X228005771Y-196585771D01*
X228148628Y-196514342D01*
X228220057Y-196442914D01*
X228934342Y-196585771D02*
X228934342Y-195085771D01*
X228934342Y-195657200D02*
X229077199Y-195585771D01*
X229362914Y-195585771D01*
X229505771Y-195657200D01*
X229577199Y-195728628D01*
X229648628Y-195871485D01*
X229648628Y-196300057D01*
X229577199Y-196442914D01*
X229505771Y-196514342D01*
X229362914Y-196585771D01*
X229077199Y-196585771D01*
X228934342Y-196514342D01*
X230934342Y-195585771D02*
X230934342Y-196585771D01*
X230291485Y-195585771D02*
X230291485Y-196371485D01*
X230362914Y-196514342D01*
X230505771Y-196585771D01*
X230720057Y-196585771D01*
X230862914Y-196514342D01*
X230934342Y-196442914D01*
X231648628Y-195585771D02*
X231648628Y-196585771D01*
X231648628Y-195728628D02*
X231720057Y-195657200D01*
X231862914Y-195585771D01*
X232077199Y-195585771D01*
X232220057Y-195657200D01*
X232291485Y-195800057D01*
X232291485Y-196585771D01*
X232791485Y-195585771D02*
X233362914Y-195585771D01*
X233005771Y-195085771D02*
X233005771Y-196371485D01*
X233077199Y-196514342D01*
X233220057Y-196585771D01*
X233362914Y-196585771D01*
X234505771Y-195585771D02*
X234505771Y-196585771D01*
X233862914Y-195585771D02*
X233862914Y-196371485D01*
X233934342Y-196514342D01*
X234077200Y-196585771D01*
X234291485Y-196585771D01*
X234434342Y-196514342D01*
X234505771Y-196442914D01*
X236005771Y-196585771D02*
X235148628Y-196585771D01*
X235577200Y-196585771D02*
X235577200Y-195085771D01*
X235434342Y-195300057D01*
X235291485Y-195442914D01*
X235148628Y-195514342D01*
X236862914Y-195728628D02*
X236720057Y-195657200D01*
X236648628Y-195585771D01*
X236577199Y-195442914D01*
X236577199Y-195371485D01*
X236648628Y-195228628D01*
X236720057Y-195157200D01*
X236862914Y-195085771D01*
X237148628Y-195085771D01*
X237291485Y-195157200D01*
X237362914Y-195228628D01*
X237434342Y-195371485D01*
X237434342Y-195442914D01*
X237362914Y-195585771D01*
X237291485Y-195657200D01*
X237148628Y-195728628D01*
X236862914Y-195728628D01*
X236720057Y-195800057D01*
X236648628Y-195871485D01*
X236577199Y-196014342D01*
X236577199Y-196300057D01*
X236648628Y-196442914D01*
X236720057Y-196514342D01*
X236862914Y-196585771D01*
X237148628Y-196585771D01*
X237291485Y-196514342D01*
X237362914Y-196442914D01*
X237434342Y-196300057D01*
X237434342Y-196014342D01*
X237362914Y-195871485D01*
X237291485Y-195800057D01*
X237148628Y-195728628D01*
X238077199Y-196442914D02*
X238148628Y-196514342D01*
X238077199Y-196585771D01*
X238005771Y-196514342D01*
X238077199Y-196442914D01*
X238077199Y-196585771D01*
X239077199Y-195085771D02*
X239220057Y-195085771D01*
X239362914Y-195157200D01*
X239434342Y-195228628D01*
X239505771Y-195371485D01*
X239577199Y-195657200D01*
X239577199Y-196014342D01*
X239505771Y-196300057D01*
X239434342Y-196442914D01*
X239362914Y-196514342D01*
X239220057Y-196585771D01*
X239077199Y-196585771D01*
X238934342Y-196514342D01*
X238862914Y-196442914D01*
X238791485Y-196300057D01*
X238720057Y-196014342D01*
X238720057Y-195657200D01*
X238791485Y-195371485D01*
X238862914Y-195228628D01*
X238934342Y-195157200D01*
X239077199Y-195085771D01*
X240862914Y-195585771D02*
X240862914Y-196585771D01*
X240505771Y-195014342D02*
X240148628Y-196085771D01*
X241077199Y-196085771D01*
X241648628Y-196442914D02*
X241720057Y-196514342D01*
X241648628Y-196585771D01*
X241577199Y-196514342D01*
X241648628Y-196442914D01*
X241648628Y-196585771D01*
X243148628Y-196585771D02*
X242291485Y-196585771D01*
X242720057Y-196585771D02*
X242720057Y-195085771D01*
X242577199Y-195300057D01*
X242434342Y-195442914D01*
X242291485Y-195514342D01*
D10*
D11*
X177002200Y-191507200D02*
X285002200Y-191507200D01*
D10*
D12*
X264411485Y-193785771D02*
X263911485Y-193071485D01*
X263554342Y-193785771D02*
X263554342Y-192285771D01*
X264125771Y-192285771D01*
X264268628Y-192357200D01*
X264340057Y-192428628D01*
X264411485Y-192571485D01*
X264411485Y-192785771D01*
X264340057Y-192928628D01*
X264268628Y-193000057D01*
X264125771Y-193071485D01*
X263554342Y-193071485D01*
X265625771Y-193714342D02*
X265482914Y-193785771D01*
X265197200Y-193785771D01*
X265054342Y-193714342D01*
X264982914Y-193571485D01*
X264982914Y-193000057D01*
X265054342Y-192857200D01*
X265197200Y-192785771D01*
X265482914Y-192785771D01*
X265625771Y-192857200D01*
X265697200Y-193000057D01*
X265697200Y-193142914D01*
X264982914Y-193285771D01*
X266197200Y-192785771D02*
X266554342Y-193785771D01*
X266911485Y-192785771D01*
X267482914Y-193642914D02*
X267554342Y-193714342D01*
X267482914Y-193785771D01*
X267411485Y-193714342D01*
X267482914Y-193642914D01*
X267482914Y-193785771D01*
X267482914Y-192857200D02*
X267554342Y-192928628D01*
X267482914Y-193000057D01*
X267411485Y-192928628D01*
X267482914Y-192857200D01*
X267482914Y-193000057D01*
D10*
D11*
X178362914Y-193714342D02*
X178577200Y-193785771D01*
X178934342Y-193785771D01*
X179077200Y-193714342D01*
X179148628Y-193642914D01*
X179220057Y-193500057D01*
X179220057Y-193357200D01*
X179148628Y-193214342D01*
X179077200Y-193142914D01*
X178934342Y-193071485D01*
X178648628Y-193000057D01*
X178505771Y-192928628D01*
X178434342Y-192857200D01*
X178362914Y-192714342D01*
X178362914Y-192571485D01*
X178434342Y-192428628D01*
X178505771Y-192357200D01*
X178648628Y-192285771D01*
X179005771Y-192285771D01*
X179220057Y-192357200D01*
X179862914Y-193785771D02*
X179862914Y-192785771D01*
X179862914Y-192285771D02*
X179791485Y-192357200D01*
X179862914Y-192428628D01*
X179934342Y-192357200D01*
X179862914Y-192285771D01*
X179862914Y-192428628D01*
X180434342Y-192785771D02*
X181220057Y-192785771D01*
X180434342Y-193785771D01*
X181220057Y-193785771D01*
X182362914Y-193714342D02*
X182220057Y-193785771D01*
X181934342Y-193785771D01*
X181791485Y-193714342D01*
X181720057Y-193571485D01*
X181720057Y-193000057D01*
X181791485Y-192857200D01*
X181934342Y-192785771D01*
X182220057Y-192785771D01*
X182362914Y-192857200D01*
X182434342Y-193000057D01*
X182434342Y-193142914D01*
X181720057Y-193285771D01*
X183077200Y-193642914D02*
X183148628Y-193714342D01*
X183077200Y-193785771D01*
X183005771Y-193714342D01*
X183077200Y-193642914D01*
X183077200Y-193785771D01*
X183077200Y-192857200D02*
X183148628Y-192928628D01*
X183077200Y-193000057D01*
X183005771Y-192928628D01*
X183077200Y-192857200D01*
X183077200Y-193000057D01*
X184862914Y-193357200D02*
X185577200Y-193357200D01*
X184720057Y-193785771D02*
X185220057Y-192285771D01*
X185720057Y-193785771D01*
X186862914Y-192785771D02*
X186862914Y-193785771D01*
X186505771Y-192214342D02*
X186148628Y-193285771D01*
X187077200Y-193285771D01*
D10*
D11*
X263434342Y-196585771D02*
X263434342Y-195085771D01*
X264791485Y-196585771D02*
X264791485Y-195085771D01*
X264791485Y-196514342D02*
X264648628Y-196585771D01*
X264362914Y-196585771D01*
X264220057Y-196514342D01*
X264148628Y-196442914D01*
X264077200Y-196300057D01*
X264077200Y-195871485D01*
X264148628Y-195728628D01*
X264220057Y-195657200D01*
X264362914Y-195585771D01*
X264648628Y-195585771D01*
X264791485Y-195657200D01*
X265505771Y-196442914D02*
X265577200Y-196514342D01*
X265505771Y-196585771D01*
X265434342Y-196514342D01*
X265505771Y-196442914D01*
X265505771Y-196585771D01*
X265505771Y-195657200D02*
X265577200Y-195728628D01*
X265505771Y-195800057D01*
X265434342Y-195728628D01*
X265505771Y-195657200D01*
X265505771Y-195800057D01*
X268148628Y-196585771D02*
X267291485Y-196585771D01*
X267720057Y-196585771D02*
X267720057Y-195085771D01*
X267577200Y-195300057D01*
X267434342Y-195442914D01*
X267291485Y-195514342D01*
X269862914Y-195014342D02*
X268577200Y-196942914D01*
X271148628Y-196585771D02*
X270291485Y-196585771D01*
X270720057Y-196585771D02*
X270720057Y-195085771D01*
X270577200Y-195300057D01*
X270434342Y-195442914D01*
X270291485Y-195514342D01*
D10*
D11*
X177002200Y-187507200D02*
X285002200Y-187507200D01*
D10*
D13*
X178714580Y-188211961D02*
X179857438Y-188211961D01*
X179036009Y-190211961D02*
X179286009Y-188211961D01*
X180274104Y-190211961D02*
X180440771Y-188878628D01*
X180524104Y-188211961D02*
X180416961Y-188307200D01*
X180500295Y-188402438D01*
X180607438Y-188307200D01*
X180524104Y-188211961D01*
X180500295Y-188402438D01*
X181107438Y-188878628D02*
X181869342Y-188878628D01*
X181476485Y-188211961D02*
X181262200Y-189926247D01*
X181333628Y-190116723D01*
X181512200Y-190211961D01*
X181702676Y-190211961D01*
X182655057Y-190211961D02*
X182476485Y-190116723D01*
X182405057Y-189926247D01*
X182619342Y-188211961D01*
X184190771Y-190116723D02*
X183988390Y-190211961D01*
X183607438Y-190211961D01*
X183428866Y-190116723D01*
X183357438Y-189926247D01*
X183452676Y-189164342D01*
X183571723Y-188973866D01*
X183774104Y-188878628D01*
X184155057Y-188878628D01*
X184333628Y-188973866D01*
X184405057Y-189164342D01*
X184381247Y-189354819D01*
X183405057Y-189545295D01*
X185155057Y-190021485D02*
X185238390Y-190116723D01*
X185131247Y-190211961D01*
X185047914Y-190116723D01*
X185155057Y-190021485D01*
X185131247Y-190211961D01*
X185286009Y-188973866D02*
X185369342Y-189069104D01*
X185262200Y-189164342D01*
X185178866Y-189069104D01*
X185286009Y-188973866D01*
X185262200Y-189164342D01*
D10*
D11*
X178934342Y-185600057D02*
X178434342Y-185600057D01*
X178434342Y-186385771D02*
X178434342Y-184885771D01*
X179148628Y-184885771D01*
X179720057Y-186385771D02*
X179720057Y-185385771D01*
X179720057Y-184885771D02*
X179648628Y-184957200D01*
X179720057Y-185028628D01*
X179791485Y-184957200D01*
X179720057Y-184885771D01*
X179720057Y-185028628D01*
X180648628Y-186385771D02*
X180505771Y-186314342D01*
X180434342Y-186171485D01*
X180434342Y-184885771D01*
X181791485Y-186314342D02*
X181648628Y-186385771D01*
X181362914Y-186385771D01*
X181220057Y-186314342D01*
X181148628Y-186171485D01*
X181148628Y-185600057D01*
X181220057Y-185457200D01*
X181362914Y-185385771D01*
X181648628Y-185385771D01*
X181791485Y-185457200D01*
X181862914Y-185600057D01*
X181862914Y-185742914D01*
X181148628Y-185885771D01*
X182505771Y-186242914D02*
X182577200Y-186314342D01*
X182505771Y-186385771D01*
X182434342Y-186314342D01*
X182505771Y-186242914D01*
X182505771Y-186385771D01*
X182505771Y-185457200D02*
X182577200Y-185528628D01*
X182505771Y-185600057D01*
X182434342Y-185528628D01*
X182505771Y-185457200D01*
X182505771Y-185600057D01*
X184362914Y-186385771D02*
X184362914Y-184885771D01*
X184362914Y-185600057D02*
X185220057Y-185600057D01*
X185220057Y-186385771D02*
X185220057Y-184885771D01*
X185934342Y-186385771D02*
X185934342Y-184885771D01*
X186291485Y-184885771D01*
X186505771Y-184957200D01*
X186648628Y-185100057D01*
X186720057Y-185242914D01*
X186791485Y-185528628D01*
X186791485Y-185742914D01*
X186720057Y-186028628D01*
X186648628Y-186171485D01*
X186505771Y-186314342D01*
X186291485Y-186385771D01*
X185934342Y-186385771D01*
X187434342Y-186385771D02*
X187434342Y-184885771D01*
X187934342Y-185957200D01*
X188434342Y-184885771D01*
X188434342Y-186385771D01*
X189148628Y-186385771D02*
X189148628Y-184885771D01*
X189862914Y-185814342D02*
X191005771Y-185814342D01*
X191720057Y-184885771D02*
X191720057Y-186100057D01*
X191791485Y-186242914D01*
X191862914Y-186314342D01*
X192005771Y-186385771D01*
X192291485Y-186385771D01*
X192434342Y-186314342D01*
X192505771Y-186242914D01*
X192577200Y-186100057D01*
X192577200Y-184885771D01*
X193220057Y-186314342D02*
X193434342Y-186385771D01*
X193791485Y-186385771D01*
X193934342Y-186314342D01*
X194005771Y-186242914D01*
X194077200Y-186100057D01*
X194077200Y-185957200D01*
X194005771Y-185814342D01*
X193934342Y-185742914D01*
X193791485Y-185671485D01*
X193505771Y-185600057D01*
X193362914Y-185528628D01*
X193291485Y-185457200D01*
X193220057Y-185314342D01*
X193220057Y-185171485D01*
X193291485Y-185028628D01*
X193362914Y-184957200D01*
X193505771Y-184885771D01*
X193862914Y-184885771D01*
X194077200Y-184957200D01*
X195434342Y-186385771D02*
X194720057Y-186385771D01*
X194720057Y-184885771D01*
X196220057Y-184885771D02*
X196362914Y-184885771D01*
X196505771Y-184957200D01*
X196577200Y-185028628D01*
X196648628Y-185171485D01*
X196720057Y-185457200D01*
X196720057Y-185814342D01*
X196648628Y-186100057D01*
X196577200Y-186242914D01*
X196505771Y-186314342D01*
X196362914Y-186385771D01*
X196220057Y-186385771D01*
X196077200Y-186314342D01*
X196005771Y-186242914D01*
X195934342Y-186100057D01*
X195862914Y-185814342D01*
X195862914Y-185457200D01*
X195934342Y-185171485D01*
X196005771Y-185028628D01*
X196077200Y-184957200D01*
X196220057Y-184885771D01*
X197648628Y-184885771D02*
X197791485Y-184885771D01*
X197934342Y-184957200D01*
X198005771Y-185028628D01*
X198077200Y-185171485D01*
X198148628Y-185457200D01*
X198148628Y-185814342D01*
X198077200Y-186100057D01*
X198005771Y-186242914D01*
X197934342Y-186314342D01*
X197791485Y-186385771D01*
X197648628Y-186385771D01*
X197505771Y-186314342D01*
X197434342Y-186242914D01*
X197362914Y-186100057D01*
X197291485Y-185814342D01*
X197291485Y-185457200D01*
X197362914Y-185171485D01*
X197434342Y-185028628D01*
X197505771Y-184957200D01*
X197648628Y-184885771D01*
X198434342Y-186528628D02*
X199577200Y-186528628D01*
X199791485Y-184885771D02*
X200720057Y-184885771D01*
X200220057Y-185457200D01*
X200434342Y-185457200D01*
X200577200Y-185528628D01*
X200648628Y-185600057D01*
X200720057Y-185742914D01*
X200720057Y-186100057D01*
X200648628Y-186242914D01*
X200577200Y-186314342D01*
X200434342Y-186385771D01*
X200005771Y-186385771D01*
X199862914Y-186314342D01*
X199791485Y-186242914D01*
X201648628Y-184885771D02*
X201791485Y-184885771D01*
X201934342Y-184957200D01*
X202005771Y-185028628D01*
X202077200Y-185171485D01*
X202148628Y-185457200D01*
X202148628Y-185814342D01*
X202077200Y-186100057D01*
X202005771Y-186242914D01*
X201934342Y-186314342D01*
X201791485Y-186385771D01*
X201648628Y-186385771D01*
X201505771Y-186314342D01*
X201434342Y-186242914D01*
X201362914Y-186100057D01*
X201291485Y-185814342D01*
X201291485Y-185457200D01*
X201362914Y-185171485D01*
X201434342Y-185028628D01*
X201505771Y-184957200D01*
X201648628Y-184885771D01*
X203505771Y-186385771D02*
X202791485Y-186385771D01*
X202791485Y-184885771D01*
X204005771Y-185814342D02*
X205148628Y-185814342D01*
X205791485Y-185957200D02*
X206505771Y-185957200D01*
X205648628Y-186385771D02*
X206148628Y-184885771D01*
X206648628Y-186385771D01*
X207148628Y-186385771D02*
X207148628Y-184885771D01*
X207505771Y-184885771D01*
X207720057Y-184957200D01*
X207862914Y-185100057D01*
X207934342Y-185242914D01*
X208005771Y-185528628D01*
X208005771Y-185742914D01*
X207934342Y-186028628D01*
X207862914Y-186171485D01*
X207720057Y-186314342D01*
X207505771Y-186385771D01*
X207148628Y-186385771D01*
X208577200Y-185957200D02*
X209291485Y-185957200D01*
X208434342Y-186385771D02*
X208934342Y-184885771D01*
X209434342Y-186385771D01*
X209934342Y-186385771D02*
X209934342Y-184885771D01*
X210505771Y-184885771D01*
X210648628Y-184957200D01*
X210720057Y-185028628D01*
X210791485Y-185171485D01*
X210791485Y-185385771D01*
X210720057Y-185528628D01*
X210648628Y-185600057D01*
X210505771Y-185671485D01*
X209934342Y-185671485D01*
X211220057Y-184885771D02*
X212077200Y-184885771D01*
X211648628Y-186385771D02*
X211648628Y-184885771D01*
X212577200Y-185600057D02*
X213077200Y-185600057D01*
X213291485Y-186385771D02*
X212577200Y-186385771D01*
X212577200Y-184885771D01*
X213291485Y-184885771D01*
X214791485Y-186385771D02*
X214291485Y-185671485D01*
X213934342Y-186385771D02*
X213934342Y-184885771D01*
X214505771Y-184885771D01*
X214648628Y-184957200D01*
X214720057Y-185028628D01*
X214791485Y-185171485D01*
X214791485Y-185385771D01*
X214720057Y-185528628D01*
X214648628Y-185600057D01*
X214505771Y-185671485D01*
X213934342Y-185671485D01*
X215434342Y-186242914D02*
X215505771Y-186314342D01*
X215434342Y-186385771D01*
X215362914Y-186314342D01*
X215434342Y-186242914D01*
X215434342Y-186385771D01*
X216148628Y-186385771D02*
X216148628Y-184885771D01*
X216291485Y-185814342D02*
X216720057Y-186385771D01*
X216720057Y-185385771D02*
X216148628Y-185957200D01*
X217362914Y-186385771D02*
X217362914Y-185385771D01*
X217362914Y-184885771D02*
X217291485Y-184957200D01*
X217362914Y-185028628D01*
X217434342Y-184957200D01*
X217362914Y-184885771D01*
X217362914Y-185028628D01*
X218720057Y-186314342D02*
X218577200Y-186385771D01*
X218291485Y-186385771D01*
X218148628Y-186314342D01*
X218077200Y-186242914D01*
X218005771Y-186100057D01*
X218005771Y-185671485D01*
X218077200Y-185528628D01*
X218148628Y-185457200D01*
X218291485Y-185385771D01*
X218577200Y-185385771D01*
X218720057Y-185457200D01*
X220005771Y-186385771D02*
X220005771Y-185600057D01*
X219934342Y-185457200D01*
X219791485Y-185385771D01*
X219505771Y-185385771D01*
X219362914Y-185457200D01*
X220005771Y-186314342D02*
X219862914Y-186385771D01*
X219505771Y-186385771D01*
X219362914Y-186314342D01*
X219291485Y-186171485D01*
X219291485Y-186028628D01*
X219362914Y-185885771D01*
X219505771Y-185814342D01*
X219862914Y-185814342D01*
X220005771Y-185742914D01*
X221362914Y-186385771D02*
X221362914Y-184885771D01*
X221362914Y-186314342D02*
X221220057Y-186385771D01*
X220934342Y-186385771D01*
X220791485Y-186314342D01*
X220720057Y-186242914D01*
X220648628Y-186100057D01*
X220648628Y-185671485D01*
X220720057Y-185528628D01*
X220791485Y-185457200D01*
X220934342Y-185385771D01*
X221220057Y-185385771D01*
X221362914Y-185457200D01*
X221720057Y-186528628D02*
X222862914Y-186528628D01*
X223220057Y-185385771D02*
X223220057Y-186885771D01*
X223220057Y-185457200D02*
X223362914Y-185385771D01*
X223648628Y-185385771D01*
X223791485Y-185457200D01*
X223862914Y-185528628D01*
X223934342Y-185671485D01*
X223934342Y-186100057D01*
X223862914Y-186242914D01*
X223791485Y-186314342D01*
X223648628Y-186385771D01*
X223362914Y-186385771D01*
X223220057Y-186314342D01*
X225220057Y-186314342D02*
X225077200Y-186385771D01*
X224791485Y-186385771D01*
X224648628Y-186314342D01*
X224577200Y-186242914D01*
X224505771Y-186100057D01*
X224505771Y-185671485D01*
X224577200Y-185528628D01*
X224648628Y-185457200D01*
X224791485Y-185385771D01*
X225077200Y-185385771D01*
X225220057Y-185457200D01*
X225862914Y-186385771D02*
X225862914Y-184885771D01*
X225862914Y-185457200D02*
X226005771Y-185385771D01*
X226291485Y-185385771D01*
X226434342Y-185457200D01*
X226505771Y-185528628D01*
X226577200Y-185671485D01*
X226577200Y-186100057D01*
X226505771Y-186242914D01*
X226434342Y-186314342D01*
X226291485Y-186385771D01*
X226005771Y-186385771D01*
X225862914Y-186314342D01*
D10*
D11*
X177002200Y-181507200D02*
X285002200Y-181507200D01*
D10*
D11*
X178362914Y-183614342D02*
X178577200Y-183685771D01*
X178934342Y-183685771D01*
X179077200Y-183614342D01*
X179148628Y-183542914D01*
X179220057Y-183400057D01*
X179220057Y-183257200D01*
X179148628Y-183114342D01*
X179077200Y-183042914D01*
X178934342Y-182971485D01*
X178648628Y-182900057D01*
X178505771Y-182828628D01*
X178434342Y-182757200D01*
X178362914Y-182614342D01*
X178362914Y-182471485D01*
X178434342Y-182328628D01*
X178505771Y-182257200D01*
X178648628Y-182185771D01*
X179005771Y-182185771D01*
X179220057Y-182257200D01*
X179862914Y-183685771D02*
X179862914Y-182185771D01*
X180505771Y-183685771D02*
X180505771Y-182900057D01*
X180434342Y-182757200D01*
X180291485Y-182685771D01*
X180077200Y-182685771D01*
X179934342Y-182757200D01*
X179862914Y-182828628D01*
X181791485Y-183614342D02*
X181648628Y-183685771D01*
X181362914Y-183685771D01*
X181220057Y-183614342D01*
X181148628Y-183471485D01*
X181148628Y-182900057D01*
X181220057Y-182757200D01*
X181362914Y-182685771D01*
X181648628Y-182685771D01*
X181791485Y-182757200D01*
X181862914Y-182900057D01*
X181862914Y-183042914D01*
X181148628Y-183185771D01*
X183077200Y-183614342D02*
X182934342Y-183685771D01*
X182648628Y-183685771D01*
X182505771Y-183614342D01*
X182434342Y-183471485D01*
X182434342Y-182900057D01*
X182505771Y-182757200D01*
X182648628Y-182685771D01*
X182934342Y-182685771D01*
X183077200Y-182757200D01*
X183148628Y-182900057D01*
X183148628Y-183042914D01*
X182434342Y-183185771D01*
X183577200Y-182685771D02*
X184148628Y-182685771D01*
X183791485Y-182185771D02*
X183791485Y-183471485D01*
X183862914Y-183614342D01*
X184005771Y-183685771D01*
X184148628Y-183685771D01*
X184648628Y-183542914D02*
X184720057Y-183614342D01*
X184648628Y-183685771D01*
X184577200Y-183614342D01*
X184648628Y-183542914D01*
X184648628Y-183685771D01*
X184648628Y-182757200D02*
X184720057Y-182828628D01*
X184648628Y-182900057D01*
X184577200Y-182828628D01*
X184648628Y-182757200D01*
X184648628Y-182900057D01*
D10*
D11*
X197002200Y-191507200D02*
X197002200Y-194507200D01*
D10*
D11*
X261002200Y-191507200D02*
X261002200Y-198007200D01*
D14*
%TO.P,TP2,1*%
%TO.N,GND*%
X135826500Y-88734900D03*
%TD*%
%TO.P,TP1,1*%
%TO.N,/+12V*%
X138099800Y-88633300D03*
%TD*%
D15*
%TO.P,J1,S4*%
%TO.N,GND*%
X117870700Y-89788700D03*
D16*
%TO.P,J1,S3*%
X123830700Y-89788700D03*
D15*
%TO.P,J1,S2*%
X117870700Y-75288700D03*
D16*
%TO.P,J1,S1*%
X123830700Y-75288700D03*
D17*
%TO.P,J1,19*%
%TO.N,/HDMI1_HPD*%
X124590700Y-78038700D03*
%TO.P,J1,18*%
%TO.N,+5V*%
X124590700Y-78538700D03*
%TO.P,J1,17*%
%TO.N,GND*%
X124590700Y-79038700D03*
%TO.P,J1,16*%
%TO.N,/HDMI1_SDA*%
X124590700Y-79538700D03*
%TO.P,J1,15*%
%TO.N,/HDMI1_SCL*%
X124590700Y-80038700D03*
%TO.P,J1,14*%
%TO.N,Net-(J1-Pad14)*%
X124590700Y-80538700D03*
%TO.P,J1,13*%
%TO.N,/CEC*%
X124590700Y-81038700D03*
%TO.P,J1,12*%
%TO.N,/CKN*%
X124590700Y-81538700D03*
%TO.P,J1,11*%
%TO.N,GND*%
X124590700Y-82038700D03*
%TO.P,J1,10*%
%TO.N,/CKP*%
X124590700Y-82538700D03*
%TO.P,J1,9*%
%TO.N,/D0N*%
X124590700Y-83038700D03*
%TO.P,J1,8*%
%TO.N,GND*%
X124590700Y-83538700D03*
%TO.P,J1,7*%
%TO.N,/D0P*%
X124590700Y-84038700D03*
%TO.P,J1,6*%
%TO.N,/D1N*%
X124590700Y-84538700D03*
%TO.P,J1,5*%
%TO.N,GND*%
X124590700Y-85038700D03*
%TO.P,J1,4*%
%TO.N,/D1P*%
X124590700Y-85538700D03*
%TO.P,J1,3*%
%TO.N,/D2N*%
X124590700Y-86038700D03*
%TO.P,J1,2*%
%TO.N,GND*%
X124590700Y-86538700D03*
%TO.P,J1,1*%
%TO.N,/D2P*%
X124590700Y-87038700D03*
%TD*%
D18*
%TO.P,D3,10*%
%TO.N,/HDMI1_HPD*%
X131737100Y-77787500D03*
%TO.P,D3,9*%
%TO.N,/HDMI1_SDA*%
X131737100Y-78295500D03*
D19*
%TO.P,D3,8*%
%TO.N,GND*%
X131737100Y-78803500D03*
D18*
%TO.P,D3,7*%
%TO.N,/HDMI1_SCL*%
X131737100Y-79311500D03*
%TO.P,D3,6*%
%TO.N,/CEC*%
X131737100Y-79819500D03*
%TO.P,D3,5*%
X130822700Y-79819500D03*
%TO.P,D3,4*%
%TO.N,/HDMI1_SCL*%
X130822700Y-79311500D03*
D19*
%TO.P,D3,3*%
%TO.N,GND*%
X130822700Y-78803500D03*
D18*
%TO.P,D3,2*%
%TO.N,/HDMI1_SDA*%
X130822700Y-78295500D03*
%TO.P,D3,1*%
%TO.N,/HDMI1_HPD*%
X130822700Y-77787500D03*
%TD*%
%TO.P,D2,1*%
%TO.N,/CKN*%
X130822700Y-81521300D03*
%TO.P,D2,2*%
%TO.N,/CKP*%
X130822700Y-82029300D03*
D19*
%TO.P,D2,3*%
%TO.N,GND*%
X130822700Y-82537300D03*
D18*
%TO.P,D2,4*%
%TO.N,/D0N*%
X130822700Y-83045300D03*
%TO.P,D2,5*%
%TO.N,/D0P*%
X130822700Y-83553300D03*
%TO.P,D2,6*%
X131737100Y-83553300D03*
%TO.P,D2,7*%
%TO.N,/D0N*%
X131737100Y-83045300D03*
D19*
%TO.P,D2,8*%
%TO.N,GND*%
X131737100Y-82537300D03*
D18*
%TO.P,D2,9*%
%TO.N,/CKP*%
X131737100Y-82029300D03*
%TO.P,D2,10*%
%TO.N,/CKN*%
X131737100Y-81521300D03*
%TD*%
%TO.P,D1,1*%
%TO.N,/D1N*%
X130784600Y-85293200D03*
%TO.P,D1,2*%
%TO.N,/D1P*%
X130784600Y-85801200D03*
D19*
%TO.P,D1,3*%
%TO.N,GND*%
X130784600Y-86309200D03*
D18*
%TO.P,D1,4*%
%TO.N,/D2N*%
X130784600Y-86817200D03*
%TO.P,D1,5*%
%TO.N,/D2P*%
X130784600Y-87325200D03*
%TO.P,D1,6*%
X131699000Y-87325200D03*
%TO.P,D1,7*%
%TO.N,/D2N*%
X131699000Y-86817200D03*
D19*
%TO.P,D1,8*%
%TO.N,GND*%
X131699000Y-86309200D03*
D18*
%TO.P,D1,9*%
%TO.N,/D1P*%
X131699000Y-85801200D03*
%TO.P,D1,10*%
%TO.N,/D1N*%
X131699000Y-85293200D03*
%TD*%
D20*
%TO.P,J2,G9*%
%TO.N,GND*%
X142434600Y-90937300D03*
%TO.P,J2,G8*%
X142434600Y-74137300D03*
D21*
%TO.P,J2,G7*%
X143064600Y-87337300D03*
%TO.P,J2,G6*%
X143064600Y-85737300D03*
%TO.P,J2,G5*%
X143064600Y-84137300D03*
%TO.P,J2,G4*%
X143064600Y-82537300D03*
%TO.P,J2,G3*%
X143064600Y-80937300D03*
%TO.P,J2,G2*%
X143064600Y-79337300D03*
%TO.P,J2,G1*%
X143064600Y-77737300D03*
D22*
%TO.P,J2,30*%
%TO.N,/+12V*%
X140034600Y-88337300D03*
%TO.P,J2,29*%
X140034600Y-87937300D03*
%TO.P,J2,28*%
X140034600Y-87537300D03*
%TO.P,J2,27*%
X140034600Y-87137300D03*
%TO.P,J2,26*%
%TO.N,/RESET*%
X140034600Y-86737300D03*
%TO.P,J2,25*%
%TO.N,/UART_TX*%
X140034600Y-86337300D03*
%TO.P,J2,24*%
%TO.N,/UART_RX*%
X140034600Y-85937300D03*
%TO.P,J2,23*%
%TO.N,GND*%
X140034600Y-85537300D03*
%TO.P,J2,22*%
%TO.N,/USB_D+*%
X140034600Y-85137300D03*
%TO.P,J2,21*%
%TO.N,/USB_D-*%
X140034600Y-84737300D03*
%TO.P,J2,20*%
%TO.N,GND*%
X140034600Y-84337300D03*
%TO.P,J2,19*%
%TO.N,VBUS*%
X140034600Y-83937300D03*
%TO.P,J2,18*%
%TO.N,+5V*%
X140034600Y-83537300D03*
%TO.P,J2,17*%
%TO.N,/HDMI1_HPD*%
X140034600Y-83137300D03*
%TO.P,J2,16*%
%TO.N,/HDMI1_SDA*%
X140034600Y-82737300D03*
%TO.P,J2,15*%
%TO.N,/HDMI1_SCL*%
X140034600Y-82337300D03*
%TO.P,J2,14*%
%TO.N,Net-(J2-Pad14)*%
X140034600Y-81937300D03*
%TO.P,J2,13*%
%TO.N,GND*%
X140034600Y-81537300D03*
%TO.P,J2,12*%
%TO.N,/D2P*%
X140034600Y-81137300D03*
%TO.P,J2,11*%
%TO.N,/D2N*%
X140034600Y-80737300D03*
%TO.P,J2,10*%
%TO.N,GND*%
X140034600Y-80337300D03*
%TO.P,J2,9*%
%TO.N,/D1P*%
X140034600Y-79937300D03*
%TO.P,J2,8*%
%TO.N,/D1N*%
X140034600Y-79537300D03*
%TO.P,J2,7*%
%TO.N,GND*%
X140034600Y-79137300D03*
%TO.P,J2,6*%
%TO.N,/D0P*%
X140034600Y-78737300D03*
%TO.P,J2,5*%
%TO.N,/D0N*%
X140034600Y-78337300D03*
%TO.P,J2,4*%
%TO.N,GND*%
X140034600Y-77937300D03*
%TO.P,J2,3*%
%TO.N,/CKP*%
X140034600Y-77537300D03*
%TO.P,J2,2*%
%TO.N,/CKN*%
X140034600Y-77137300D03*
%TO.P,J2,1*%
%TO.N,GND*%
X140034600Y-76737300D03*
%TD*%
D23*
%TO.N,GND*%
X126288800Y-86525100D03*
X126288800Y-85039200D03*
X126326900Y-82054700D03*
X132588000Y-86309200D03*
X128028700Y-85750400D03*
X128028700Y-84328000D03*
X132600700Y-82537300D03*
X128028700Y-82753200D03*
X138531600Y-84632800D03*
X128041400Y-79387700D03*
X138569700Y-80327500D03*
X138544300Y-82296000D03*
X141643100Y-84328000D03*
X141655800Y-85763100D03*
X138544300Y-79133700D03*
X138544300Y-77927200D03*
X122199400Y-79044800D03*
X122212100Y-82029300D03*
X122262900Y-83527900D03*
X122288300Y-85039200D03*
X122262900Y-86550500D03*
X138569700Y-76733400D03*
X128016000Y-81191100D03*
X132600700Y-80391000D03*
X126314200Y-83540600D03*
X141668500Y-87337900D03*
X132600700Y-78803500D03*
X134581900Y-76733400D03*
%TO.N,/RESET*%
X133451600Y-88709500D03*
%TO.N,/UART_TX*%
X132181600Y-88747600D03*
%TO.N,/UART_RX*%
X130924300Y-88773000D03*
%TO.N,+5V*%
X127088900Y-78536800D03*
X137909300Y-83527900D03*
%TO.N,/HDMI1_HPD*%
X141998700Y-83400900D03*
%TO.N,/HDMI1_SDA*%
X141576400Y-82737300D03*
%TO.N,/HDMI1_SCL*%
X141195450Y-82089650D03*
%TO.N,/D2P*%
X141020800Y-81330800D03*
%TO.N,/D2N*%
X141020800Y-80746600D03*
%TO.N,/D1P*%
X141033500Y-80124300D03*
%TO.N,/D1N*%
X141046200Y-79540100D03*
%TO.N,/D0P*%
X141058900Y-78740000D03*
%TO.N,/D0N*%
X141058900Y-78117700D03*
%TO.N,/CKP*%
X141071600Y-77533500D03*
%TO.N,/CKN*%
X141084300Y-76911200D03*
%TD*%
D24*
%TO.N,GND*%
X131737100Y-82537300D02*
X130822700Y-82537300D01*
D25*
X138775800Y-80337300D02*
X138772900Y-80340200D01*
X140034600Y-80337300D02*
X138775800Y-80337300D01*
X138738200Y-84337300D02*
X138734800Y-84340700D01*
X141640300Y-85537300D02*
X141643100Y-85534500D01*
X141633800Y-84337300D02*
X141643100Y-84328000D01*
X140034600Y-84337300D02*
X141633800Y-84337300D01*
X141643100Y-84328000D02*
X141643100Y-85534500D01*
X138795700Y-77937300D02*
X138785600Y-77927200D01*
X140034600Y-77937300D02*
X138795700Y-77937300D01*
X129349500Y-78803500D02*
X128765300Y-79387700D01*
X130822700Y-78803500D02*
X129349500Y-78803500D01*
X131737100Y-78803500D02*
X130822700Y-78803500D01*
X129616200Y-82753200D02*
X129832100Y-82537300D01*
X128028700Y-82753200D02*
X129616200Y-82753200D01*
X129832100Y-82537300D02*
X130822700Y-82537300D01*
X132600700Y-82537300D02*
X131737100Y-82537300D01*
X130784600Y-86309200D02*
X129565400Y-86309200D01*
X128028700Y-85750400D02*
X128765300Y-85750400D01*
X128765300Y-85750400D02*
X128981200Y-85966300D01*
X129222500Y-85966300D02*
X129565400Y-86309200D01*
X128981200Y-85966300D02*
X129222500Y-85966300D01*
X132588000Y-86309200D02*
X131699000Y-86309200D01*
X131699000Y-86309200D02*
X130784600Y-86309200D01*
X126288300Y-85038700D02*
X126288800Y-85039200D01*
X124590700Y-85038700D02*
X126288300Y-85038700D01*
X126275200Y-86538700D02*
X126288800Y-86525100D01*
X124590700Y-86538700D02*
X126275200Y-86538700D01*
X126310900Y-82038700D02*
X126326900Y-82054700D01*
X124590700Y-82038700D02*
X126310900Y-82038700D01*
X122180100Y-79038700D02*
X122174000Y-79044800D01*
X124590700Y-79038700D02*
X122180100Y-79038700D01*
X122221500Y-82038700D02*
X122212100Y-82029300D01*
X124590700Y-82038700D02*
X122221500Y-82038700D01*
X122273700Y-83538700D02*
X122262900Y-83527900D01*
X124590700Y-83538700D02*
X122273700Y-83538700D01*
D26*
X122288800Y-85038700D02*
X122288300Y-85039200D01*
X124590700Y-85038700D02*
X122288800Y-85038700D01*
X122249300Y-86538700D02*
X122237500Y-86550500D01*
X124590700Y-86538700D02*
X122249300Y-86538700D01*
D25*
X138569700Y-80327500D02*
X132588000Y-86309200D01*
X137210800Y-77927200D02*
X132600700Y-82537300D01*
X138544300Y-77927200D02*
X137210800Y-77927200D01*
X139119400Y-79137300D02*
X138547900Y-79137300D01*
X138547900Y-79137300D02*
X138544300Y-79133700D01*
X139119400Y-79137300D02*
X138794700Y-79137300D01*
X140034600Y-79137300D02*
X139119400Y-79137300D01*
X138573600Y-76737300D02*
X138569700Y-76733400D01*
X140034600Y-76737300D02*
X138573600Y-76737300D01*
X137749658Y-79133700D02*
X138544300Y-79133700D01*
X128028700Y-84328000D02*
X132555358Y-84328000D01*
X132555358Y-84328000D02*
X137749658Y-79133700D01*
X136258300Y-76733400D02*
X132600700Y-80391000D01*
X138569700Y-76733400D02*
X136258300Y-76733400D01*
X132600700Y-80391000D02*
X130810000Y-80391000D01*
X130009900Y-81191100D02*
X128016000Y-81191100D01*
X130810000Y-80391000D02*
X130009900Y-81191100D01*
X126312300Y-83538700D02*
X126314200Y-83540600D01*
X124590700Y-83538700D02*
X126312300Y-83538700D01*
X139303000Y-81537300D02*
X138544300Y-82296000D01*
X140034600Y-81537300D02*
X139303000Y-81537300D01*
X138827100Y-84337300D02*
X138531600Y-84632800D01*
X140034600Y-84337300D02*
X138827100Y-84337300D01*
X140034600Y-85537300D02*
X139156700Y-85537300D01*
X138531600Y-84912200D02*
X138531600Y-84632800D01*
X139156700Y-85537300D02*
X138531600Y-84912200D01*
D27*
X141430000Y-85537300D02*
X141655800Y-85763100D01*
X140034600Y-85537300D02*
X141430000Y-85537300D01*
X128765300Y-79387700D02*
X128041400Y-79387700D01*
X131737100Y-78803500D02*
X132600700Y-78803500D01*
X132600700Y-78714600D02*
X132600700Y-78803500D01*
X134581900Y-76733400D02*
X132600700Y-78714600D01*
D25*
%TO.N,/RESET*%
X140034600Y-86737300D02*
X135804800Y-86737300D01*
D27*
X135423800Y-86737300D02*
X133451600Y-88709500D01*
X135804800Y-86737300D02*
X135423800Y-86737300D01*
D25*
%TO.N,/UART_TX*%
X132181600Y-88379300D02*
X132181600Y-88798400D01*
X132429250Y-88131650D02*
X132181600Y-88379300D01*
D27*
X134947500Y-86337300D02*
X133153150Y-88131650D01*
D25*
X133153150Y-88131650D02*
X132429250Y-88131650D01*
D27*
X135460900Y-86337300D02*
X134947500Y-86337300D01*
D25*
X140034600Y-86337300D02*
X135460900Y-86337300D01*
%TO.N,/UART_RX*%
X140034600Y-85937300D02*
X134839500Y-85937300D01*
X130924300Y-88265000D02*
X130924300Y-88773000D01*
D27*
X133007100Y-87782400D02*
X131406900Y-87782400D01*
X133178550Y-87610950D02*
X133007100Y-87782400D01*
X133178550Y-87598250D02*
X133178550Y-87610950D01*
D25*
X134839500Y-85937300D02*
X133178550Y-87598250D01*
X133178550Y-87598250D02*
X133064250Y-87712550D01*
X131406900Y-87782400D02*
X130924300Y-88265000D01*
D26*
%TO.N,+5V*%
X137918700Y-83537300D02*
X137909300Y-83527900D01*
D25*
X140034600Y-83537300D02*
X137918700Y-83537300D01*
D26*
X127087000Y-78538700D02*
X127088900Y-78536800D01*
X124590700Y-78538700D02*
X127087000Y-78538700D01*
D25*
%TO.N,/HDMI1_HPD*%
X126540000Y-78038700D02*
X124590700Y-78038700D01*
X126791200Y-77787500D02*
X126540000Y-78038700D01*
X130822700Y-77787500D02*
X126791200Y-77787500D01*
D24*
X130822700Y-77787500D02*
X131737100Y-77787500D01*
D27*
X135648700Y-75057000D02*
X134924800Y-75057000D01*
D25*
X131737100Y-77787500D02*
X132194300Y-77787500D01*
D27*
X134924800Y-75057000D02*
X132194300Y-77787500D01*
D25*
X135648700Y-75057000D02*
X141541500Y-75057000D01*
D27*
X141770100Y-75057000D02*
X141541500Y-75057000D01*
X140871500Y-83137300D02*
X141135100Y-83400900D01*
X140034600Y-83137300D02*
X140871500Y-83137300D01*
X142303500Y-83096100D02*
X142303500Y-75590400D01*
X141135100Y-83400900D02*
X141998700Y-83400900D01*
X141998700Y-83400900D02*
X142303500Y-83096100D01*
X142303500Y-75590400D02*
X141770100Y-75057000D01*
X141998700Y-83400900D02*
X141998700Y-83400900D01*
D25*
%TO.N,/HDMI1_SDA*%
X141366900Y-82737300D02*
X140034600Y-82737300D01*
X127115700Y-79538700D02*
X124590700Y-79538700D01*
X128358900Y-78295500D02*
X127115700Y-79538700D01*
X130822700Y-78295500D02*
X128358900Y-78295500D01*
D24*
X130822700Y-78295500D02*
X131737100Y-78295500D01*
D27*
X135166100Y-75336400D02*
X132207000Y-78295500D01*
X135877300Y-75336400D02*
X135166100Y-75336400D01*
D25*
X131737100Y-78295500D02*
X132207000Y-78295500D01*
D27*
X135877300Y-75336400D02*
X135712200Y-75336400D01*
X141576400Y-82737300D02*
X141366900Y-82737300D01*
X141956610Y-82357090D02*
X141576400Y-82737300D01*
X141541500Y-75336400D02*
X141956610Y-75751510D01*
X141956610Y-75751510D02*
X141956610Y-82357090D01*
X135877300Y-75336400D02*
X141541500Y-75336400D01*
X141576400Y-82737300D02*
X141576400Y-82737300D01*
D25*
%TO.N,/HDMI1_SCL*%
X127701800Y-80038700D02*
X124590700Y-80038700D01*
X130187700Y-79311500D02*
X130187700Y-79324200D01*
X130822700Y-79311500D02*
X130187700Y-79311500D01*
X129473200Y-80038700D02*
X127701800Y-80038700D01*
X130187700Y-79324200D02*
X129473200Y-80038700D01*
D24*
X130822700Y-79311500D02*
X131737100Y-79311500D01*
D25*
X132334000Y-79311500D02*
X131737100Y-79311500D01*
D27*
X131737100Y-79311500D02*
X132842000Y-79311500D01*
X136512300Y-75641200D02*
X141300200Y-75641200D01*
X132842000Y-79311500D02*
X136512300Y-75641200D01*
X141300200Y-75641200D02*
X141620900Y-75961900D01*
X140585800Y-82337300D02*
X140776300Y-82337300D01*
D25*
X140034600Y-82337300D02*
X140585800Y-82337300D01*
D27*
X141620900Y-81410200D02*
X141620900Y-81664200D01*
D25*
X140585800Y-82337300D02*
X140947800Y-82337300D01*
D27*
X141620900Y-81664200D02*
X141195450Y-82089650D01*
X141620900Y-75961900D02*
X141620900Y-81410200D01*
X141195450Y-82089650D02*
X140947800Y-82337300D01*
D24*
%TO.N,/D2P*%
X132378451Y-87198200D02*
X132780306Y-87198200D01*
X131699000Y-87325200D02*
X132251451Y-87325200D01*
X132251451Y-87325200D02*
X132378451Y-87198200D01*
X138914206Y-81064300D02*
X139136599Y-81064300D01*
X132780306Y-87198200D02*
X138914206Y-81064300D01*
X139136599Y-81064300D02*
X139209599Y-81137300D01*
X139209599Y-81137300D02*
X140034600Y-81137300D01*
X126913701Y-86665700D02*
X128904094Y-86665700D01*
X124590700Y-87038700D02*
X126540701Y-87038700D01*
X126540701Y-87038700D02*
X126913701Y-86665700D01*
X129436594Y-87198200D02*
X130105149Y-87198200D01*
X128904094Y-86665700D02*
X129436594Y-87198200D01*
X130105149Y-87198200D02*
X130232149Y-87325200D01*
X130232149Y-87325200D02*
X130784600Y-87325200D01*
X130784600Y-87325200D02*
X131699000Y-87325200D01*
X140827300Y-81137300D02*
X141020800Y-81330800D01*
X140034600Y-81137300D02*
X140827300Y-81137300D01*
%TO.N,/D2N*%
X132251451Y-86817200D02*
X132378451Y-86944200D01*
X131699000Y-86817200D02*
X132251451Y-86817200D01*
X132378451Y-86944200D02*
X132675094Y-86944200D01*
X139209599Y-80737300D02*
X140034600Y-80737300D01*
X139136599Y-80810300D02*
X139209599Y-80737300D01*
X132675094Y-86944200D02*
X138808994Y-80810300D01*
X138808994Y-80810300D02*
X139136599Y-80810300D01*
X126913701Y-86411700D02*
X129009306Y-86411700D01*
X124590700Y-86038700D02*
X126540701Y-86038700D01*
X126540701Y-86038700D02*
X126913701Y-86411700D01*
X130232149Y-86817200D02*
X130784600Y-86817200D01*
X130105149Y-86944200D02*
X130232149Y-86817200D01*
X129009306Y-86411700D02*
X129541806Y-86944200D01*
X129541806Y-86944200D02*
X130105149Y-86944200D01*
X130784600Y-86817200D02*
X131699000Y-86817200D01*
X141011500Y-80737300D02*
X141020800Y-80746600D01*
X140034600Y-80737300D02*
X141011500Y-80737300D01*
%TO.N,/D1P*%
X132092700Y-85674200D02*
X132399306Y-85674200D01*
X131699000Y-85801200D02*
X131965700Y-85801200D01*
X131965700Y-85801200D02*
X132092700Y-85674200D01*
X138209206Y-79864300D02*
X139136599Y-79864300D01*
X132399306Y-85674200D02*
X138209206Y-79864300D01*
X139209599Y-79937300D02*
X140034600Y-79937300D01*
X139136599Y-79864300D02*
X139209599Y-79937300D01*
X126913701Y-85165700D02*
X128877294Y-85165700D01*
X124590700Y-85538700D02*
X126540701Y-85538700D01*
X126540701Y-85538700D02*
X126913701Y-85165700D01*
X128877294Y-85165700D02*
X129385794Y-85674200D01*
X129385794Y-85674200D02*
X130105149Y-85674200D01*
X130105149Y-85674200D02*
X130232149Y-85801200D01*
X130232149Y-85801200D02*
X130784600Y-85801200D01*
X130784600Y-85801200D02*
X131699000Y-85801200D01*
X140846500Y-79937300D02*
X141033500Y-80124300D01*
X140034600Y-79937300D02*
X140846500Y-79937300D01*
%TO.N,/D1N*%
X131965700Y-85293200D02*
X132092700Y-85420200D01*
X131699000Y-85293200D02*
X131965700Y-85293200D01*
X132092700Y-85420200D02*
X132294094Y-85420200D01*
X139209599Y-79537300D02*
X140034600Y-79537300D01*
X139136599Y-79610300D02*
X139209599Y-79537300D01*
X138103994Y-79610300D02*
X139136599Y-79610300D01*
X132294094Y-85420200D02*
X138103994Y-79610300D01*
X126540701Y-84538700D02*
X126913701Y-84911700D01*
X126913701Y-84911700D02*
X128982506Y-84911700D01*
X124590700Y-84538700D02*
X126540701Y-84538700D01*
X130232149Y-85293200D02*
X130784600Y-85293200D01*
X130105149Y-85420200D02*
X130232149Y-85293200D01*
X128982506Y-84911700D02*
X129491006Y-85420200D01*
X129491006Y-85420200D02*
X130105149Y-85420200D01*
X130784600Y-85293200D02*
X131699000Y-85293200D01*
X141043400Y-79537300D02*
X141046200Y-79540100D01*
X140034600Y-79537300D02*
X141043400Y-79537300D01*
%TO.N,/D0P*%
X132289551Y-83553300D02*
X131737100Y-83553300D01*
X140034600Y-78737300D02*
X139209599Y-78737300D01*
X139209599Y-78737300D02*
X139136599Y-78664300D01*
X137607540Y-78664300D02*
X132845540Y-83426300D01*
X139136599Y-78664300D02*
X137607540Y-78664300D01*
X132845540Y-83426300D02*
X132416551Y-83426300D01*
X132416551Y-83426300D02*
X132289551Y-83553300D01*
X126913701Y-83665700D02*
X129061106Y-83665700D01*
X124590700Y-84038700D02*
X126540701Y-84038700D01*
X126540701Y-84038700D02*
X126913701Y-83665700D01*
X129300506Y-83426300D02*
X130143249Y-83426300D01*
X129061106Y-83665700D02*
X129300506Y-83426300D01*
X130143249Y-83426300D02*
X130270249Y-83553300D01*
X130270249Y-83553300D02*
X130822700Y-83553300D01*
X130822700Y-83553300D02*
X131737100Y-83553300D01*
X141056200Y-78737300D02*
X141058900Y-78740000D01*
X140034600Y-78737300D02*
X141056200Y-78737300D01*
%TO.N,/D0N*%
X132289551Y-83045300D02*
X131737100Y-83045300D01*
X140034600Y-78337300D02*
X139209599Y-78337300D01*
X139209599Y-78337300D02*
X139136599Y-78410300D01*
X132416551Y-83172300D02*
X132289551Y-83045300D01*
X139136599Y-78410300D02*
X137540500Y-78410300D01*
X137540500Y-78410300D02*
X132778500Y-83172300D01*
X132778500Y-83172300D02*
X132416551Y-83172300D01*
X126540701Y-83038700D02*
X126913701Y-83411700D01*
X126913701Y-83411700D02*
X128955894Y-83411700D01*
X124590700Y-83038700D02*
X126540701Y-83038700D01*
X130270249Y-83045300D02*
X130822700Y-83045300D01*
X130143249Y-83172300D02*
X130270249Y-83045300D01*
X128955894Y-83411700D02*
X129195294Y-83172300D01*
X129195294Y-83172300D02*
X130143249Y-83172300D01*
X130822700Y-83045300D02*
X131737100Y-83045300D01*
X140839300Y-78337300D02*
X141058900Y-78117700D01*
X140034600Y-78337300D02*
X140839300Y-78337300D01*
%TO.N,/CKP*%
X131737100Y-82029300D02*
X132289551Y-82029300D01*
X132416551Y-81902300D02*
X132577106Y-81902300D01*
X132289551Y-82029300D02*
X132416551Y-81902300D01*
X137015106Y-77464300D02*
X139136599Y-77464300D01*
X132577106Y-81902300D02*
X137015106Y-77464300D01*
X139136599Y-77464300D02*
X139209599Y-77537300D01*
X139209599Y-77537300D02*
X140034600Y-77537300D01*
X126913701Y-82165700D02*
X129405406Y-82165700D01*
X124590700Y-82538700D02*
X126540701Y-82538700D01*
X126540701Y-82538700D02*
X126913701Y-82165700D01*
X129405406Y-82165700D02*
X129668806Y-81902300D01*
X129668806Y-81902300D02*
X130143249Y-81902300D01*
X130143249Y-81902300D02*
X130270249Y-82029300D01*
X130270249Y-82029300D02*
X130822700Y-82029300D01*
X130822700Y-82029300D02*
X131737100Y-82029300D01*
X141067800Y-77537300D02*
X141071600Y-77533500D01*
X140034600Y-77537300D02*
X141067800Y-77537300D01*
%TO.N,/CKN*%
X132289551Y-81521300D02*
X132416551Y-81648300D01*
X131737100Y-81521300D02*
X132289551Y-81521300D01*
X132416551Y-81648300D02*
X132471894Y-81648300D01*
X139209599Y-77137300D02*
X140034600Y-77137300D01*
X139136599Y-77210300D02*
X139209599Y-77137300D01*
X132471894Y-81648300D02*
X136909894Y-77210300D01*
X136909894Y-77210300D02*
X139136599Y-77210300D01*
X124590700Y-81538700D02*
X126540701Y-81538700D01*
X126913701Y-81911700D02*
X129300194Y-81911700D01*
X126540701Y-81538700D02*
X126913701Y-81911700D01*
X130270249Y-81521300D02*
X130822700Y-81521300D01*
X130143249Y-81648300D02*
X130270249Y-81521300D01*
X129563594Y-81648300D02*
X130143249Y-81648300D01*
X129300194Y-81911700D02*
X129563594Y-81648300D01*
X130822700Y-81521300D02*
X131737100Y-81521300D01*
X140858200Y-77137300D02*
X141084300Y-76911200D01*
X140034600Y-77137300D02*
X140858200Y-77137300D01*
D25*
%TO.N,/CEC*%
X126161800Y-81038700D02*
X124590700Y-81038700D01*
X130352800Y-79819500D02*
X129616200Y-80556100D01*
X126644400Y-80556100D02*
X126161800Y-81038700D01*
X129616200Y-80556100D02*
X126644400Y-80556100D01*
X130822700Y-79819500D02*
X130352800Y-79819500D01*
D24*
X130822700Y-79819500D02*
X131737100Y-79819500D01*
D25*
%TO.N,/+12V*%
X140034600Y-87137300D02*
X140034600Y-87537300D01*
X140034600Y-87537300D02*
X140034600Y-87937300D01*
X140034600Y-87937300D02*
X140034600Y-88337300D01*
X140034600Y-88337300D02*
X139157800Y-88337300D01*
X139159100Y-87137300D02*
X140034600Y-87137300D01*
X139157800Y-87138600D02*
X139159100Y-87137300D01*
X139221200Y-87537300D02*
X139157800Y-87600700D01*
X140034600Y-87537300D02*
X139221200Y-87537300D01*
X139157800Y-87600700D02*
X139157800Y-87138600D01*
X139219900Y-87937300D02*
X139157800Y-87875200D01*
X139157800Y-88337300D02*
X139157800Y-87875200D01*
X139157800Y-87875200D02*
X139157800Y-87600700D01*
X139461200Y-87937300D02*
X138795800Y-87937300D01*
X138795800Y-87937300D02*
X138099800Y-88633300D01*
X139461200Y-87937300D02*
X139219900Y-87937300D01*
X140034600Y-87937300D02*
X139461200Y-87937300D01*
X139157800Y-87138600D02*
X138814900Y-87138600D01*
X138814900Y-87138600D02*
X138795800Y-87157700D01*
X138865600Y-87537300D02*
X138795800Y-87607100D01*
X139221200Y-87537300D02*
X138865600Y-87537300D01*
X138795800Y-87157700D02*
X138795800Y-87607100D01*
X138795800Y-87607100D02*
X138795800Y-87937300D01*
%TD*%
D28*
%TO.N,GND*%
X144094967Y-71805135D02*
X144106934Y-93345400D01*
X113753500Y-93345400D01*
X113753500Y-91337300D01*
X141021528Y-91337300D01*
X141033788Y-91461782D01*
X141070098Y-91581480D01*
X141129063Y-91691794D01*
X141208415Y-91788485D01*
X141305106Y-91867837D01*
X141415420Y-91926802D01*
X141535118Y-91963112D01*
X141659600Y-91975372D01*
X142148850Y-91972300D01*
X142307600Y-91813550D01*
X142307600Y-91064300D01*
X142561600Y-91064300D01*
X142561600Y-91813550D01*
X142720350Y-91972300D01*
X143209600Y-91975372D01*
X143334082Y-91963112D01*
X143453780Y-91926802D01*
X143564094Y-91867837D01*
X143660785Y-91788485D01*
X143740137Y-91691794D01*
X143799102Y-91581480D01*
X143835412Y-91461782D01*
X143847672Y-91337300D01*
X143844600Y-91223050D01*
X143685850Y-91064300D01*
X142561600Y-91064300D01*
X142307600Y-91064300D01*
X141183350Y-91064300D01*
X141024600Y-91223050D01*
X141021528Y-91337300D01*
X113753500Y-91337300D01*
X113753500Y-90129885D01*
X115778382Y-90129885D01*
X115792527Y-90201384D01*
X115898558Y-90452568D01*
X116051555Y-90678240D01*
X116245639Y-90869728D01*
X116473351Y-91019672D01*
X116725940Y-91122311D01*
X116993700Y-91173700D01*
X117743700Y-91173700D01*
X117743700Y-89915700D01*
X117997700Y-89915700D01*
X117997700Y-91173700D01*
X118747700Y-91173700D01*
X119015460Y-91122311D01*
X119268049Y-91019672D01*
X119495761Y-90869728D01*
X119689845Y-90678240D01*
X119842842Y-90452568D01*
X119948873Y-90201384D01*
X119959911Y-90145590D01*
X121539224Y-90145590D01*
X121560137Y-90239653D01*
X121675409Y-90508126D01*
X121840843Y-90748952D01*
X122050081Y-90952876D01*
X122295082Y-91112061D01*
X122566431Y-91220390D01*
X122853700Y-91273700D01*
X123703700Y-91273700D01*
X123703700Y-89915700D01*
X123957700Y-89915700D01*
X123957700Y-91273700D01*
X124807700Y-91273700D01*
X125094969Y-91220390D01*
X125366318Y-91112061D01*
X125611319Y-90952876D01*
X125820557Y-90748952D01*
X125965950Y-90537300D01*
X141021528Y-90537300D01*
X141024600Y-90651550D01*
X141183350Y-90810300D01*
X142307600Y-90810300D01*
X142307600Y-90061050D01*
X142561600Y-90061050D01*
X142561600Y-90810300D01*
X143685850Y-90810300D01*
X143844600Y-90651550D01*
X143847672Y-90537300D01*
X143835412Y-90412818D01*
X143799102Y-90293120D01*
X143740137Y-90182806D01*
X143660785Y-90086115D01*
X143564094Y-90006763D01*
X143453780Y-89947798D01*
X143334082Y-89911488D01*
X143209600Y-89899228D01*
X142720350Y-89902300D01*
X142561600Y-90061050D01*
X142307600Y-90061050D01*
X142148850Y-89902300D01*
X141659600Y-89899228D01*
X141535118Y-89911488D01*
X141415420Y-89947798D01*
X141305106Y-90006763D01*
X141208415Y-90086115D01*
X141129063Y-90182806D01*
X141070098Y-90293120D01*
X141033788Y-90412818D01*
X141021528Y-90537300D01*
X125965950Y-90537300D01*
X125985991Y-90508126D01*
X126101263Y-90239653D01*
X126122176Y-90145590D01*
X126000855Y-89915700D01*
X123957700Y-89915700D01*
X123703700Y-89915700D01*
X121660545Y-89915700D01*
X121539224Y-90145590D01*
X119959911Y-90145590D01*
X119963018Y-90129885D01*
X119840356Y-89915700D01*
X117997700Y-89915700D01*
X117743700Y-89915700D01*
X115901044Y-89915700D01*
X115778382Y-90129885D01*
X113753500Y-90129885D01*
X113753500Y-89691893D01*
X135049112Y-89691893D01*
X135114637Y-89930760D01*
X135361616Y-90046660D01*
X135626460Y-90112150D01*
X135898992Y-90124712D01*
X136168738Y-90083865D01*
X136425332Y-89991177D01*
X136538363Y-89930760D01*
X136603888Y-89691893D01*
X135826500Y-88914505D01*
X135049112Y-89691893D01*
X113753500Y-89691893D01*
X113753500Y-89447515D01*
X115778382Y-89447515D01*
X115901044Y-89661700D01*
X117743700Y-89661700D01*
X117743700Y-88403700D01*
X117997700Y-88403700D01*
X117997700Y-89661700D01*
X119840356Y-89661700D01*
X119963018Y-89447515D01*
X119959912Y-89431810D01*
X121539224Y-89431810D01*
X121660545Y-89661700D01*
X123703700Y-89661700D01*
X123703700Y-88303700D01*
X123957700Y-88303700D01*
X123957700Y-89661700D01*
X126000855Y-89661700D01*
X126122176Y-89431810D01*
X126101263Y-89337747D01*
X125985991Y-89069274D01*
X125820557Y-88828448D01*
X125611319Y-88624524D01*
X125366318Y-88465339D01*
X125094969Y-88357010D01*
X124807700Y-88303700D01*
X123957700Y-88303700D01*
X123703700Y-88303700D01*
X122853700Y-88303700D01*
X122566431Y-88357010D01*
X122295082Y-88465339D01*
X122050081Y-88624524D01*
X121840843Y-88828448D01*
X121675409Y-89069274D01*
X121560137Y-89337747D01*
X121539224Y-89431810D01*
X119959912Y-89431810D01*
X119948873Y-89376016D01*
X119842842Y-89124832D01*
X119689845Y-88899160D01*
X119495761Y-88707672D01*
X119268049Y-88557728D01*
X119015460Y-88455089D01*
X118747700Y-88403700D01*
X117997700Y-88403700D01*
X117743700Y-88403700D01*
X116993700Y-88403700D01*
X116725940Y-88455089D01*
X116473351Y-88557728D01*
X116245639Y-88707672D01*
X116051555Y-88899160D01*
X115898558Y-89124832D01*
X115792527Y-89376016D01*
X115778382Y-89447515D01*
X113753500Y-89447515D01*
X113753500Y-77888700D01*
X122652628Y-77888700D01*
X122652628Y-78188700D01*
X122662477Y-78288700D01*
X122652628Y-78388700D01*
X122652628Y-78688700D01*
X122662684Y-78790808D01*
X122655700Y-78856950D01*
X122687947Y-78889197D01*
X122701198Y-78932880D01*
X122757761Y-79038700D01*
X122701198Y-79144520D01*
X122687947Y-79188203D01*
X122655700Y-79220450D01*
X122662684Y-79286592D01*
X122652628Y-79388700D01*
X122652628Y-79688700D01*
X122662477Y-79788700D01*
X122652628Y-79888700D01*
X122652628Y-80188700D01*
X122662477Y-80288700D01*
X122652628Y-80388700D01*
X122652628Y-80688700D01*
X122662477Y-80788700D01*
X122652628Y-80888700D01*
X122652628Y-81188700D01*
X122662477Y-81288700D01*
X122652628Y-81388700D01*
X122652628Y-81688700D01*
X122662684Y-81790808D01*
X122655700Y-81856950D01*
X122687947Y-81889197D01*
X122701198Y-81932880D01*
X122757761Y-82038700D01*
X122701198Y-82144520D01*
X122687947Y-82188203D01*
X122655700Y-82220450D01*
X122662684Y-82286592D01*
X122652628Y-82388700D01*
X122652628Y-82688700D01*
X122662477Y-82788700D01*
X122652628Y-82888700D01*
X122652628Y-83188700D01*
X122662684Y-83290808D01*
X122655700Y-83356950D01*
X122687947Y-83389197D01*
X122701198Y-83432880D01*
X122757761Y-83538700D01*
X122701198Y-83644520D01*
X122687947Y-83688203D01*
X122655700Y-83720450D01*
X122662684Y-83786592D01*
X122652628Y-83888700D01*
X122652628Y-84188700D01*
X122662477Y-84288700D01*
X122652628Y-84388700D01*
X122652628Y-84688700D01*
X122662684Y-84790808D01*
X122655700Y-84856950D01*
X122687947Y-84889197D01*
X122701198Y-84932880D01*
X122757761Y-85038700D01*
X122701198Y-85144520D01*
X122687947Y-85188203D01*
X122655700Y-85220450D01*
X122662684Y-85286592D01*
X122652628Y-85388700D01*
X122652628Y-85688700D01*
X122662477Y-85788700D01*
X122652628Y-85888700D01*
X122652628Y-86188700D01*
X122662684Y-86290808D01*
X122655700Y-86356950D01*
X122687947Y-86389197D01*
X122701198Y-86432880D01*
X122757761Y-86538700D01*
X122701198Y-86644520D01*
X122687947Y-86688203D01*
X122655700Y-86720450D01*
X122662684Y-86786592D01*
X122652628Y-86888700D01*
X122652628Y-87188700D01*
X122664888Y-87313182D01*
X122701198Y-87432880D01*
X122760163Y-87543194D01*
X122839515Y-87639885D01*
X122936206Y-87719237D01*
X123046520Y-87778202D01*
X123166218Y-87814512D01*
X123290700Y-87826772D01*
X125890700Y-87826772D01*
X126015182Y-87814512D01*
X126134880Y-87778202D01*
X126211588Y-87737200D01*
X126506403Y-87737200D01*
X126540701Y-87740578D01*
X126574999Y-87737200D01*
X126575010Y-87737200D01*
X126677631Y-87727093D01*
X126809298Y-87687152D01*
X126930644Y-87622291D01*
X127037004Y-87535003D01*
X127058876Y-87508352D01*
X127203028Y-87364200D01*
X128614767Y-87364200D01*
X128918423Y-87667857D01*
X128940291Y-87694503D01*
X128966937Y-87716371D01*
X128966940Y-87716374D01*
X129046650Y-87781791D01*
X129107867Y-87814512D01*
X129167997Y-87846652D01*
X129299664Y-87886593D01*
X129402285Y-87896700D01*
X129402296Y-87896700D01*
X129436594Y-87900078D01*
X129470892Y-87896700D01*
X129827473Y-87896700D01*
X129842206Y-87908791D01*
X129963552Y-87973652D01*
X130095219Y-88013593D01*
X130195868Y-88023506D01*
X130227130Y-88032989D01*
X130200428Y-88121014D01*
X130189800Y-88228926D01*
X130189800Y-88228935D01*
X130186248Y-88265000D01*
X130187932Y-88282095D01*
X130140023Y-88353795D01*
X130073310Y-88514855D01*
X130039300Y-88685835D01*
X130039300Y-88860165D01*
X130073310Y-89031145D01*
X130140023Y-89192205D01*
X130236876Y-89337155D01*
X130360145Y-89460424D01*
X130505095Y-89557277D01*
X130666155Y-89623990D01*
X130837135Y-89658000D01*
X131011465Y-89658000D01*
X131182445Y-89623990D01*
X131343505Y-89557277D01*
X131488455Y-89460424D01*
X131565650Y-89383229D01*
X131617445Y-89435024D01*
X131762395Y-89531877D01*
X131923455Y-89598590D01*
X132094435Y-89632600D01*
X132268765Y-89632600D01*
X132439745Y-89598590D01*
X132600805Y-89531877D01*
X132745755Y-89435024D01*
X132835650Y-89345129D01*
X132887445Y-89396924D01*
X133032395Y-89493777D01*
X133193455Y-89560490D01*
X133364435Y-89594500D01*
X133538765Y-89594500D01*
X133709745Y-89560490D01*
X133870805Y-89493777D01*
X134015755Y-89396924D01*
X134139024Y-89273655D01*
X134235877Y-89128705D01*
X134302590Y-88967645D01*
X134319894Y-88880652D01*
X134438792Y-88761755D01*
X134436688Y-88807392D01*
X134477535Y-89077138D01*
X134570223Y-89333732D01*
X134630640Y-89446763D01*
X134869507Y-89512288D01*
X135646895Y-88734900D01*
X135632753Y-88720758D01*
X135812358Y-88541153D01*
X135826500Y-88555295D01*
X136603888Y-87777907D01*
X136538363Y-87539040D01*
X136395077Y-87471800D01*
X137345174Y-87471800D01*
X137216914Y-87557501D01*
X137024001Y-87750414D01*
X136872429Y-87977257D01*
X136870699Y-87981434D01*
X136783493Y-87957512D01*
X136006105Y-88734900D01*
X136783493Y-89512288D01*
X136984545Y-89457136D01*
X137024001Y-89516186D01*
X137216914Y-89709099D01*
X137443757Y-89860671D01*
X137695811Y-89965075D01*
X137963389Y-90018300D01*
X138236211Y-90018300D01*
X138503789Y-89965075D01*
X138755843Y-89860671D01*
X138982686Y-89709099D01*
X139175599Y-89516186D01*
X139327171Y-89289343D01*
X139417280Y-89071800D01*
X139448332Y-89071800D01*
X139484600Y-89075372D01*
X140584600Y-89075372D01*
X140709082Y-89063112D01*
X140828780Y-89026802D01*
X140939094Y-88967837D01*
X141035785Y-88888485D01*
X141115137Y-88791794D01*
X141174102Y-88681480D01*
X141210412Y-88561782D01*
X141222672Y-88437300D01*
X141222672Y-88237300D01*
X141212823Y-88137300D01*
X141222672Y-88037300D01*
X141222672Y-87837300D01*
X141212823Y-87737300D01*
X141222672Y-87637300D01*
X141222672Y-87619050D01*
X142129600Y-87619050D01*
X142142194Y-87727824D01*
X142181568Y-87846549D01*
X142243348Y-87955312D01*
X142325159Y-88049931D01*
X142423858Y-88126773D01*
X142535651Y-88182882D01*
X142656243Y-88216104D01*
X142778850Y-88222300D01*
X142937600Y-88063550D01*
X142937600Y-87460300D01*
X143191600Y-87460300D01*
X143191600Y-88063550D01*
X143350350Y-88222300D01*
X143472957Y-88216104D01*
X143593549Y-88182882D01*
X143705342Y-88126773D01*
X143804041Y-88049931D01*
X143885852Y-87955312D01*
X143947632Y-87846549D01*
X143987006Y-87727824D01*
X143999600Y-87619050D01*
X143840850Y-87460300D01*
X143191600Y-87460300D01*
X142937600Y-87460300D01*
X142288350Y-87460300D01*
X142129600Y-87619050D01*
X141222672Y-87619050D01*
X141222672Y-87437300D01*
X141212823Y-87337300D01*
X141222672Y-87237300D01*
X141222672Y-87037300D01*
X141212823Y-86937300D01*
X141222672Y-86837300D01*
X141222672Y-86637300D01*
X141212823Y-86537300D01*
X141222672Y-86437300D01*
X141222672Y-86237300D01*
X141212823Y-86137300D01*
X141222672Y-86037300D01*
X141222672Y-86019050D01*
X142129600Y-86019050D01*
X142142194Y-86127824D01*
X142181568Y-86246549D01*
X142243348Y-86355312D01*
X142325159Y-86449931D01*
X142423858Y-86526773D01*
X142444832Y-86537300D01*
X142423858Y-86547827D01*
X142325159Y-86624669D01*
X142243348Y-86719288D01*
X142181568Y-86828051D01*
X142142194Y-86946776D01*
X142129600Y-87055550D01*
X142288350Y-87214300D01*
X142937600Y-87214300D01*
X142937600Y-86611050D01*
X142863850Y-86537300D01*
X142937600Y-86463550D01*
X142937600Y-85860300D01*
X143191600Y-85860300D01*
X143191600Y-86463550D01*
X143265350Y-86537300D01*
X143191600Y-86611050D01*
X143191600Y-87214300D01*
X143840850Y-87214300D01*
X143999600Y-87055550D01*
X143987006Y-86946776D01*
X143947632Y-86828051D01*
X143885852Y-86719288D01*
X143804041Y-86624669D01*
X143705342Y-86547827D01*
X143684368Y-86537300D01*
X143705342Y-86526773D01*
X143804041Y-86449931D01*
X143885852Y-86355312D01*
X143947632Y-86246549D01*
X143987006Y-86127824D01*
X143999600Y-86019050D01*
X143840850Y-85860300D01*
X143191600Y-85860300D01*
X142937600Y-85860300D01*
X142288350Y-85860300D01*
X142129600Y-86019050D01*
X141222672Y-86019050D01*
X141222672Y-85837300D01*
X141212915Y-85738236D01*
X141219600Y-85696050D01*
X141199110Y-85675560D01*
X141174102Y-85593120D01*
X141144265Y-85537300D01*
X141174102Y-85481480D01*
X141199110Y-85399040D01*
X141219600Y-85378550D01*
X141212915Y-85336364D01*
X141222672Y-85237300D01*
X141222672Y-85037300D01*
X141212823Y-84937300D01*
X141222672Y-84837300D01*
X141222672Y-84637300D01*
X141212915Y-84538236D01*
X141219600Y-84496050D01*
X141199110Y-84475560D01*
X141174102Y-84393120D01*
X141144265Y-84337300D01*
X141174102Y-84281480D01*
X141199110Y-84199040D01*
X141219600Y-84178550D01*
X141212915Y-84136364D01*
X141212961Y-84135900D01*
X141505747Y-84135900D01*
X141579495Y-84185177D01*
X141740555Y-84251890D01*
X141911535Y-84285900D01*
X142085865Y-84285900D01*
X142194446Y-84264302D01*
X142284348Y-84264302D01*
X142129600Y-84419050D01*
X142142194Y-84527824D01*
X142181568Y-84646549D01*
X142243348Y-84755312D01*
X142325159Y-84849931D01*
X142423858Y-84926773D01*
X142444832Y-84937300D01*
X142423858Y-84947827D01*
X142325159Y-85024669D01*
X142243348Y-85119288D01*
X142181568Y-85228051D01*
X142142194Y-85346776D01*
X142129600Y-85455550D01*
X142288350Y-85614300D01*
X142937600Y-85614300D01*
X142937600Y-85011050D01*
X142863850Y-84937300D01*
X142937600Y-84863550D01*
X142937600Y-84260300D01*
X143191600Y-84260300D01*
X143191600Y-84863550D01*
X143265350Y-84937300D01*
X143191600Y-85011050D01*
X143191600Y-85614300D01*
X143840850Y-85614300D01*
X143999600Y-85455550D01*
X143987006Y-85346776D01*
X143947632Y-85228051D01*
X143885852Y-85119288D01*
X143804041Y-85024669D01*
X143705342Y-84947827D01*
X143684368Y-84937300D01*
X143705342Y-84926773D01*
X143804041Y-84849931D01*
X143885852Y-84755312D01*
X143947632Y-84646549D01*
X143987006Y-84527824D01*
X143999600Y-84419050D01*
X143840850Y-84260300D01*
X143191600Y-84260300D01*
X142937600Y-84260300D01*
X142917600Y-84260300D01*
X142917600Y-84014300D01*
X142937600Y-84014300D01*
X142937600Y-83468978D01*
X142985837Y-83378733D01*
X143027865Y-83240185D01*
X143038500Y-83132205D01*
X143038500Y-83132196D01*
X143042055Y-83096101D01*
X143038500Y-83060006D01*
X143038500Y-82660300D01*
X143191600Y-82660300D01*
X143191600Y-83263550D01*
X143265350Y-83337300D01*
X143191600Y-83411050D01*
X143191600Y-84014300D01*
X143840850Y-84014300D01*
X143999600Y-83855550D01*
X143987006Y-83746776D01*
X143947632Y-83628051D01*
X143885852Y-83519288D01*
X143804041Y-83424669D01*
X143705342Y-83347827D01*
X143684368Y-83337300D01*
X143705342Y-83326773D01*
X143804041Y-83249931D01*
X143885852Y-83155312D01*
X143947632Y-83046549D01*
X143987006Y-82927824D01*
X143999600Y-82819050D01*
X143840850Y-82660300D01*
X143191600Y-82660300D01*
X143038500Y-82660300D01*
X143038500Y-81060300D01*
X143191600Y-81060300D01*
X143191600Y-81663550D01*
X143265350Y-81737300D01*
X143191600Y-81811050D01*
X143191600Y-82414300D01*
X143840850Y-82414300D01*
X143999600Y-82255550D01*
X143987006Y-82146776D01*
X143947632Y-82028051D01*
X143885852Y-81919288D01*
X143804041Y-81824669D01*
X143705342Y-81747827D01*
X143684368Y-81737300D01*
X143705342Y-81726773D01*
X143804041Y-81649931D01*
X143885852Y-81555312D01*
X143947632Y-81446549D01*
X143987006Y-81327824D01*
X143999600Y-81219050D01*
X143840850Y-81060300D01*
X143191600Y-81060300D01*
X143038500Y-81060300D01*
X143038500Y-79460300D01*
X143191600Y-79460300D01*
X143191600Y-80063550D01*
X143265350Y-80137300D01*
X143191600Y-80211050D01*
X143191600Y-80814300D01*
X143840850Y-80814300D01*
X143999600Y-80655550D01*
X143987006Y-80546776D01*
X143947632Y-80428051D01*
X143885852Y-80319288D01*
X143804041Y-80224669D01*
X143705342Y-80147827D01*
X143684368Y-80137300D01*
X143705342Y-80126773D01*
X143804041Y-80049931D01*
X143885852Y-79955312D01*
X143947632Y-79846549D01*
X143987006Y-79727824D01*
X143999600Y-79619050D01*
X143840850Y-79460300D01*
X143191600Y-79460300D01*
X143038500Y-79460300D01*
X143038500Y-77860300D01*
X143191600Y-77860300D01*
X143191600Y-78463550D01*
X143265350Y-78537300D01*
X143191600Y-78611050D01*
X143191600Y-79214300D01*
X143840850Y-79214300D01*
X143999600Y-79055550D01*
X143987006Y-78946776D01*
X143947632Y-78828051D01*
X143885852Y-78719288D01*
X143804041Y-78624669D01*
X143705342Y-78547827D01*
X143684368Y-78537300D01*
X143705342Y-78526773D01*
X143804041Y-78449931D01*
X143885852Y-78355312D01*
X143947632Y-78246549D01*
X143987006Y-78127824D01*
X143999600Y-78019050D01*
X143840850Y-77860300D01*
X143191600Y-77860300D01*
X143038500Y-77860300D01*
X143038500Y-77011050D01*
X143191600Y-77011050D01*
X143191600Y-77614300D01*
X143840850Y-77614300D01*
X143999600Y-77455550D01*
X143987006Y-77346776D01*
X143947632Y-77228051D01*
X143885852Y-77119288D01*
X143804041Y-77024669D01*
X143705342Y-76947827D01*
X143593549Y-76891718D01*
X143472957Y-76858496D01*
X143350350Y-76852300D01*
X143191600Y-77011050D01*
X143038500Y-77011050D01*
X143038500Y-75626505D01*
X143042056Y-75590400D01*
X143027865Y-75446315D01*
X142985837Y-75307766D01*
X142917587Y-75180080D01*
X142912191Y-75173505D01*
X143209600Y-75175372D01*
X143334082Y-75163112D01*
X143453780Y-75126802D01*
X143564094Y-75067837D01*
X143660785Y-74988485D01*
X143740137Y-74891794D01*
X143799102Y-74781480D01*
X143835412Y-74661782D01*
X143847672Y-74537300D01*
X143844600Y-74423050D01*
X143685850Y-74264300D01*
X142561600Y-74264300D01*
X142561600Y-74284300D01*
X142307600Y-74284300D01*
X142307600Y-74264300D01*
X141183350Y-74264300D01*
X141125150Y-74322500D01*
X135689882Y-74322500D01*
X135684805Y-74322000D01*
X134960896Y-74322000D01*
X134924799Y-74318445D01*
X134888702Y-74322000D01*
X134888695Y-74322000D01*
X134794932Y-74331235D01*
X134780714Y-74332635D01*
X134738686Y-74345384D01*
X134642167Y-74374663D01*
X134514480Y-74442913D01*
X134402562Y-74534762D01*
X134379546Y-74562807D01*
X131894526Y-77047828D01*
X131368800Y-77047828D01*
X131279900Y-77056584D01*
X131191000Y-77047828D01*
X130454400Y-77047828D01*
X130401886Y-77053000D01*
X126827265Y-77053000D01*
X126791199Y-77049448D01*
X126755134Y-77053000D01*
X126755125Y-77053000D01*
X126647213Y-77063628D01*
X126508759Y-77105628D01*
X126381160Y-77173831D01*
X126269318Y-77265618D01*
X126246320Y-77293641D01*
X126235761Y-77304200D01*
X126144238Y-77304200D01*
X126134880Y-77299198D01*
X126015182Y-77262888D01*
X125890700Y-77250628D01*
X123290700Y-77250628D01*
X123166218Y-77262888D01*
X123046520Y-77299198D01*
X122936206Y-77358163D01*
X122839515Y-77437515D01*
X122760163Y-77534206D01*
X122701198Y-77644520D01*
X122664888Y-77764218D01*
X122652628Y-77888700D01*
X113753500Y-77888700D01*
X113753500Y-75629885D01*
X115778382Y-75629885D01*
X115792527Y-75701384D01*
X115898558Y-75952568D01*
X116051555Y-76178240D01*
X116245639Y-76369728D01*
X116473351Y-76519672D01*
X116725940Y-76622311D01*
X116993700Y-76673700D01*
X117743700Y-76673700D01*
X117743700Y-75415700D01*
X117997700Y-75415700D01*
X117997700Y-76673700D01*
X118747700Y-76673700D01*
X119015460Y-76622311D01*
X119268049Y-76519672D01*
X119495761Y-76369728D01*
X119689845Y-76178240D01*
X119842842Y-75952568D01*
X119948873Y-75701384D01*
X119959911Y-75645590D01*
X121539224Y-75645590D01*
X121560137Y-75739653D01*
X121675409Y-76008126D01*
X121840843Y-76248952D01*
X122050081Y-76452876D01*
X122295082Y-76612061D01*
X122566431Y-76720390D01*
X122853700Y-76773700D01*
X123703700Y-76773700D01*
X123703700Y-75415700D01*
X123957700Y-75415700D01*
X123957700Y-76773700D01*
X124807700Y-76773700D01*
X125094969Y-76720390D01*
X125366318Y-76612061D01*
X125611319Y-76452876D01*
X125820557Y-76248952D01*
X125985991Y-76008126D01*
X126101263Y-75739653D01*
X126122176Y-75645590D01*
X126000855Y-75415700D01*
X123957700Y-75415700D01*
X123703700Y-75415700D01*
X121660545Y-75415700D01*
X121539224Y-75645590D01*
X119959911Y-75645590D01*
X119963018Y-75629885D01*
X119840356Y-75415700D01*
X117997700Y-75415700D01*
X117743700Y-75415700D01*
X115901044Y-75415700D01*
X115778382Y-75629885D01*
X113753500Y-75629885D01*
X113753500Y-74947515D01*
X115778382Y-74947515D01*
X115901044Y-75161700D01*
X117743700Y-75161700D01*
X117743700Y-73903700D01*
X117997700Y-73903700D01*
X117997700Y-75161700D01*
X119840356Y-75161700D01*
X119963018Y-74947515D01*
X119959912Y-74931810D01*
X121539224Y-74931810D01*
X121660545Y-75161700D01*
X123703700Y-75161700D01*
X123703700Y-73803700D01*
X123957700Y-73803700D01*
X123957700Y-75161700D01*
X126000855Y-75161700D01*
X126122176Y-74931810D01*
X126101263Y-74837747D01*
X125985991Y-74569274D01*
X125820557Y-74328448D01*
X125611319Y-74124524D01*
X125366318Y-73965339D01*
X125094969Y-73857010D01*
X124807700Y-73803700D01*
X123957700Y-73803700D01*
X123703700Y-73803700D01*
X122853700Y-73803700D01*
X122566431Y-73857010D01*
X122295082Y-73965339D01*
X122050081Y-74124524D01*
X121840843Y-74328448D01*
X121675409Y-74569274D01*
X121560137Y-74837747D01*
X121539224Y-74931810D01*
X119959912Y-74931810D01*
X119948873Y-74876016D01*
X119842842Y-74624832D01*
X119689845Y-74399160D01*
X119495761Y-74207672D01*
X119268049Y-74057728D01*
X119015460Y-73955089D01*
X118747700Y-73903700D01*
X117997700Y-73903700D01*
X117743700Y-73903700D01*
X116993700Y-73903700D01*
X116725940Y-73955089D01*
X116473351Y-74057728D01*
X116245639Y-74207672D01*
X116051555Y-74399160D01*
X115898558Y-74624832D01*
X115792527Y-74876016D01*
X115778382Y-74947515D01*
X113753500Y-74947515D01*
X113753500Y-73737300D01*
X141021528Y-73737300D01*
X141024600Y-73851550D01*
X141183350Y-74010300D01*
X142307600Y-74010300D01*
X142307600Y-73261050D01*
X142561600Y-73261050D01*
X142561600Y-74010300D01*
X143685850Y-74010300D01*
X143844600Y-73851550D01*
X143847672Y-73737300D01*
X143835412Y-73612818D01*
X143799102Y-73493120D01*
X143740137Y-73382806D01*
X143660785Y-73286115D01*
X143564094Y-73206763D01*
X143453780Y-73147798D01*
X143334082Y-73111488D01*
X143209600Y-73099228D01*
X142720350Y-73102300D01*
X142561600Y-73261050D01*
X142307600Y-73261050D01*
X142148850Y-73102300D01*
X141659600Y-73099228D01*
X141535118Y-73111488D01*
X141415420Y-73147798D01*
X141305106Y-73206763D01*
X141208415Y-73286115D01*
X141129063Y-73382806D01*
X141070098Y-73493120D01*
X141033788Y-73612818D01*
X141021528Y-73737300D01*
X113753500Y-73737300D01*
X113753500Y-71792964D01*
X144094967Y-71805135D01*
%TA.AperFunction,Conductor*%
D29*
G36*
X144094967Y-71805135D02*
G01*
X144106934Y-93345400D01*
X113753500Y-93345400D01*
X113753500Y-91337300D01*
X141021528Y-91337300D01*
X141033788Y-91461782D01*
X141070098Y-91581480D01*
X141129063Y-91691794D01*
X141208415Y-91788485D01*
X141305106Y-91867837D01*
X141415420Y-91926802D01*
X141535118Y-91963112D01*
X141659600Y-91975372D01*
X142148850Y-91972300D01*
X142307600Y-91813550D01*
X142307600Y-91064300D01*
X142561600Y-91064300D01*
X142561600Y-91813550D01*
X142720350Y-91972300D01*
X143209600Y-91975372D01*
X143334082Y-91963112D01*
X143453780Y-91926802D01*
X143564094Y-91867837D01*
X143660785Y-91788485D01*
X143740137Y-91691794D01*
X143799102Y-91581480D01*
X143835412Y-91461782D01*
X143847672Y-91337300D01*
X143844600Y-91223050D01*
X143685850Y-91064300D01*
X142561600Y-91064300D01*
X142307600Y-91064300D01*
X141183350Y-91064300D01*
X141024600Y-91223050D01*
X141021528Y-91337300D01*
X113753500Y-91337300D01*
X113753500Y-90129885D01*
X115778382Y-90129885D01*
X115792527Y-90201384D01*
X115898558Y-90452568D01*
X116051555Y-90678240D01*
X116245639Y-90869728D01*
X116473351Y-91019672D01*
X116725940Y-91122311D01*
X116993700Y-91173700D01*
X117743700Y-91173700D01*
X117743700Y-89915700D01*
X117997700Y-89915700D01*
X117997700Y-91173700D01*
X118747700Y-91173700D01*
X119015460Y-91122311D01*
X119268049Y-91019672D01*
X119495761Y-90869728D01*
X119689845Y-90678240D01*
X119842842Y-90452568D01*
X119948873Y-90201384D01*
X119959911Y-90145590D01*
X121539224Y-90145590D01*
X121560137Y-90239653D01*
X121675409Y-90508126D01*
X121840843Y-90748952D01*
X122050081Y-90952876D01*
X122295082Y-91112061D01*
X122566431Y-91220390D01*
X122853700Y-91273700D01*
X123703700Y-91273700D01*
X123703700Y-89915700D01*
X123957700Y-89915700D01*
X123957700Y-91273700D01*
X124807700Y-91273700D01*
X125094969Y-91220390D01*
X125366318Y-91112061D01*
X125611319Y-90952876D01*
X125820557Y-90748952D01*
X125965950Y-90537300D01*
X141021528Y-90537300D01*
X141024600Y-90651550D01*
X141183350Y-90810300D01*
X142307600Y-90810300D01*
X142307600Y-90061050D01*
X142561600Y-90061050D01*
X142561600Y-90810300D01*
X143685850Y-90810300D01*
X143844600Y-90651550D01*
X143847672Y-90537300D01*
X143835412Y-90412818D01*
X143799102Y-90293120D01*
X143740137Y-90182806D01*
X143660785Y-90086115D01*
X143564094Y-90006763D01*
X143453780Y-89947798D01*
X143334082Y-89911488D01*
X143209600Y-89899228D01*
X142720350Y-89902300D01*
X142561600Y-90061050D01*
X142307600Y-90061050D01*
X142148850Y-89902300D01*
X141659600Y-89899228D01*
X141535118Y-89911488D01*
X141415420Y-89947798D01*
X141305106Y-90006763D01*
X141208415Y-90086115D01*
X141129063Y-90182806D01*
X141070098Y-90293120D01*
X141033788Y-90412818D01*
X141021528Y-90537300D01*
X125965950Y-90537300D01*
X125985991Y-90508126D01*
X126101263Y-90239653D01*
X126122176Y-90145590D01*
X126000855Y-89915700D01*
X123957700Y-89915700D01*
X123703700Y-89915700D01*
X121660545Y-89915700D01*
X121539224Y-90145590D01*
X119959911Y-90145590D01*
X119963018Y-90129885D01*
X119840356Y-89915700D01*
X117997700Y-89915700D01*
X117743700Y-89915700D01*
X115901044Y-89915700D01*
X115778382Y-90129885D01*
X113753500Y-90129885D01*
X113753500Y-89691893D01*
X135049112Y-89691893D01*
X135114637Y-89930760D01*
X135361616Y-90046660D01*
X135626460Y-90112150D01*
X135898992Y-90124712D01*
X136168738Y-90083865D01*
X136425332Y-89991177D01*
X136538363Y-89930760D01*
X136603888Y-89691893D01*
X135826500Y-88914505D01*
X135049112Y-89691893D01*
X113753500Y-89691893D01*
X113753500Y-89447515D01*
X115778382Y-89447515D01*
X115901044Y-89661700D01*
X117743700Y-89661700D01*
X117743700Y-88403700D01*
X117997700Y-88403700D01*
X117997700Y-89661700D01*
X119840356Y-89661700D01*
X119963018Y-89447515D01*
X119959912Y-89431810D01*
X121539224Y-89431810D01*
X121660545Y-89661700D01*
X123703700Y-89661700D01*
X123703700Y-88303700D01*
X123957700Y-88303700D01*
X123957700Y-89661700D01*
X126000855Y-89661700D01*
X126122176Y-89431810D01*
X126101263Y-89337747D01*
X125985991Y-89069274D01*
X125820557Y-88828448D01*
X125611319Y-88624524D01*
X125366318Y-88465339D01*
X125094969Y-88357010D01*
X124807700Y-88303700D01*
X123957700Y-88303700D01*
X123703700Y-88303700D01*
X122853700Y-88303700D01*
X122566431Y-88357010D01*
X122295082Y-88465339D01*
X122050081Y-88624524D01*
X121840843Y-88828448D01*
X121675409Y-89069274D01*
X121560137Y-89337747D01*
X121539224Y-89431810D01*
X119959912Y-89431810D01*
X119948873Y-89376016D01*
X119842842Y-89124832D01*
X119689845Y-88899160D01*
X119495761Y-88707672D01*
X119268049Y-88557728D01*
X119015460Y-88455089D01*
X118747700Y-88403700D01*
X117997700Y-88403700D01*
X117743700Y-88403700D01*
X116993700Y-88403700D01*
X116725940Y-88455089D01*
X116473351Y-88557728D01*
X116245639Y-88707672D01*
X116051555Y-88899160D01*
X115898558Y-89124832D01*
X115792527Y-89376016D01*
X115778382Y-89447515D01*
X113753500Y-89447515D01*
X113753500Y-77888700D01*
X122652628Y-77888700D01*
X122652628Y-78188700D01*
X122662477Y-78288700D01*
X122652628Y-78388700D01*
X122652628Y-78688700D01*
X122662684Y-78790808D01*
X122655700Y-78856950D01*
X122687947Y-78889197D01*
X122701198Y-78932880D01*
X122757761Y-79038700D01*
X122701198Y-79144520D01*
X122687947Y-79188203D01*
X122655700Y-79220450D01*
X122662684Y-79286592D01*
X122652628Y-79388700D01*
X122652628Y-79688700D01*
X122662477Y-79788700D01*
X122652628Y-79888700D01*
X122652628Y-80188700D01*
X122662477Y-80288700D01*
X122652628Y-80388700D01*
X122652628Y-80688700D01*
X122662477Y-80788700D01*
X122652628Y-80888700D01*
X122652628Y-81188700D01*
X122662477Y-81288700D01*
X122652628Y-81388700D01*
X122652628Y-81688700D01*
X122662684Y-81790808D01*
X122655700Y-81856950D01*
X122687947Y-81889197D01*
X122701198Y-81932880D01*
X122757761Y-82038700D01*
X122701198Y-82144520D01*
X122687947Y-82188203D01*
X122655700Y-82220450D01*
X122662684Y-82286592D01*
X122652628Y-82388700D01*
X122652628Y-82688700D01*
X122662477Y-82788700D01*
X122652628Y-82888700D01*
X122652628Y-83188700D01*
X122662684Y-83290808D01*
X122655700Y-83356950D01*
X122687947Y-83389197D01*
X122701198Y-83432880D01*
X122757761Y-83538700D01*
X122701198Y-83644520D01*
X122687947Y-83688203D01*
X122655700Y-83720450D01*
X122662684Y-83786592D01*
X122652628Y-83888700D01*
X122652628Y-84188700D01*
X122662477Y-84288700D01*
X122652628Y-84388700D01*
X122652628Y-84688700D01*
X122662684Y-84790808D01*
X122655700Y-84856950D01*
X122687947Y-84889197D01*
X122701198Y-84932880D01*
X122757761Y-85038700D01*
X122701198Y-85144520D01*
X122687947Y-85188203D01*
X122655700Y-85220450D01*
X122662684Y-85286592D01*
X122652628Y-85388700D01*
X122652628Y-85688700D01*
X122662477Y-85788700D01*
X122652628Y-85888700D01*
X122652628Y-86188700D01*
X122662684Y-86290808D01*
X122655700Y-86356950D01*
X122687947Y-86389197D01*
X122701198Y-86432880D01*
X122757761Y-86538700D01*
X122701198Y-86644520D01*
X122687947Y-86688203D01*
X122655700Y-86720450D01*
X122662684Y-86786592D01*
X122652628Y-86888700D01*
X122652628Y-87188700D01*
X122664888Y-87313182D01*
X122701198Y-87432880D01*
X122760163Y-87543194D01*
X122839515Y-87639885D01*
X122936206Y-87719237D01*
X123046520Y-87778202D01*
X123166218Y-87814512D01*
X123290700Y-87826772D01*
X125890700Y-87826772D01*
X126015182Y-87814512D01*
X126134880Y-87778202D01*
X126211588Y-87737200D01*
X126506403Y-87737200D01*
X126540701Y-87740578D01*
X126574999Y-87737200D01*
X126575010Y-87737200D01*
X126677631Y-87727093D01*
X126809298Y-87687152D01*
X126930644Y-87622291D01*
X127037004Y-87535003D01*
X127058876Y-87508352D01*
X127203028Y-87364200D01*
X128614767Y-87364200D01*
X128918423Y-87667857D01*
X128940291Y-87694503D01*
X128966937Y-87716371D01*
X128966940Y-87716374D01*
X129046650Y-87781791D01*
X129107867Y-87814512D01*
X129167997Y-87846652D01*
X129299664Y-87886593D01*
X129402285Y-87896700D01*
X129402296Y-87896700D01*
X129436594Y-87900078D01*
X129470892Y-87896700D01*
X129827473Y-87896700D01*
X129842206Y-87908791D01*
X129963552Y-87973652D01*
X130095219Y-88013593D01*
X130195868Y-88023506D01*
X130227130Y-88032989D01*
X130200428Y-88121014D01*
X130189800Y-88228926D01*
X130189800Y-88228935D01*
X130186248Y-88265000D01*
X130187932Y-88282095D01*
X130140023Y-88353795D01*
X130073310Y-88514855D01*
X130039300Y-88685835D01*
X130039300Y-88860165D01*
X130073310Y-89031145D01*
X130140023Y-89192205D01*
X130236876Y-89337155D01*
X130360145Y-89460424D01*
X130505095Y-89557277D01*
X130666155Y-89623990D01*
X130837135Y-89658000D01*
X131011465Y-89658000D01*
X131182445Y-89623990D01*
X131343505Y-89557277D01*
X131488455Y-89460424D01*
X131565650Y-89383229D01*
X131617445Y-89435024D01*
X131762395Y-89531877D01*
X131923455Y-89598590D01*
X132094435Y-89632600D01*
X132268765Y-89632600D01*
X132439745Y-89598590D01*
X132600805Y-89531877D01*
X132745755Y-89435024D01*
X132835650Y-89345129D01*
X132887445Y-89396924D01*
X133032395Y-89493777D01*
X133193455Y-89560490D01*
X133364435Y-89594500D01*
X133538765Y-89594500D01*
X133709745Y-89560490D01*
X133870805Y-89493777D01*
X134015755Y-89396924D01*
X134139024Y-89273655D01*
X134235877Y-89128705D01*
X134302590Y-88967645D01*
X134319894Y-88880652D01*
X134438792Y-88761755D01*
X134436688Y-88807392D01*
X134477535Y-89077138D01*
X134570223Y-89333732D01*
X134630640Y-89446763D01*
X134869507Y-89512288D01*
X135646895Y-88734900D01*
X135632753Y-88720758D01*
X135812358Y-88541153D01*
X135826500Y-88555295D01*
X136603888Y-87777907D01*
X136538363Y-87539040D01*
X136395077Y-87471800D01*
X137345174Y-87471800D01*
X137216914Y-87557501D01*
X137024001Y-87750414D01*
X136872429Y-87977257D01*
X136870699Y-87981434D01*
X136783493Y-87957512D01*
X136006105Y-88734900D01*
X136783493Y-89512288D01*
X136984545Y-89457136D01*
X137024001Y-89516186D01*
X137216914Y-89709099D01*
X137443757Y-89860671D01*
X137695811Y-89965075D01*
X137963389Y-90018300D01*
X138236211Y-90018300D01*
X138503789Y-89965075D01*
X138755843Y-89860671D01*
X138982686Y-89709099D01*
X139175599Y-89516186D01*
X139327171Y-89289343D01*
X139417280Y-89071800D01*
X139448332Y-89071800D01*
X139484600Y-89075372D01*
X140584600Y-89075372D01*
X140709082Y-89063112D01*
X140828780Y-89026802D01*
X140939094Y-88967837D01*
X141035785Y-88888485D01*
X141115137Y-88791794D01*
X141174102Y-88681480D01*
X141210412Y-88561782D01*
X141222672Y-88437300D01*
X141222672Y-88237300D01*
X141212823Y-88137300D01*
X141222672Y-88037300D01*
X141222672Y-87837300D01*
X141212823Y-87737300D01*
X141222672Y-87637300D01*
X141222672Y-87619050D01*
X142129600Y-87619050D01*
X142142194Y-87727824D01*
X142181568Y-87846549D01*
X142243348Y-87955312D01*
X142325159Y-88049931D01*
X142423858Y-88126773D01*
X142535651Y-88182882D01*
X142656243Y-88216104D01*
X142778850Y-88222300D01*
X142937600Y-88063550D01*
X142937600Y-87460300D01*
X143191600Y-87460300D01*
X143191600Y-88063550D01*
X143350350Y-88222300D01*
X143472957Y-88216104D01*
X143593549Y-88182882D01*
X143705342Y-88126773D01*
X143804041Y-88049931D01*
X143885852Y-87955312D01*
X143947632Y-87846549D01*
X143987006Y-87727824D01*
X143999600Y-87619050D01*
X143840850Y-87460300D01*
X143191600Y-87460300D01*
X142937600Y-87460300D01*
X142288350Y-87460300D01*
X142129600Y-87619050D01*
X141222672Y-87619050D01*
X141222672Y-87437300D01*
X141212823Y-87337300D01*
X141222672Y-87237300D01*
X141222672Y-87037300D01*
X141212823Y-86937300D01*
X141222672Y-86837300D01*
X141222672Y-86637300D01*
X141212823Y-86537300D01*
X141222672Y-86437300D01*
X141222672Y-86237300D01*
X141212823Y-86137300D01*
X141222672Y-86037300D01*
X141222672Y-86019050D01*
X142129600Y-86019050D01*
X142142194Y-86127824D01*
X142181568Y-86246549D01*
X142243348Y-86355312D01*
X142325159Y-86449931D01*
X142423858Y-86526773D01*
X142444832Y-86537300D01*
X142423858Y-86547827D01*
X142325159Y-86624669D01*
X142243348Y-86719288D01*
X142181568Y-86828051D01*
X142142194Y-86946776D01*
X142129600Y-87055550D01*
X142288350Y-87214300D01*
X142937600Y-87214300D01*
X142937600Y-86611050D01*
X142863850Y-86537300D01*
X142937600Y-86463550D01*
X142937600Y-85860300D01*
X143191600Y-85860300D01*
X143191600Y-86463550D01*
X143265350Y-86537300D01*
X143191600Y-86611050D01*
X143191600Y-87214300D01*
X143840850Y-87214300D01*
X143999600Y-87055550D01*
X143987006Y-86946776D01*
X143947632Y-86828051D01*
X143885852Y-86719288D01*
X143804041Y-86624669D01*
X143705342Y-86547827D01*
X143684368Y-86537300D01*
X143705342Y-86526773D01*
X143804041Y-86449931D01*
X143885852Y-86355312D01*
X143947632Y-86246549D01*
X143987006Y-86127824D01*
X143999600Y-86019050D01*
X143840850Y-85860300D01*
X143191600Y-85860300D01*
X142937600Y-85860300D01*
X142288350Y-85860300D01*
X142129600Y-86019050D01*
X141222672Y-86019050D01*
X141222672Y-85837300D01*
X141212915Y-85738236D01*
X141219600Y-85696050D01*
X141199110Y-85675560D01*
X141174102Y-85593120D01*
X141144265Y-85537300D01*
X141174102Y-85481480D01*
X141199110Y-85399040D01*
X141219600Y-85378550D01*
X141212915Y-85336364D01*
X141222672Y-85237300D01*
X141222672Y-85037300D01*
X141212823Y-84937300D01*
X141222672Y-84837300D01*
X141222672Y-84637300D01*
X141212915Y-84538236D01*
X141219600Y-84496050D01*
X141199110Y-84475560D01*
X141174102Y-84393120D01*
X141144265Y-84337300D01*
X141174102Y-84281480D01*
X141199110Y-84199040D01*
X141219600Y-84178550D01*
X141212915Y-84136364D01*
X141212961Y-84135900D01*
X141505747Y-84135900D01*
X141579495Y-84185177D01*
X141740555Y-84251890D01*
X141911535Y-84285900D01*
X142085865Y-84285900D01*
X142194446Y-84264302D01*
X142284348Y-84264302D01*
X142129600Y-84419050D01*
X142142194Y-84527824D01*
X142181568Y-84646549D01*
X142243348Y-84755312D01*
X142325159Y-84849931D01*
X142423858Y-84926773D01*
X142444832Y-84937300D01*
X142423858Y-84947827D01*
X142325159Y-85024669D01*
X142243348Y-85119288D01*
X142181568Y-85228051D01*
X142142194Y-85346776D01*
X142129600Y-85455550D01*
X142288350Y-85614300D01*
X142937600Y-85614300D01*
X142937600Y-85011050D01*
X142863850Y-84937300D01*
X142937600Y-84863550D01*
X142937600Y-84260300D01*
X143191600Y-84260300D01*
X143191600Y-84863550D01*
X143265350Y-84937300D01*
X143191600Y-85011050D01*
X143191600Y-85614300D01*
X143840850Y-85614300D01*
X143999600Y-85455550D01*
X143987006Y-85346776D01*
X143947632Y-85228051D01*
X143885852Y-85119288D01*
X143804041Y-85024669D01*
X143705342Y-84947827D01*
X143684368Y-84937300D01*
X143705342Y-84926773D01*
X143804041Y-84849931D01*
X143885852Y-84755312D01*
X143947632Y-84646549D01*
X143987006Y-84527824D01*
X143999600Y-84419050D01*
X143840850Y-84260300D01*
X143191600Y-84260300D01*
X142937600Y-84260300D01*
X142917600Y-84260300D01*
X142917600Y-84014300D01*
X142937600Y-84014300D01*
X142937600Y-83468978D01*
X142985837Y-83378733D01*
X143027865Y-83240185D01*
X143038500Y-83132205D01*
X143038500Y-83132196D01*
X143042055Y-83096101D01*
X143038500Y-83060006D01*
X143038500Y-82660300D01*
X143191600Y-82660300D01*
X143191600Y-83263550D01*
X143265350Y-83337300D01*
X143191600Y-83411050D01*
X143191600Y-84014300D01*
X143840850Y-84014300D01*
X143999600Y-83855550D01*
X143987006Y-83746776D01*
X143947632Y-83628051D01*
X143885852Y-83519288D01*
X143804041Y-83424669D01*
X143705342Y-83347827D01*
X143684368Y-83337300D01*
X143705342Y-83326773D01*
X143804041Y-83249931D01*
X143885852Y-83155312D01*
X143947632Y-83046549D01*
X143987006Y-82927824D01*
X143999600Y-82819050D01*
X143840850Y-82660300D01*
X143191600Y-82660300D01*
X143038500Y-82660300D01*
X143038500Y-81060300D01*
X143191600Y-81060300D01*
X143191600Y-81663550D01*
X143265350Y-81737300D01*
X143191600Y-81811050D01*
X143191600Y-82414300D01*
X143840850Y-82414300D01*
X143999600Y-82255550D01*
X143987006Y-82146776D01*
X143947632Y-82028051D01*
X143885852Y-81919288D01*
X143804041Y-81824669D01*
X143705342Y-81747827D01*
X143684368Y-81737300D01*
X143705342Y-81726773D01*
X143804041Y-81649931D01*
X143885852Y-81555312D01*
X143947632Y-81446549D01*
X143987006Y-81327824D01*
X143999600Y-81219050D01*
X143840850Y-81060300D01*
X143191600Y-81060300D01*
X143038500Y-81060300D01*
X143038500Y-79460300D01*
X143191600Y-79460300D01*
X143191600Y-80063550D01*
X143265350Y-80137300D01*
X143191600Y-80211050D01*
X143191600Y-80814300D01*
X143840850Y-80814300D01*
X143999600Y-80655550D01*
X143987006Y-80546776D01*
X143947632Y-80428051D01*
X143885852Y-80319288D01*
X143804041Y-80224669D01*
X143705342Y-80147827D01*
X143684368Y-80137300D01*
X143705342Y-80126773D01*
X143804041Y-80049931D01*
X143885852Y-79955312D01*
X143947632Y-79846549D01*
X143987006Y-79727824D01*
X143999600Y-79619050D01*
X143840850Y-79460300D01*
X143191600Y-79460300D01*
X143038500Y-79460300D01*
X143038500Y-77860300D01*
X143191600Y-77860300D01*
X143191600Y-78463550D01*
X143265350Y-78537300D01*
X143191600Y-78611050D01*
X143191600Y-79214300D01*
X143840850Y-79214300D01*
X143999600Y-79055550D01*
X143987006Y-78946776D01*
X143947632Y-78828051D01*
X143885852Y-78719288D01*
X143804041Y-78624669D01*
X143705342Y-78547827D01*
X143684368Y-78537300D01*
X143705342Y-78526773D01*
X143804041Y-78449931D01*
X143885852Y-78355312D01*
X143947632Y-78246549D01*
X143987006Y-78127824D01*
X143999600Y-78019050D01*
X143840850Y-77860300D01*
X143191600Y-77860300D01*
X143038500Y-77860300D01*
X143038500Y-77011050D01*
X143191600Y-77011050D01*
X143191600Y-77614300D01*
X143840850Y-77614300D01*
X143999600Y-77455550D01*
X143987006Y-77346776D01*
X143947632Y-77228051D01*
X143885852Y-77119288D01*
X143804041Y-77024669D01*
X143705342Y-76947827D01*
X143593549Y-76891718D01*
X143472957Y-76858496D01*
X143350350Y-76852300D01*
X143191600Y-77011050D01*
X143038500Y-77011050D01*
X143038500Y-75626505D01*
X143042056Y-75590400D01*
X143027865Y-75446315D01*
X142985837Y-75307766D01*
X142917587Y-75180080D01*
X142912191Y-75173505D01*
X143209600Y-75175372D01*
X143334082Y-75163112D01*
X143453780Y-75126802D01*
X143564094Y-75067837D01*
X143660785Y-74988485D01*
X143740137Y-74891794D01*
X143799102Y-74781480D01*
X143835412Y-74661782D01*
X143847672Y-74537300D01*
X143844600Y-74423050D01*
X143685850Y-74264300D01*
X142561600Y-74264300D01*
X142561600Y-74284300D01*
X142307600Y-74284300D01*
X142307600Y-74264300D01*
X141183350Y-74264300D01*
X141125150Y-74322500D01*
X135689882Y-74322500D01*
X135684805Y-74322000D01*
X134960896Y-74322000D01*
X134924799Y-74318445D01*
X134888702Y-74322000D01*
X134888695Y-74322000D01*
X134794932Y-74331235D01*
X134780714Y-74332635D01*
X134738686Y-74345384D01*
X134642167Y-74374663D01*
X134514480Y-74442913D01*
X134402562Y-74534762D01*
X134379546Y-74562807D01*
X131894526Y-77047828D01*
X131368800Y-77047828D01*
X131279900Y-77056584D01*
X131191000Y-77047828D01*
X130454400Y-77047828D01*
X130401886Y-77053000D01*
X126827265Y-77053000D01*
X126791199Y-77049448D01*
X126755134Y-77053000D01*
X126755125Y-77053000D01*
X126647213Y-77063628D01*
X126508759Y-77105628D01*
X126381160Y-77173831D01*
X126269318Y-77265618D01*
X126246320Y-77293641D01*
X126235761Y-77304200D01*
X126144238Y-77304200D01*
X126134880Y-77299198D01*
X126015182Y-77262888D01*
X125890700Y-77250628D01*
X123290700Y-77250628D01*
X123166218Y-77262888D01*
X123046520Y-77299198D01*
X122936206Y-77358163D01*
X122839515Y-77437515D01*
X122760163Y-77534206D01*
X122701198Y-77644520D01*
X122664888Y-77764218D01*
X122652628Y-77888700D01*
X113753500Y-77888700D01*
X113753500Y-75629885D01*
X115778382Y-75629885D01*
X115792527Y-75701384D01*
X115898558Y-75952568D01*
X116051555Y-76178240D01*
X116245639Y-76369728D01*
X116473351Y-76519672D01*
X116725940Y-76622311D01*
X116993700Y-76673700D01*
X117743700Y-76673700D01*
X117743700Y-75415700D01*
X117997700Y-75415700D01*
X117997700Y-76673700D01*
X118747700Y-76673700D01*
X119015460Y-76622311D01*
X119268049Y-76519672D01*
X119495761Y-76369728D01*
X119689845Y-76178240D01*
X119842842Y-75952568D01*
X119948873Y-75701384D01*
X119959911Y-75645590D01*
X121539224Y-75645590D01*
X121560137Y-75739653D01*
X121675409Y-76008126D01*
X121840843Y-76248952D01*
X122050081Y-76452876D01*
X122295082Y-76612061D01*
X122566431Y-76720390D01*
X122853700Y-76773700D01*
X123703700Y-76773700D01*
X123703700Y-75415700D01*
X123957700Y-75415700D01*
X123957700Y-76773700D01*
X124807700Y-76773700D01*
X125094969Y-76720390D01*
X125366318Y-76612061D01*
X125611319Y-76452876D01*
X125820557Y-76248952D01*
X125985991Y-76008126D01*
X126101263Y-75739653D01*
X126122176Y-75645590D01*
X126000855Y-75415700D01*
X123957700Y-75415700D01*
X123703700Y-75415700D01*
X121660545Y-75415700D01*
X121539224Y-75645590D01*
X119959911Y-75645590D01*
X119963018Y-75629885D01*
X119840356Y-75415700D01*
X117997700Y-75415700D01*
X117743700Y-75415700D01*
X115901044Y-75415700D01*
X115778382Y-75629885D01*
X113753500Y-75629885D01*
X113753500Y-74947515D01*
X115778382Y-74947515D01*
X115901044Y-75161700D01*
X117743700Y-75161700D01*
X117743700Y-73903700D01*
X117997700Y-73903700D01*
X117997700Y-75161700D01*
X119840356Y-75161700D01*
X119963018Y-74947515D01*
X119959912Y-74931810D01*
X121539224Y-74931810D01*
X121660545Y-75161700D01*
X123703700Y-75161700D01*
X123703700Y-73803700D01*
X123957700Y-73803700D01*
X123957700Y-75161700D01*
X126000855Y-75161700D01*
X126122176Y-74931810D01*
X126101263Y-74837747D01*
X125985991Y-74569274D01*
X125820557Y-74328448D01*
X125611319Y-74124524D01*
X125366318Y-73965339D01*
X125094969Y-73857010D01*
X124807700Y-73803700D01*
X123957700Y-73803700D01*
X123703700Y-73803700D01*
X122853700Y-73803700D01*
X122566431Y-73857010D01*
X122295082Y-73965339D01*
X122050081Y-74124524D01*
X121840843Y-74328448D01*
X121675409Y-74569274D01*
X121560137Y-74837747D01*
X121539224Y-74931810D01*
X119959912Y-74931810D01*
X119948873Y-74876016D01*
X119842842Y-74624832D01*
X119689845Y-74399160D01*
X119495761Y-74207672D01*
X119268049Y-74057728D01*
X119015460Y-73955089D01*
X118747700Y-73903700D01*
X117997700Y-73903700D01*
X117743700Y-73903700D01*
X116993700Y-73903700D01*
X116725940Y-73955089D01*
X116473351Y-74057728D01*
X116245639Y-74207672D01*
X116051555Y-74399160D01*
X115898558Y-74624832D01*
X115792527Y-74876016D01*
X115778382Y-74947515D01*
X113753500Y-74947515D01*
X113753500Y-73737300D01*
X141021528Y-73737300D01*
X141024600Y-73851550D01*
X141183350Y-74010300D01*
X142307600Y-74010300D01*
X142307600Y-73261050D01*
X142561600Y-73261050D01*
X142561600Y-74010300D01*
X143685850Y-74010300D01*
X143844600Y-73851550D01*
X143847672Y-73737300D01*
X143835412Y-73612818D01*
X143799102Y-73493120D01*
X143740137Y-73382806D01*
X143660785Y-73286115D01*
X143564094Y-73206763D01*
X143453780Y-73147798D01*
X143334082Y-73111488D01*
X143209600Y-73099228D01*
X142720350Y-73102300D01*
X142561600Y-73261050D01*
X142307600Y-73261050D01*
X142148850Y-73102300D01*
X141659600Y-73099228D01*
X141535118Y-73111488D01*
X141415420Y-73147798D01*
X141305106Y-73206763D01*
X141208415Y-73286115D01*
X141129063Y-73382806D01*
X141070098Y-73493120D01*
X141033788Y-73612818D01*
X141021528Y-73737300D01*
X113753500Y-73737300D01*
X113753500Y-71792964D01*
X144094967Y-71805135D01*
G37*
%TD.AperFunction*%
D28*
X137125023Y-83947105D02*
X137221876Y-84092055D01*
X137345145Y-84215324D01*
X137490095Y-84312177D01*
X137651155Y-84378890D01*
X137822135Y-84412900D01*
X137996465Y-84412900D01*
X138167445Y-84378890D01*
X138328505Y-84312177D01*
X138388933Y-84271800D01*
X138892162Y-84271800D01*
X138895098Y-84281480D01*
X138924935Y-84337300D01*
X138895098Y-84393120D01*
X138870090Y-84475560D01*
X138849600Y-84496050D01*
X138856285Y-84538236D01*
X138846528Y-84637300D01*
X138846528Y-84837300D01*
X138856377Y-84937300D01*
X138846528Y-85037300D01*
X138846528Y-85202800D01*
X135763533Y-85202800D01*
X137094037Y-83872297D01*
X137125023Y-83947105D01*
%TA.AperFunction,Conductor*%
D29*
G36*
X137125023Y-83947105D02*
G01*
X137221876Y-84092055D01*
X137345145Y-84215324D01*
X137490095Y-84312177D01*
X137651155Y-84378890D01*
X137822135Y-84412900D01*
X137996465Y-84412900D01*
X138167445Y-84378890D01*
X138328505Y-84312177D01*
X138388933Y-84271800D01*
X138892162Y-84271800D01*
X138895098Y-84281480D01*
X138924935Y-84337300D01*
X138895098Y-84393120D01*
X138870090Y-84475560D01*
X138849600Y-84496050D01*
X138856285Y-84538236D01*
X138846528Y-84637300D01*
X138846528Y-84837300D01*
X138856377Y-84937300D01*
X138846528Y-85037300D01*
X138846528Y-85202800D01*
X135763533Y-85202800D01*
X137094037Y-83872297D01*
X137125023Y-83947105D01*
G37*
%TD.AperFunction*%
D28*
X129880306Y-84136891D02*
X130001652Y-84201752D01*
X130133319Y-84241693D01*
X130233968Y-84251606D01*
X130329918Y-84280712D01*
X130454400Y-84292972D01*
X131191000Y-84292972D01*
X131279900Y-84284216D01*
X131368800Y-84292972D01*
X132105400Y-84292972D01*
X132229882Y-84280712D01*
X132325832Y-84251606D01*
X132426481Y-84241693D01*
X132510157Y-84216310D01*
X132163468Y-84562999D01*
X132067300Y-84553528D01*
X131330700Y-84553528D01*
X131241800Y-84562284D01*
X131152900Y-84553528D01*
X130416300Y-84553528D01*
X130291818Y-84565788D01*
X130195868Y-84594894D01*
X130095219Y-84604807D01*
X129963552Y-84644748D01*
X129906259Y-84675372D01*
X129842206Y-84709609D01*
X129827473Y-84721700D01*
X129780334Y-84721700D01*
X129500680Y-84442047D01*
X129478809Y-84415397D01*
X129372449Y-84328109D01*
X129338020Y-84309706D01*
X129451049Y-84249291D01*
X129557409Y-84162003D01*
X129579281Y-84135352D01*
X129589833Y-84124800D01*
X129865573Y-84124800D01*
X129880306Y-84136891D01*
%TA.AperFunction,Conductor*%
D29*
G36*
X129880306Y-84136891D02*
G01*
X130001652Y-84201752D01*
X130133319Y-84241693D01*
X130233968Y-84251606D01*
X130329918Y-84280712D01*
X130454400Y-84292972D01*
X131191000Y-84292972D01*
X131279900Y-84284216D01*
X131368800Y-84292972D01*
X132105400Y-84292972D01*
X132229882Y-84280712D01*
X132325832Y-84251606D01*
X132426481Y-84241693D01*
X132510157Y-84216310D01*
X132163468Y-84562999D01*
X132067300Y-84553528D01*
X131330700Y-84553528D01*
X131241800Y-84562284D01*
X131152900Y-84553528D01*
X130416300Y-84553528D01*
X130291818Y-84565788D01*
X130195868Y-84594894D01*
X130095219Y-84604807D01*
X129963552Y-84644748D01*
X129906259Y-84675372D01*
X129842206Y-84709609D01*
X129827473Y-84721700D01*
X129780334Y-84721700D01*
X129500680Y-84442047D01*
X129478809Y-84415397D01*
X129372449Y-84328109D01*
X129338020Y-84309706D01*
X129451049Y-84249291D01*
X129557409Y-84162003D01*
X129579281Y-84135352D01*
X129589833Y-84124800D01*
X129865573Y-84124800D01*
X129880306Y-84136891D01*
G37*
%TD.AperFunction*%
D28*
X138856377Y-82137300D02*
X138846528Y-82237300D01*
X138846528Y-82437300D01*
X138856377Y-82537300D01*
X138846528Y-82637300D01*
X138846528Y-82802800D01*
X138417069Y-82802800D01*
X138328505Y-82743623D01*
X138253697Y-82712637D01*
X138853925Y-82112409D01*
X138856377Y-82137300D01*
%TA.AperFunction,Conductor*%
D29*
G36*
X138856377Y-82137300D02*
G01*
X138846528Y-82237300D01*
X138846528Y-82437300D01*
X138856377Y-82537300D01*
X138846528Y-82637300D01*
X138846528Y-82802800D01*
X138417069Y-82802800D01*
X138328505Y-82743623D01*
X138253697Y-82712637D01*
X138853925Y-82112409D01*
X138856377Y-82137300D01*
G37*
%TD.AperFunction*%
D28*
X132313204Y-80819163D02*
X132229882Y-80793888D01*
X132105400Y-80781628D01*
X131368800Y-80781628D01*
X131279900Y-80790384D01*
X131191000Y-80781628D01*
X130454400Y-80781628D01*
X130426681Y-80784358D01*
X130651868Y-80559172D01*
X131191000Y-80559172D01*
X131279900Y-80550416D01*
X131368800Y-80559172D01*
X132105400Y-80559172D01*
X132229882Y-80546912D01*
X132349580Y-80510602D01*
X132459894Y-80451637D01*
X132556585Y-80372285D01*
X132635937Y-80275594D01*
X132694902Y-80165280D01*
X132730934Y-80046500D01*
X132805895Y-80046500D01*
X132842000Y-80050056D01*
X132878105Y-80046500D01*
X132986085Y-80035865D01*
X133124633Y-79993837D01*
X133154487Y-79977880D01*
X132313204Y-80819163D01*
%TA.AperFunction,Conductor*%
D29*
G36*
X132313204Y-80819163D02*
G01*
X132229882Y-80793888D01*
X132105400Y-80781628D01*
X131368800Y-80781628D01*
X131279900Y-80790384D01*
X131191000Y-80781628D01*
X130454400Y-80781628D01*
X130426681Y-80784358D01*
X130651868Y-80559172D01*
X131191000Y-80559172D01*
X131279900Y-80550416D01*
X131368800Y-80559172D01*
X132105400Y-80559172D01*
X132229882Y-80546912D01*
X132349580Y-80510602D01*
X132459894Y-80451637D01*
X132556585Y-80372285D01*
X132635937Y-80275594D01*
X132694902Y-80165280D01*
X132730934Y-80046500D01*
X132805895Y-80046500D01*
X132842000Y-80050056D01*
X132878105Y-80046500D01*
X132986085Y-80035865D01*
X133124633Y-79993837D01*
X133154487Y-79977880D01*
X132313204Y-80819163D01*
G37*
%TD.AperFunction*%
%TD*%
M02*
